<?xml version="1.0" encoding="UTF-8" standalone="no"?>
<!DOCTYPE svg PUBLIC "-//W3C//DTD SVG 1.1//EN"
 "http://www.w3.org/Graphics/SVG/1.1/DTD/svg11.dtd">
<!-- Generated by graphviz version 10.0.1 (20240210.2158)
 -->
<!-- Title: G Pages: 1 -->
<svg width="338pt" height="552pt"
 viewBox="0.00 0.00 337.50 552.00" xmlns="http://www.w3.org/2000/svg" xmlns:xlink="http://www.w3.org/1999/xlink">
<g id="graph0" class="graph" transform="scale(1 1) rotate(0) translate(4 548)">
<title>G</title>
<polygon fill="white" stroke="none" points="-4,4 -4,-548 333.5,-548 333.5,4 -4,4"/>
<!-- tree -->
<g id="node1" class="node">
<title>tree</title>
<polygon fill="none" stroke="black" points="61,-537.75 0,-537.75 0,-501.75 61,-501.75 61,-537.75"/>
<text text-anchor="middle" x="30.5" y="-514.33" font-family="Times New Roman,serif" font-size="14.00">size : 13</text>
</g>
<!-- 15632736 -->
<g id="node2" class="node">
<title>15632736</title>
<path fill="none" stroke="green" d="M90.88,-496C90.88,-496 176.12,-496 176.12,-496 182.12,-496 188.12,-502 188.12,-508 188.12,-508 188.12,-531.5 188.12,-531.5 188.12,-537.5 182.12,-543.5 176.12,-543.5 176.12,-543.5 90.88,-543.5 90.88,-543.5 84.88,-543.5 78.88,-537.5 78.88,-531.5 78.88,-531.5 78.88,-508 78.88,-508 78.88,-502 84.88,-496 90.88,-496"/>
<text text-anchor="middle" x="133.5" y="-526.2" font-family="Times New Roman,serif" font-size="14.00">&#45;</text>
<polyline fill="none" stroke="green" points="78.88,-519.75 188.12,-519.75"/>
<text text-anchor="middle" x="103.75" y="-502.45" font-family="Times New Roman,serif" font-size="14.00">LEFT</text>
<polyline fill="none" stroke="green" points="128.62,-496 128.62,-519.75"/>
<text text-anchor="middle" x="158.38" y="-502.45" font-family="Times New Roman,serif" font-size="14.00">RIGHT</text>
</g>
<!-- 15631496 -->
<g id="node3" class="node">
<title>15631496</title>
<path fill="none" stroke="green" d="M37.88,-411.5C37.88,-411.5 123.12,-411.5 123.12,-411.5 129.12,-411.5 135.12,-417.5 135.12,-423.5 135.12,-423.5 135.12,-447 135.12,-447 135.12,-453 129.12,-459 123.12,-459 123.12,-459 37.88,-459 37.88,-459 31.88,-459 25.88,-453 25.88,-447 25.88,-447 25.88,-423.5 25.88,-423.5 25.88,-417.5 31.88,-411.5 37.88,-411.5"/>
<text text-anchor="middle" x="80.5" y="-441.7" font-family="Times New Roman,serif" font-size="14.00">+</text>
<polyline fill="none" stroke="green" points="25.88,-435.25 135.12,-435.25"/>
<text text-anchor="middle" x="50.75" y="-417.95" font-family="Times New Roman,serif" font-size="14.00">LEFT</text>
<polyline fill="none" stroke="green" points="75.62,-411.5 75.62,-435.25"/>
<text text-anchor="middle" x="105.38" y="-417.95" font-family="Times New Roman,serif" font-size="14.00">RIGHT</text>
</g>
<!-- 15632736&#45;&gt;15631496 -->
<g id="edge1" class="edge">
<title>15632736:YES&#45;&gt;15631496</title>
<path fill="none" stroke="green" d="M103.5,-495.5C103.5,-486.93 101.38,-478.1 98.43,-469.97"/>
<polygon fill="green" stroke="green" points="101.68,-468.66 94.6,-460.78 95.22,-471.36 101.68,-468.66"/>
</g>
<!-- 15632616 -->
<g id="node14" class="node">
<title>15632616</title>
<path fill="none" stroke="green" d="M165.5,-417.25C165.5,-417.25 195.5,-417.25 195.5,-417.25 201.5,-417.25 207.5,-423.25 207.5,-429.25 207.5,-429.25 207.5,-441.25 207.5,-441.25 207.5,-447.25 201.5,-453.25 195.5,-453.25 195.5,-453.25 165.5,-453.25 165.5,-453.25 159.5,-453.25 153.5,-447.25 153.5,-441.25 153.5,-441.25 153.5,-429.25 153.5,-429.25 153.5,-423.25 159.5,-417.25 165.5,-417.25"/>
<text text-anchor="middle" x="180.25" y="-429.95" font-family="Times New Roman,serif" font-size="14.00">&#45;2.49</text>
</g>
<!-- 15632736&#45;&gt;15632616 -->
<g id="edge12" class="edge">
<title>15632736:NO&#45;&gt;15632616</title>
<path fill="none" stroke="red" d="M158.5,-495.5C158.5,-484.74 161.73,-473.52 165.71,-463.79"/>
<polygon fill="red" stroke="red" points="168.8,-465.45 169.77,-454.9 162.44,-462.54 168.8,-465.45"/>
</g>
<!-- 15607544 -->
<g id="node4" class="node">
<title>15607544</title>
<path fill="none" stroke="green" d="M13.5,-332.75C13.5,-332.75 43.5,-332.75 43.5,-332.75 49.5,-332.75 55.5,-338.75 55.5,-344.75 55.5,-344.75 55.5,-356.75 55.5,-356.75 55.5,-362.75 49.5,-368.75 43.5,-368.75 43.5,-368.75 13.5,-368.75 13.5,-368.75 7.5,-368.75 1.5,-362.75 1.5,-356.75 1.5,-356.75 1.5,-344.75 1.5,-344.75 1.5,-338.75 7.5,-332.75 13.5,-332.75"/>
<text text-anchor="middle" x="28.38" y="-345.45" font-family="Times New Roman,serif" font-size="14.00">24.00</text>
</g>
<!-- 15631496&#45;&gt;15607544 -->
<g id="edge2" class="edge">
<title>15631496:YES&#45;&gt;15607544</title>
<path fill="none" stroke="green" d="M50.5,-411C50.5,-400.24 47.27,-389.02 43.29,-379.29"/>
<polygon fill="green" stroke="green" points="46.56,-378.04 39.23,-370.4 40.2,-380.95 46.56,-378.04"/>
</g>
<!-- 15632216 -->
<g id="node5" class="node">
<title>15632216</title>
<path fill="none" stroke="green" d="M85.88,-327C85.88,-327 171.12,-327 171.12,-327 177.12,-327 183.12,-333 183.12,-339 183.12,-339 183.12,-362.5 183.12,-362.5 183.12,-368.5 177.12,-374.5 171.12,-374.5 171.12,-374.5 85.88,-374.5 85.88,-374.5 79.88,-374.5 73.88,-368.5 73.88,-362.5 73.88,-362.5 73.88,-339 73.88,-339 73.88,-333 79.88,-327 85.88,-327"/>
<text text-anchor="middle" x="128.5" y="-357.2" font-family="Times New Roman,serif" font-size="14.00">ln</text>
<polyline fill="none" stroke="green" points="73.88,-350.75 183.12,-350.75"/>
<text text-anchor="middle" x="98.75" y="-333.45" font-family="Times New Roman,serif" font-size="14.00">LEFT</text>
<polyline fill="none" stroke="green" points="123.62,-327 123.62,-350.75"/>
<text text-anchor="middle" x="153.38" y="-333.45" font-family="Times New Roman,serif" font-size="14.00">RIGHT</text>
</g>
<!-- 15631496&#45;&gt;15632216 -->
<g id="edge3" class="edge">
<title>15631496:NO&#45;&gt;15632216</title>
<path fill="none" stroke="red" d="M105.5,-411C105.5,-402.43 107.62,-393.6 110.57,-385.47"/>
<polygon fill="red" stroke="red" points="113.78,-386.86 114.4,-376.28 107.32,-384.16 113.78,-386.86"/>
</g>
<!-- 15607704 -->
<g id="node6" class="node">
<title>15607704</title>
<path fill="none" stroke="green" d="M60.5,-248.25C60.5,-248.25 90.5,-248.25 90.5,-248.25 96.5,-248.25 102.5,-254.25 102.5,-260.25 102.5,-260.25 102.5,-272.25 102.5,-272.25 102.5,-278.25 96.5,-284.25 90.5,-284.25 90.5,-284.25 60.5,-284.25 60.5,-284.25 54.5,-284.25 48.5,-278.25 48.5,-272.25 48.5,-272.25 48.5,-260.25 48.5,-260.25 48.5,-254.25 54.5,-248.25 60.5,-248.25"/>
<text text-anchor="middle" x="75.25" y="-260.95" font-family="Times New Roman,serif" font-size="14.00">&#45;1.00</text>
</g>
<!-- 15632216&#45;&gt;15607704 -->
<g id="edge4" class="edge">
<title>15632216:YES&#45;&gt;15607704</title>
<path fill="none" stroke="green" d="M98.5,-326.5C98.5,-315.76 95.17,-304.62 91.05,-294.93"/>
<polygon fill="green" stroke="green" points="94.3,-293.61 86.84,-286.09 87.98,-296.62 94.3,-293.61"/>
</g>
<!-- 15631816 -->
<g id="node7" class="node">
<title>15631816</title>
<path fill="none" stroke="green" d="M132.88,-242.5C132.88,-242.5 218.12,-242.5 218.12,-242.5 224.12,-242.5 230.12,-248.5 230.12,-254.5 230.12,-254.5 230.12,-278 230.12,-278 230.12,-284 224.12,-290 218.12,-290 218.12,-290 132.88,-290 132.88,-290 126.88,-290 120.88,-284 120.88,-278 120.88,-278 120.88,-254.5 120.88,-254.5 120.88,-248.5 126.88,-242.5 132.88,-242.5"/>
<text text-anchor="middle" x="175.5" y="-272.7" font-family="Times New Roman,serif" font-size="14.00">&#45;</text>
<polyline fill="none" stroke="green" points="120.88,-266.25 230.12,-266.25"/>
<text text-anchor="middle" x="145.75" y="-248.95" font-family="Times New Roman,serif" font-size="14.00">LEFT</text>
<polyline fill="none" stroke="green" points="170.62,-242.5 170.62,-266.25"/>
<text text-anchor="middle" x="200.38" y="-248.95" font-family="Times New Roman,serif" font-size="14.00">RIGHT</text>
</g>
<!-- 15632216&#45;&gt;15631816 -->
<g id="edge5" class="edge">
<title>15632216:NO&#45;&gt;15631816</title>
<path fill="none" stroke="red" d="M153.5,-326.5C153.5,-317.98 155.53,-309.17 158.35,-301.04"/>
<polygon fill="red" stroke="red" points="161.56,-302.44 162.01,-291.86 155.05,-299.85 161.56,-302.44"/>
</g>
<!-- 15607584 -->
<g id="node8" class="node">
<title>15607584</title>
<path fill="none" stroke="green" d="M107.5,-163.75C107.5,-163.75 137.5,-163.75 137.5,-163.75 143.5,-163.75 149.5,-169.75 149.5,-175.75 149.5,-175.75 149.5,-187.75 149.5,-187.75 149.5,-193.75 143.5,-199.75 137.5,-199.75 137.5,-199.75 107.5,-199.75 107.5,-199.75 101.5,-199.75 95.5,-193.75 95.5,-187.75 95.5,-187.75 95.5,-175.75 95.5,-175.75 95.5,-169.75 101.5,-163.75 107.5,-163.75"/>
<text text-anchor="middle" x="122.25" y="-176.45" font-family="Times New Roman,serif" font-size="14.00">233.00</text>
</g>
<!-- 15631816&#45;&gt;15607584 -->
<g id="edge6" class="edge">
<title>15631816:YES&#45;&gt;15607584</title>
<path fill="none" stroke="green" d="M145.5,-242C145.5,-231.26 142.17,-220.12 138.05,-210.43"/>
<polygon fill="green" stroke="green" points="141.3,-209.11 133.84,-201.59 134.98,-212.12 141.3,-209.11"/>
</g>
<!-- 15607424 -->
<g id="node9" class="node">
<title>15607424</title>
<path fill="none" stroke="green" d="M179.88,-158C179.88,-158 265.12,-158 265.12,-158 271.12,-158 277.12,-164 277.12,-170 277.12,-170 277.12,-193.5 277.12,-193.5 277.12,-199.5 271.12,-205.5 265.12,-205.5 265.12,-205.5 179.88,-205.5 179.88,-205.5 173.88,-205.5 167.88,-199.5 167.88,-193.5 167.88,-193.5 167.88,-170 167.88,-170 167.88,-164 173.88,-158 179.88,-158"/>
<text text-anchor="middle" x="222.5" y="-188.2" font-family="Times New Roman,serif" font-size="14.00">^</text>
<polyline fill="none" stroke="green" points="167.88,-181.75 277.12,-181.75"/>
<text text-anchor="middle" x="192.75" y="-164.45" font-family="Times New Roman,serif" font-size="14.00">LEFT</text>
<polyline fill="none" stroke="green" points="217.62,-158 217.62,-181.75"/>
<text text-anchor="middle" x="247.38" y="-164.45" font-family="Times New Roman,serif" font-size="14.00">RIGHT</text>
</g>
<!-- 15631816&#45;&gt;15607424 -->
<g id="edge7" class="edge">
<title>15631816:NO&#45;&gt;15607424</title>
<path fill="none" stroke="red" d="M200.5,-242C200.5,-233.48 202.53,-224.67 205.35,-216.54"/>
<polygon fill="red" stroke="red" points="208.56,-217.94 209.01,-207.36 202.05,-215.35 208.56,-217.94"/>
</g>
<!-- 15607104 -->
<g id="node10" class="node">
<title>15607104</title>
<path fill="none" stroke="green" d="M154.5,-79.25C154.5,-79.25 184.5,-79.25 184.5,-79.25 190.5,-79.25 196.5,-85.25 196.5,-91.25 196.5,-91.25 196.5,-103.25 196.5,-103.25 196.5,-109.25 190.5,-115.25 184.5,-115.25 184.5,-115.25 154.5,-115.25 154.5,-115.25 148.5,-115.25 142.5,-109.25 142.5,-103.25 142.5,-103.25 142.5,-91.25 142.5,-91.25 142.5,-85.25 148.5,-79.25 154.5,-79.25"/>
<text text-anchor="middle" x="169.25" y="-91.95" font-family="Times New Roman,serif" font-size="14.00">213.00</text>
</g>
<!-- 15607424&#45;&gt;15607104 -->
<g id="edge8" class="edge">
<title>15607424:YES&#45;&gt;15607104</title>
<path fill="none" stroke="green" d="M192.5,-157.5C192.5,-146.76 189.17,-135.62 185.05,-125.93"/>
<polygon fill="green" stroke="green" points="188.3,-124.61 180.84,-117.09 181.98,-127.62 188.3,-124.61"/>
</g>
<!-- 15607144 -->
<g id="node11" class="node">
<title>15607144</title>
<path fill="none" stroke="green" d="M226.88,-73.5C226.88,-73.5 312.12,-73.5 312.12,-73.5 318.12,-73.5 324.12,-79.5 324.12,-85.5 324.12,-85.5 324.12,-109 324.12,-109 324.12,-115 318.12,-121 312.12,-121 312.12,-121 226.88,-121 226.88,-121 220.88,-121 214.88,-115 214.88,-109 214.88,-109 214.88,-85.5 214.88,-85.5 214.88,-79.5 220.88,-73.5 226.88,-73.5"/>
<text text-anchor="middle" x="269.5" y="-103.7" font-family="Times New Roman,serif" font-size="14.00">^</text>
<polyline fill="none" stroke="green" points="214.88,-97.25 324.12,-97.25"/>
<text text-anchor="middle" x="239.75" y="-79.95" font-family="Times New Roman,serif" font-size="14.00">LEFT</text>
<polyline fill="none" stroke="green" points="264.62,-73.5 264.62,-97.25"/>
<text text-anchor="middle" x="294.38" y="-79.95" font-family="Times New Roman,serif" font-size="14.00">RIGHT</text>
</g>
<!-- 15607424&#45;&gt;15607144 -->
<g id="edge9" class="edge">
<title>15607424:NO&#45;&gt;15607144</title>
<path fill="none" stroke="red" d="M247.5,-157.5C247.5,-148.98 249.53,-140.17 252.35,-132.04"/>
<polygon fill="red" stroke="red" points="255.56,-133.44 256.01,-122.86 249.05,-130.85 255.56,-133.44"/>
</g>
<!-- 15607464 -->
<g id="node12" class="node">
<title>15607464</title>
<path fill="none" stroke="green" d="M215.5,-0.5C215.5,-0.5 245.5,-0.5 245.5,-0.5 251.5,-0.5 257.5,-6.5 257.5,-12.5 257.5,-12.5 257.5,-24.5 257.5,-24.5 257.5,-30.5 251.5,-36.5 245.5,-36.5 245.5,-36.5 215.5,-36.5 215.5,-36.5 209.5,-36.5 203.5,-30.5 203.5,-24.5 203.5,-24.5 203.5,-12.5 203.5,-12.5 203.5,-6.5 209.5,-0.5 215.5,-0.5"/>
<text text-anchor="middle" x="230.5" y="-13.2" font-family="Times New Roman,serif" font-size="14.00">4.00</text>
</g>
<!-- 15607144&#45;&gt;15607464 -->
<g id="edge10" class="edge">
<title>15607144:YES&#45;&gt;15607464</title>
<path fill="none" stroke="green" d="M239.5,-73C239.5,-64.77 238.45,-55.93 237.07,-47.85"/>
<polygon fill="green" stroke="green" points="240.54,-47.35 235.19,-38.21 233.67,-48.7 240.54,-47.35"/>
</g>
<!-- 15607624 -->
<g id="node13" class="node">
<title>15607624</title>
<path fill="none" stroke="green" d="M287.5,-0.5C287.5,-0.5 317.5,-0.5 317.5,-0.5 323.5,-0.5 329.5,-6.5 329.5,-12.5 329.5,-12.5 329.5,-24.5 329.5,-24.5 329.5,-30.5 323.5,-36.5 317.5,-36.5 317.5,-36.5 287.5,-36.5 287.5,-36.5 281.5,-36.5 275.5,-30.5 275.5,-24.5 275.5,-24.5 275.5,-12.5 275.5,-12.5 275.5,-6.5 281.5,-0.5 287.5,-0.5"/>
<text text-anchor="middle" x="302.38" y="-13.2" font-family="Times New Roman,serif" font-size="14.00">x</text>
</g>
<!-- 15607144&#45;&gt;15607624 -->
<g id="edge11" class="edge">
<title>15607144:NO&#45;&gt;15607624</title>
<path fill="none" stroke="red" d="M294.5,-73C294.5,-64.8 295.43,-55.96 296.66,-47.89"/>
<polygon fill="red" stroke="red" points="300.07,-48.69 298.33,-38.24 293.17,-47.49 300.07,-48.69"/>
</g>
</g>
</svg>
