<?xml version="1.0" encoding="UTF-8" standalone="no"?>
<!DOCTYPE svg PUBLIC "-//W3C//DTD SVG 1.1//EN"
 "http://www.w3.org/Graphics/SVG/1.1/DTD/svg11.dtd">
<!-- Generated by graphviz version 10.0.1 (20240210.2158)
 -->
<!-- Title: G Pages: 1 -->
<svg width="218pt" height="468pt"
 viewBox="0.00 0.00 218.00 467.50" xmlns="http://www.w3.org/2000/svg" xmlns:xlink="http://www.w3.org/1999/xlink">
<g id="graph0" class="graph" transform="scale(1 1) rotate(0) translate(4 463.5)">
<title>G</title>
<polygon fill="white" stroke="none" points="-4,4 -4,-463.5 214,-463.5 214,4 -4,4"/>
<!-- tree -->
<g id="node1" class="node">
<title>tree</title>
<polygon fill="none" stroke="black" points="62.5,-453.25 1.5,-453.25 1.5,-417.25 62.5,-417.25 62.5,-453.25"/>
<text text-anchor="middle" x="32" y="-429.82" font-family="Times New Roman,serif" font-size="14.00">size : 13</text>
</g>
<!-- 14912904 -->
<g id="node2" class="node">
<title>14912904</title>
<path fill="none" stroke="green" d="M92.38,-411.5C92.38,-411.5 177.62,-411.5 177.62,-411.5 183.62,-411.5 189.62,-417.5 189.62,-423.5 189.62,-423.5 189.62,-447 189.62,-447 189.62,-453 183.62,-459 177.62,-459 177.62,-459 92.38,-459 92.38,-459 86.38,-459 80.38,-453 80.38,-447 80.38,-447 80.38,-423.5 80.38,-423.5 80.38,-417.5 86.38,-411.5 92.38,-411.5"/>
<text text-anchor="middle" x="135" y="-441.7" font-family="Times New Roman,serif" font-size="14.00">*</text>
<polyline fill="none" stroke="green" points="80.38,-435.25 189.62,-435.25"/>
<text text-anchor="middle" x="105.25" y="-417.95" font-family="Times New Roman,serif" font-size="14.00">LEFT</text>
<polyline fill="none" stroke="green" points="130.12,-411.5 130.12,-435.25"/>
<text text-anchor="middle" x="159.88" y="-417.95" font-family="Times New Roman,serif" font-size="14.00">RIGHT</text>
</g>
<!-- 14911648 -->
<g id="node3" class="node">
<title>14911648</title>
<path fill="none" stroke="green" d="M40.38,-327C40.38,-327 125.62,-327 125.62,-327 131.62,-327 137.62,-333 137.62,-339 137.62,-339 137.62,-362.5 137.62,-362.5 137.62,-368.5 131.62,-374.5 125.62,-374.5 125.62,-374.5 40.38,-374.5 40.38,-374.5 34.38,-374.5 28.38,-368.5 28.38,-362.5 28.38,-362.5 28.38,-339 28.38,-339 28.38,-333 34.38,-327 40.38,-327"/>
<text text-anchor="middle" x="83" y="-357.2" font-family="Times New Roman,serif" font-size="14.00">/</text>
<polyline fill="none" stroke="green" points="28.38,-350.75 137.62,-350.75"/>
<text text-anchor="middle" x="53.25" y="-333.45" font-family="Times New Roman,serif" font-size="14.00">LEFT</text>
<polyline fill="none" stroke="green" points="78.12,-327 78.12,-350.75"/>
<text text-anchor="middle" x="107.88" y="-333.45" font-family="Times New Roman,serif" font-size="14.00">RIGHT</text>
</g>
<!-- 14912904&#45;&gt;14911648 -->
<g id="edge1" class="edge">
<title>14912904:YES&#45;&gt;14911648</title>
<path fill="none" stroke="green" d="M105,-411C105,-402.48 102.97,-393.67 100.15,-385.54"/>
<polygon fill="green" stroke="green" points="103.45,-384.35 96.49,-376.36 96.94,-386.94 103.45,-384.35"/>
</g>
<!-- 14913544 -->
<g id="node12" class="node">
<title>14913544</title>
<path fill="none" stroke="green" d="M168,-332.75C168,-332.75 198,-332.75 198,-332.75 204,-332.75 210,-338.75 210,-344.75 210,-344.75 210,-356.75 210,-356.75 210,-362.75 204,-368.75 198,-368.75 198,-368.75 168,-368.75 168,-368.75 162,-368.75 156,-362.75 156,-356.75 156,-356.75 156,-344.75 156,-344.75 156,-338.75 162,-332.75 168,-332.75"/>
<text text-anchor="middle" x="183" y="-345.45" font-family="Times New Roman,serif" font-size="14.00">0.20</text>
</g>
<!-- 14912904&#45;&gt;14913544 -->
<g id="edge10" class="edge">
<title>14912904:NO&#45;&gt;14913544</title>
<path fill="none" stroke="red" d="M160,-411C160,-400.26 163.33,-389.12 167.45,-379.43"/>
<polygon fill="red" stroke="red" points="170.52,-381.12 171.66,-370.59 164.2,-378.11 170.52,-381.12"/>
</g>
<!-- 14910888 -->
<g id="node4" class="node">
<title>14910888</title>
<path fill="none" stroke="green" d="M16,-248.25C16,-248.25 46,-248.25 46,-248.25 52,-248.25 58,-254.25 58,-260.25 58,-260.25 58,-272.25 58,-272.25 58,-278.25 52,-284.25 46,-284.25 46,-284.25 16,-284.25 16,-284.25 10,-284.25 4,-278.25 4,-272.25 4,-272.25 4,-260.25 4,-260.25 4,-254.25 10,-248.25 16,-248.25"/>
<text text-anchor="middle" x="31" y="-260.95" font-family="Times New Roman,serif" font-size="14.00">1.00</text>
</g>
<!-- 14911648&#45;&gt;14910888 -->
<g id="edge2" class="edge">
<title>14911648:YES&#45;&gt;14910888</title>
<path fill="none" stroke="green" d="M53,-326.5C53,-315.74 49.77,-304.52 45.79,-294.79"/>
<polygon fill="green" stroke="green" points="49.06,-293.54 41.73,-285.9 42.7,-296.45 49.06,-293.54"/>
</g>
<!-- 14910808 -->
<g id="node5" class="node">
<title>14910808</title>
<path fill="none" stroke="green" d="M88.38,-242.5C88.38,-242.5 173.62,-242.5 173.62,-242.5 179.62,-242.5 185.62,-248.5 185.62,-254.5 185.62,-254.5 185.62,-278 185.62,-278 185.62,-284 179.62,-290 173.62,-290 173.62,-290 88.38,-290 88.38,-290 82.38,-290 76.38,-284 76.38,-278 76.38,-278 76.38,-254.5 76.38,-254.5 76.38,-248.5 82.38,-242.5 88.38,-242.5"/>
<text text-anchor="middle" x="131" y="-272.7" font-family="Times New Roman,serif" font-size="14.00">^</text>
<polyline fill="none" stroke="green" points="76.38,-266.25 185.62,-266.25"/>
<text text-anchor="middle" x="101.25" y="-248.95" font-family="Times New Roman,serif" font-size="14.00">LEFT</text>
<polyline fill="none" stroke="green" points="126.12,-242.5 126.12,-266.25"/>
<text text-anchor="middle" x="155.88" y="-248.95" font-family="Times New Roman,serif" font-size="14.00">RIGHT</text>
</g>
<!-- 14911648&#45;&gt;14910808 -->
<g id="edge3" class="edge">
<title>14911648:NO&#45;&gt;14910808</title>
<path fill="none" stroke="red" d="M108,-326.5C108,-317.93 110.12,-309.1 113.07,-300.97"/>
<polygon fill="red" stroke="red" points="116.28,-302.36 116.9,-291.78 109.82,-299.66 116.28,-302.36"/>
</g>
<!-- 14910408 -->
<g id="node6" class="node">
<title>14910408</title>
<path fill="none" stroke="green" d="M36.38,-158C36.38,-158 121.62,-158 121.62,-158 127.62,-158 133.62,-164 133.62,-170 133.62,-170 133.62,-193.5 133.62,-193.5 133.62,-199.5 127.62,-205.5 121.62,-205.5 121.62,-205.5 36.38,-205.5 36.38,-205.5 30.38,-205.5 24.38,-199.5 24.38,-193.5 24.38,-193.5 24.38,-170 24.38,-170 24.38,-164 30.38,-158 36.38,-158"/>
<text text-anchor="middle" x="79" y="-188.2" font-family="Times New Roman,serif" font-size="14.00">cos</text>
<polyline fill="none" stroke="green" points="24.38,-181.75 133.62,-181.75"/>
<text text-anchor="middle" x="49.25" y="-164.45" font-family="Times New Roman,serif" font-size="14.00">LEFT</text>
<polyline fill="none" stroke="green" points="74.12,-158 74.12,-181.75"/>
<text text-anchor="middle" x="103.88" y="-164.45" font-family="Times New Roman,serif" font-size="14.00">RIGHT</text>
</g>
<!-- 14910808&#45;&gt;14910408 -->
<g id="edge4" class="edge">
<title>14910808:YES&#45;&gt;14910408</title>
<path fill="none" stroke="green" d="M101,-242C101,-233.48 98.97,-224.67 96.15,-216.54"/>
<polygon fill="green" stroke="green" points="99.45,-215.35 92.49,-207.36 92.94,-217.94 99.45,-215.35"/>
</g>
<!-- 14910768 -->
<g id="node11" class="node">
<title>14910768</title>
<path fill="none" stroke="green" d="M164,-163.75C164,-163.75 194,-163.75 194,-163.75 200,-163.75 206,-169.75 206,-175.75 206,-175.75 206,-187.75 206,-187.75 206,-193.75 200,-199.75 194,-199.75 194,-199.75 164,-199.75 164,-199.75 158,-199.75 152,-193.75 152,-187.75 152,-187.75 152,-175.75 152,-175.75 152,-169.75 158,-163.75 164,-163.75"/>
<text text-anchor="middle" x="179" y="-176.45" font-family="Times New Roman,serif" font-size="14.00">2.00</text>
</g>
<!-- 14910808&#45;&gt;14910768 -->
<g id="edge9" class="edge">
<title>14910808:NO&#45;&gt;14910768</title>
<path fill="none" stroke="red" d="M156,-242C156,-231.26 159.33,-220.12 163.45,-210.43"/>
<polygon fill="red" stroke="red" points="166.52,-212.12 167.66,-201.59 160.2,-209.11 166.52,-212.12"/>
</g>
<!-- 14911328 -->
<g id="node7" class="node">
<title>14911328</title>
<path fill="none" stroke="green" d="M12,-79.25C12,-79.25 42,-79.25 42,-79.25 48,-79.25 54,-85.25 54,-91.25 54,-91.25 54,-103.25 54,-103.25 54,-109.25 48,-115.25 42,-115.25 42,-115.25 12,-115.25 12,-115.25 6,-115.25 0,-109.25 0,-103.25 0,-103.25 0,-91.25 0,-91.25 0,-85.25 6,-79.25 12,-79.25"/>
<text text-anchor="middle" x="26.75" y="-91.95" font-family="Times New Roman,serif" font-size="14.00">&#45;1.00</text>
</g>
<!-- 14910408&#45;&gt;14911328 -->
<g id="edge5" class="edge">
<title>14910408:YES&#45;&gt;14911328</title>
<path fill="none" stroke="green" d="M49,-157.5C49,-146.74 45.77,-135.52 41.79,-125.79"/>
<polygon fill="green" stroke="green" points="45.06,-124.54 37.73,-116.9 38.7,-127.45 45.06,-124.54"/>
</g>
<!-- 14911408 -->
<g id="node8" class="node">
<title>14911408</title>
<path fill="none" stroke="green" d="M84.38,-73.5C84.38,-73.5 169.62,-73.5 169.62,-73.5 175.62,-73.5 181.62,-79.5 181.62,-85.5 181.62,-85.5 181.62,-109 181.62,-109 181.62,-115 175.62,-121 169.62,-121 169.62,-121 84.38,-121 84.38,-121 78.38,-121 72.38,-115 72.38,-109 72.38,-109 72.38,-85.5 72.38,-85.5 72.38,-79.5 78.38,-73.5 84.38,-73.5"/>
<text text-anchor="middle" x="127" y="-103.7" font-family="Times New Roman,serif" font-size="14.00">/</text>
<polyline fill="none" stroke="green" points="72.38,-97.25 181.62,-97.25"/>
<text text-anchor="middle" x="97.25" y="-79.95" font-family="Times New Roman,serif" font-size="14.00">LEFT</text>
<polyline fill="none" stroke="green" points="122.12,-73.5 122.12,-97.25"/>
<text text-anchor="middle" x="151.88" y="-79.95" font-family="Times New Roman,serif" font-size="14.00">RIGHT</text>
</g>
<!-- 14910408&#45;&gt;14911408 -->
<g id="edge6" class="edge">
<title>14910408:NO&#45;&gt;14911408</title>
<path fill="none" stroke="red" d="M104,-157.5C104,-148.93 106.12,-140.1 109.07,-131.97"/>
<polygon fill="red" stroke="red" points="112.28,-133.36 112.9,-122.78 105.82,-130.66 112.28,-133.36"/>
</g>
<!-- 14910968 -->
<g id="node9" class="node">
<title>14910968</title>
<path fill="none" stroke="green" d="M73,-0.5C73,-0.5 103,-0.5 103,-0.5 109,-0.5 115,-6.5 115,-12.5 115,-12.5 115,-24.5 115,-24.5 115,-30.5 109,-36.5 103,-36.5 103,-36.5 73,-36.5 73,-36.5 67,-36.5 61,-30.5 61,-24.5 61,-24.5 61,-12.5 61,-12.5 61,-6.5 67,-0.5 73,-0.5"/>
<text text-anchor="middle" x="87.88" y="-13.2" font-family="Times New Roman,serif" font-size="14.00">x</text>
</g>
<!-- 14911408&#45;&gt;14910968 -->
<g id="edge7" class="edge">
<title>14911408:YES&#45;&gt;14910968</title>
<path fill="none" stroke="green" d="M97,-73C97,-64.77 95.95,-55.93 94.57,-47.85"/>
<polygon fill="green" stroke="green" points="98.04,-47.35 92.69,-38.21 91.17,-48.7 98.04,-47.35"/>
</g>
<!-- 14911368 -->
<g id="node10" class="node">
<title>14911368</title>
<path fill="none" stroke="green" d="M145,-0.5C145,-0.5 175,-0.5 175,-0.5 181,-0.5 187,-6.5 187,-12.5 187,-12.5 187,-24.5 187,-24.5 187,-30.5 181,-36.5 175,-36.5 175,-36.5 145,-36.5 145,-36.5 139,-36.5 133,-30.5 133,-24.5 133,-24.5 133,-12.5 133,-12.5 133,-6.5 139,-0.5 145,-0.5"/>
<text text-anchor="middle" x="160" y="-13.2" font-family="Times New Roman,serif" font-size="14.00">5.00</text>
</g>
<!-- 14911408&#45;&gt;14911368 -->
<g id="edge8" class="edge">
<title>14911408:NO&#45;&gt;14911368</title>
<path fill="none" stroke="red" d="M152,-73C152,-64.8 152.93,-55.96 154.16,-47.89"/>
<polygon fill="red" stroke="red" points="157.57,-48.69 155.83,-38.24 150.67,-47.49 157.57,-48.69"/>
</g>
</g>
</svg>
