<?xml version="1.0" encoding="UTF-8" standalone="no"?>
<!DOCTYPE svg PUBLIC "-//W3C//DTD SVG 1.1//EN"
 "http://www.w3.org/Graphics/SVG/1.1/DTD/svg11.dtd">
<!-- Generated by graphviz version 10.0.1 (20240210.2158)
 -->
<!-- Title: G Pages: 1 -->
<svg width="559pt" height="552pt"
 viewBox="0.00 0.00 559.00 552.00" xmlns="http://www.w3.org/2000/svg" xmlns:xlink="http://www.w3.org/1999/xlink">
<g id="graph0" class="graph" transform="scale(1 1) rotate(0) translate(4 548)">
<title>G</title>
<polygon fill="white" stroke="none" points="-4,4 -4,-548 555,-548 555,4 -4,4"/>
<!-- tree -->
<g id="node1" class="node">
<title>tree</title>
<polygon fill="none" stroke="black" points="136.5,-537.75 75.5,-537.75 75.5,-501.75 136.5,-501.75 136.5,-537.75"/>
<text text-anchor="middle" x="106" y="-514.33" font-family="Times New Roman,serif" font-size="14.00">size : 27</text>
</g>
<!-- 15608544 -->
<g id="node2" class="node">
<title>15608544</title>
<path fill="none" stroke="green" d="M166.38,-496C166.38,-496 251.62,-496 251.62,-496 257.62,-496 263.62,-502 263.62,-508 263.62,-508 263.62,-531.5 263.62,-531.5 263.62,-537.5 257.62,-543.5 251.62,-543.5 251.62,-543.5 166.38,-543.5 166.38,-543.5 160.38,-543.5 154.38,-537.5 154.38,-531.5 154.38,-531.5 154.38,-508 154.38,-508 154.38,-502 160.38,-496 166.38,-496"/>
<text text-anchor="middle" x="209" y="-526.2" font-family="Times New Roman,serif" font-size="14.00">&#45;</text>
<polyline fill="none" stroke="green" points="154.38,-519.75 263.62,-519.75"/>
<text text-anchor="middle" x="179.25" y="-502.45" font-family="Times New Roman,serif" font-size="14.00">LEFT</text>
<polyline fill="none" stroke="green" points="204.12,-496 204.12,-519.75"/>
<text text-anchor="middle" x="233.88" y="-502.45" font-family="Times New Roman,serif" font-size="14.00">RIGHT</text>
</g>
<!-- 15609304 -->
<g id="node3" class="node">
<title>15609304</title>
<path fill="none" stroke="green" d="M59.38,-411.5C59.38,-411.5 144.62,-411.5 144.62,-411.5 150.62,-411.5 156.62,-417.5 156.62,-423.5 156.62,-423.5 156.62,-447 156.62,-447 156.62,-453 150.62,-459 144.62,-459 144.62,-459 59.38,-459 59.38,-459 53.38,-459 47.38,-453 47.38,-447 47.38,-447 47.38,-423.5 47.38,-423.5 47.38,-417.5 53.38,-411.5 59.38,-411.5"/>
<text text-anchor="middle" x="102" y="-441.7" font-family="Times New Roman,serif" font-size="14.00">+</text>
<polyline fill="none" stroke="green" points="47.38,-435.25 156.62,-435.25"/>
<text text-anchor="middle" x="72.25" y="-417.95" font-family="Times New Roman,serif" font-size="14.00">LEFT</text>
<polyline fill="none" stroke="green" points="97.12,-411.5 97.12,-435.25"/>
<text text-anchor="middle" x="126.88" y="-417.95" font-family="Times New Roman,serif" font-size="14.00">RIGHT</text>
</g>
<!-- 15608544&#45;&gt;15609304 -->
<g id="edge1" class="edge">
<title>15608544:YES&#45;&gt;15609304</title>
<path fill="none" stroke="green" d="M153,-507.75C146.5,-507.75 148.69,-500.86 145,-495.5 138.91,-486.66 132.16,-477.2 125.85,-468.5"/>
<polygon fill="green" stroke="green" points="128.83,-466.66 120.11,-460.64 123.18,-470.78 128.83,-466.66"/>
</g>
<!-- 15607864 -->
<g id="node14" class="node">
<title>15607864</title>
<path fill="none" stroke="green" d="M291.38,-411.5C291.38,-411.5 376.62,-411.5 376.62,-411.5 382.62,-411.5 388.62,-417.5 388.62,-423.5 388.62,-423.5 388.62,-447 388.62,-447 388.62,-453 382.62,-459 376.62,-459 376.62,-459 291.38,-459 291.38,-459 285.38,-459 279.38,-453 279.38,-447 279.38,-447 279.38,-423.5 279.38,-423.5 279.38,-417.5 285.38,-411.5 291.38,-411.5"/>
<text text-anchor="middle" x="334" y="-441.7" font-family="Times New Roman,serif" font-size="14.00">/</text>
<polyline fill="none" stroke="green" points="279.38,-435.25 388.62,-435.25"/>
<text text-anchor="middle" x="304.25" y="-417.95" font-family="Times New Roman,serif" font-size="14.00">LEFT</text>
<polyline fill="none" stroke="green" points="329.12,-411.5 329.12,-435.25"/>
<text text-anchor="middle" x="358.88" y="-417.95" font-family="Times New Roman,serif" font-size="14.00">RIGHT</text>
</g>
<!-- 15608544&#45;&gt;15607864 -->
<g id="edge12" class="edge">
<title>15608544:NO&#45;&gt;15607864</title>
<path fill="none" stroke="red" d="M265,-507.75C288.25,-507.75 306.14,-487.93 317.88,-469.16"/>
<polygon fill="red" stroke="red" points="320.87,-470.99 322.84,-460.58 314.81,-467.48 320.87,-470.99"/>
</g>
<!-- 15603400 -->
<g id="node4" class="node">
<title>15603400</title>
<path fill="none" stroke="green" d="M12,-332.75C12,-332.75 42,-332.75 42,-332.75 48,-332.75 54,-338.75 54,-344.75 54,-344.75 54,-356.75 54,-356.75 54,-362.75 48,-368.75 42,-368.75 42,-368.75 12,-368.75 12,-368.75 6,-368.75 0,-362.75 0,-356.75 0,-356.75 0,-344.75 0,-344.75 0,-338.75 6,-332.75 12,-332.75"/>
<text text-anchor="middle" x="26.88" y="-345.45" font-family="Times New Roman,serif" font-size="14.00">24.00</text>
</g>
<!-- 15609304&#45;&gt;15603400 -->
<g id="edge2" class="edge">
<title>15609304:YES&#45;&gt;15603400</title>
<path fill="none" stroke="green" d="M46,-423.25C27.41,-423.25 23.77,-400.38 24.11,-380.51"/>
<polygon fill="green" stroke="green" points="27.61,-380.74 24.64,-370.57 20.62,-380.37 27.61,-380.74"/>
</g>
<!-- 15609344 -->
<g id="node5" class="node">
<title>15609344</title>
<path fill="none" stroke="green" d="M84.38,-327C84.38,-327 169.62,-327 169.62,-327 175.62,-327 181.62,-333 181.62,-339 181.62,-339 181.62,-362.5 181.62,-362.5 181.62,-368.5 175.62,-374.5 169.62,-374.5 169.62,-374.5 84.38,-374.5 84.38,-374.5 78.38,-374.5 72.38,-368.5 72.38,-362.5 72.38,-362.5 72.38,-339 72.38,-339 72.38,-333 78.38,-327 84.38,-327"/>
<text text-anchor="middle" x="127" y="-357.2" font-family="Times New Roman,serif" font-size="14.00">ln</text>
<polyline fill="none" stroke="green" points="72.38,-350.75 181.62,-350.75"/>
<text text-anchor="middle" x="97.25" y="-333.45" font-family="Times New Roman,serif" font-size="14.00">LEFT</text>
<polyline fill="none" stroke="green" points="122.12,-327 122.12,-350.75"/>
<text text-anchor="middle" x="151.88" y="-333.45" font-family="Times New Roman,serif" font-size="14.00">RIGHT</text>
</g>
<!-- 15609304&#45;&gt;15609344 -->
<g id="edge3" class="edge">
<title>15609304:NO&#45;&gt;15609344</title>
<path fill="none" stroke="red" d="M127,-411C127,-402.98 127,-394.36 127,-386.23"/>
<polygon fill="red" stroke="red" points="130.5,-386.34 127,-376.34 123.5,-386.34 130.5,-386.34"/>
</g>
<!-- 15607304 -->
<g id="node6" class="node">
<title>15607304</title>
<path fill="none" stroke="green" d="M37,-248.25C37,-248.25 67,-248.25 67,-248.25 73,-248.25 79,-254.25 79,-260.25 79,-260.25 79,-272.25 79,-272.25 79,-278.25 73,-284.25 67,-284.25 67,-284.25 37,-284.25 37,-284.25 31,-284.25 25,-278.25 25,-272.25 25,-272.25 25,-260.25 25,-260.25 25,-254.25 31,-248.25 37,-248.25"/>
<text text-anchor="middle" x="51.75" y="-260.95" font-family="Times New Roman,serif" font-size="14.00">&#45;1.00</text>
</g>
<!-- 15609344&#45;&gt;15607304 -->
<g id="edge4" class="edge">
<title>15609344:YES&#45;&gt;15607304</title>
<path fill="none" stroke="green" d="M71,-338.75C66.33,-338.75 60.83,-315.67 56.96,-295.73"/>
<polygon fill="green" stroke="green" points="60.42,-295.24 55.16,-286.05 53.54,-296.52 60.42,-295.24"/>
</g>
<!-- 15609464 -->
<g id="node7" class="node">
<title>15609464</title>
<path fill="none" stroke="green" d="M109.38,-242.5C109.38,-242.5 194.62,-242.5 194.62,-242.5 200.62,-242.5 206.62,-248.5 206.62,-254.5 206.62,-254.5 206.62,-278 206.62,-278 206.62,-284 200.62,-290 194.62,-290 194.62,-290 109.38,-290 109.38,-290 103.38,-290 97.38,-284 97.38,-278 97.38,-278 97.38,-254.5 97.38,-254.5 97.38,-248.5 103.38,-242.5 109.38,-242.5"/>
<text text-anchor="middle" x="152" y="-272.7" font-family="Times New Roman,serif" font-size="14.00">&#45;</text>
<polyline fill="none" stroke="green" points="97.38,-266.25 206.62,-266.25"/>
<text text-anchor="middle" x="122.25" y="-248.95" font-family="Times New Roman,serif" font-size="14.00">LEFT</text>
<polyline fill="none" stroke="green" points="147.12,-242.5 147.12,-266.25"/>
<text text-anchor="middle" x="176.88" y="-248.95" font-family="Times New Roman,serif" font-size="14.00">RIGHT</text>
</g>
<!-- 15609344&#45;&gt;15609464 -->
<g id="edge5" class="edge">
<title>15609344:NO&#45;&gt;15609464</title>
<path fill="none" stroke="red" d="M152,-326.5C152,-318.48 152,-309.86 152,-301.73"/>
<polygon fill="red" stroke="red" points="155.5,-301.84 152,-291.84 148.5,-301.84 155.5,-301.84"/>
</g>
<!-- 15609424 -->
<g id="node8" class="node">
<title>15609424</title>
<path fill="none" stroke="green" d="M74,-163.75C74,-163.75 104,-163.75 104,-163.75 110,-163.75 116,-169.75 116,-175.75 116,-175.75 116,-187.75 116,-187.75 116,-193.75 110,-199.75 104,-199.75 104,-199.75 74,-199.75 74,-199.75 68,-199.75 62,-193.75 62,-187.75 62,-187.75 62,-175.75 62,-175.75 62,-169.75 68,-163.75 74,-163.75"/>
<text text-anchor="middle" x="88.75" y="-176.45" font-family="Times New Roman,serif" font-size="14.00">233.00</text>
</g>
<!-- 15609464&#45;&gt;15609424 -->
<g id="edge6" class="edge">
<title>15609464:YES&#45;&gt;15609424</title>
<path fill="none" stroke="green" d="M122,-242C122,-230.46 117.17,-219.08 111.2,-209.42"/>
<polygon fill="green" stroke="green" points="114.15,-207.53 105.59,-201.29 108.39,-211.51 114.15,-207.53"/>
</g>
<!-- 15609544 -->
<g id="node9" class="node">
<title>15609544</title>
<path fill="none" stroke="green" d="M146.38,-158C146.38,-158 231.62,-158 231.62,-158 237.62,-158 243.62,-164 243.62,-170 243.62,-170 243.62,-193.5 243.62,-193.5 243.62,-199.5 237.62,-205.5 231.62,-205.5 231.62,-205.5 146.38,-205.5 146.38,-205.5 140.38,-205.5 134.38,-199.5 134.38,-193.5 134.38,-193.5 134.38,-170 134.38,-170 134.38,-164 140.38,-158 146.38,-158"/>
<text text-anchor="middle" x="189" y="-188.2" font-family="Times New Roman,serif" font-size="14.00">^</text>
<polyline fill="none" stroke="green" points="134.38,-181.75 243.62,-181.75"/>
<text text-anchor="middle" x="159.25" y="-164.45" font-family="Times New Roman,serif" font-size="14.00">LEFT</text>
<polyline fill="none" stroke="green" points="184.12,-158 184.12,-181.75"/>
<text text-anchor="middle" x="213.88" y="-164.45" font-family="Times New Roman,serif" font-size="14.00">RIGHT</text>
</g>
<!-- 15609464&#45;&gt;15609544 -->
<g id="edge7" class="edge">
<title>15609464:NO&#45;&gt;15609544</title>
<path fill="none" stroke="red" d="M177,-242C177,-233.8 178.12,-225.08 179.67,-216.93"/>
<polygon fill="red" stroke="red" points="183.05,-217.88 181.77,-207.37 176.21,-216.39 183.05,-217.88"/>
</g>
<!-- 15609504 -->
<g id="node10" class="node">
<title>15609504</title>
<path fill="none" stroke="green" d="M121,-79.25C121,-79.25 151,-79.25 151,-79.25 157,-79.25 163,-85.25 163,-91.25 163,-91.25 163,-103.25 163,-103.25 163,-109.25 157,-115.25 151,-115.25 151,-115.25 121,-115.25 121,-115.25 115,-115.25 109,-109.25 109,-103.25 109,-103.25 109,-91.25 109,-91.25 109,-85.25 115,-79.25 121,-79.25"/>
<text text-anchor="middle" x="135.75" y="-91.95" font-family="Times New Roman,serif" font-size="14.00">213.00</text>
</g>
<!-- 15609544&#45;&gt;15609504 -->
<g id="edge8" class="edge">
<title>15609544:YES&#45;&gt;15609504</title>
<path fill="none" stroke="green" d="M159,-157.5C159,-146.76 155.67,-135.62 151.55,-125.93"/>
<polygon fill="green" stroke="green" points="154.8,-124.61 147.34,-117.09 148.48,-127.62 154.8,-124.61"/>
</g>
<!-- 15608336 -->
<g id="node11" class="node">
<title>15608336</title>
<path fill="none" stroke="green" d="M193.38,-73.5C193.38,-73.5 278.62,-73.5 278.62,-73.5 284.62,-73.5 290.62,-79.5 290.62,-85.5 290.62,-85.5 290.62,-109 290.62,-109 290.62,-115 284.62,-121 278.62,-121 278.62,-121 193.38,-121 193.38,-121 187.38,-121 181.38,-115 181.38,-109 181.38,-109 181.38,-85.5 181.38,-85.5 181.38,-79.5 187.38,-73.5 193.38,-73.5"/>
<text text-anchor="middle" x="236" y="-103.7" font-family="Times New Roman,serif" font-size="14.00">^</text>
<polyline fill="none" stroke="green" points="181.38,-97.25 290.62,-97.25"/>
<text text-anchor="middle" x="206.25" y="-79.95" font-family="Times New Roman,serif" font-size="14.00">LEFT</text>
<polyline fill="none" stroke="green" points="231.12,-73.5 231.12,-97.25"/>
<text text-anchor="middle" x="260.88" y="-79.95" font-family="Times New Roman,serif" font-size="14.00">RIGHT</text>
</g>
<!-- 15609544&#45;&gt;15608336 -->
<g id="edge9" class="edge">
<title>15609544:NO&#45;&gt;15608336</title>
<path fill="none" stroke="red" d="M214,-157.5C214,-148.98 216.03,-140.17 218.85,-132.04"/>
<polygon fill="red" stroke="red" points="222.06,-133.44 222.51,-122.86 215.55,-130.85 222.06,-133.44"/>
</g>
<!-- 15609624 -->
<g id="node12" class="node">
<title>15609624</title>
<path fill="none" stroke="green" d="M183,-0.5C183,-0.5 213,-0.5 213,-0.5 219,-0.5 225,-6.5 225,-12.5 225,-12.5 225,-24.5 225,-24.5 225,-30.5 219,-36.5 213,-36.5 213,-36.5 183,-36.5 183,-36.5 177,-36.5 171,-30.5 171,-24.5 171,-24.5 171,-12.5 171,-12.5 171,-6.5 177,-0.5 183,-0.5"/>
<text text-anchor="middle" x="198" y="-13.2" font-family="Times New Roman,serif" font-size="14.00">4.00</text>
</g>
<!-- 15608336&#45;&gt;15609624 -->
<g id="edge10" class="edge">
<title>15608336:YES&#45;&gt;15609624</title>
<path fill="none" stroke="green" d="M206,-73C206,-64.8 205.07,-55.96 203.84,-47.89"/>
<polygon fill="green" stroke="green" points="207.33,-47.49 202.17,-38.24 200.43,-48.69 207.33,-47.49"/>
</g>
<!-- 15603352 -->
<g id="node13" class="node">
<title>15603352</title>
<path fill="none" stroke="green" d="M255,-0.5C255,-0.5 285,-0.5 285,-0.5 291,-0.5 297,-6.5 297,-12.5 297,-12.5 297,-24.5 297,-24.5 297,-30.5 291,-36.5 285,-36.5 285,-36.5 255,-36.5 255,-36.5 249,-36.5 243,-30.5 243,-24.5 243,-24.5 243,-12.5 243,-12.5 243,-6.5 249,-0.5 255,-0.5"/>
<text text-anchor="middle" x="269.88" y="-13.2" font-family="Times New Roman,serif" font-size="14.00">x</text>
</g>
<!-- 15608336&#45;&gt;15603352 -->
<g id="edge11" class="edge">
<title>15608336:NO&#45;&gt;15603352</title>
<path fill="none" stroke="red" d="M261,-73C261,-64.77 262.05,-55.93 263.43,-47.85"/>
<polygon fill="red" stroke="red" points="266.83,-48.7 265.31,-38.21 259.96,-47.35 266.83,-48.7"/>
</g>
<!-- 15608584 -->
<g id="node15" class="node">
<title>15608584</title>
<path fill="none" stroke="green" d="M261.38,-327C261.38,-327 346.62,-327 346.62,-327 352.62,-327 358.62,-333 358.62,-339 358.62,-339 358.62,-362.5 358.62,-362.5 358.62,-368.5 352.62,-374.5 346.62,-374.5 346.62,-374.5 261.38,-374.5 261.38,-374.5 255.38,-374.5 249.38,-368.5 249.38,-362.5 249.38,-362.5 249.38,-339 249.38,-339 249.38,-333 255.38,-327 261.38,-327"/>
<text text-anchor="middle" x="304" y="-357.2" font-family="Times New Roman,serif" font-size="14.00">tg</text>
<polyline fill="none" stroke="green" points="249.38,-350.75 358.62,-350.75"/>
<text text-anchor="middle" x="274.25" y="-333.45" font-family="Times New Roman,serif" font-size="14.00">LEFT</text>
<polyline fill="none" stroke="green" points="299.12,-327 299.12,-350.75"/>
<text text-anchor="middle" x="328.88" y="-333.45" font-family="Times New Roman,serif" font-size="14.00">RIGHT</text>
</g>
<!-- 15607864&#45;&gt;15608584 -->
<g id="edge13" class="edge">
<title>15607864:YES&#45;&gt;15608584</title>
<path fill="none" stroke="green" d="M304,-411C304,-402.98 304,-394.36 304,-386.23"/>
<polygon fill="green" stroke="green" points="307.5,-386.34 304,-376.34 300.5,-386.34 307.5,-386.34"/>
</g>
<!-- 15607224 -->
<g id="node22" class="node">
<title>15607224</title>
<path fill="none" stroke="green" d="M439.38,-327C439.38,-327 524.62,-327 524.62,-327 530.62,-327 536.62,-333 536.62,-339 536.62,-339 536.62,-362.5 536.62,-362.5 536.62,-368.5 530.62,-374.5 524.62,-374.5 524.62,-374.5 439.38,-374.5 439.38,-374.5 433.38,-374.5 427.38,-368.5 427.38,-362.5 427.38,-362.5 427.38,-339 427.38,-339 427.38,-333 433.38,-327 439.38,-327"/>
<text text-anchor="middle" x="482" y="-357.2" font-family="Times New Roman,serif" font-size="14.00">sin</text>
<polyline fill="none" stroke="green" points="427.38,-350.75 536.62,-350.75"/>
<text text-anchor="middle" x="452.25" y="-333.45" font-family="Times New Roman,serif" font-size="14.00">LEFT</text>
<polyline fill="none" stroke="green" points="477.12,-327 477.12,-350.75"/>
<text text-anchor="middle" x="506.88" y="-333.45" font-family="Times New Roman,serif" font-size="14.00">RIGHT</text>
</g>
<!-- 15607864&#45;&gt;15607224 -->
<g id="edge20" class="edge">
<title>15607864:NO&#45;&gt;15607224</title>
<path fill="none" stroke="red" d="M390,-423.25C417.77,-423.25 442.21,-402.69 458.9,-383.63"/>
<polygon fill="red" stroke="red" points="461.59,-385.87 465.27,-375.93 456.2,-381.4 461.59,-385.87"/>
</g>
<!-- 15607264 -->
<g id="node16" class="node">
<title>15607264</title>
<path fill="none" stroke="green" d="M237,-248.25C237,-248.25 267,-248.25 267,-248.25 273,-248.25 279,-254.25 279,-260.25 279,-260.25 279,-272.25 279,-272.25 279,-278.25 273,-284.25 267,-284.25 267,-284.25 237,-284.25 237,-284.25 231,-284.25 225,-278.25 225,-272.25 225,-272.25 225,-260.25 225,-260.25 225,-254.25 231,-248.25 237,-248.25"/>
<text text-anchor="middle" x="251.75" y="-260.95" font-family="Times New Roman,serif" font-size="14.00">&#45;1.00</text>
</g>
<!-- 15608584&#45;&gt;15607264 -->
<g id="edge14" class="edge">
<title>15608584:YES&#45;&gt;15607264</title>
<path fill="none" stroke="green" d="M274,-326.5C274,-315.74 270.77,-304.52 266.79,-294.79"/>
<polygon fill="green" stroke="green" points="270.06,-293.54 262.73,-285.9 263.7,-296.45 270.06,-293.54"/>
</g>
<!-- 15598768 -->
<g id="node17" class="node">
<title>15598768</title>
<path fill="none" stroke="green" d="M309.38,-242.5C309.38,-242.5 394.62,-242.5 394.62,-242.5 400.62,-242.5 406.62,-248.5 406.62,-254.5 406.62,-254.5 406.62,-278 406.62,-278 406.62,-284 400.62,-290 394.62,-290 394.62,-290 309.38,-290 309.38,-290 303.38,-290 297.38,-284 297.38,-278 297.38,-278 297.38,-254.5 297.38,-254.5 297.38,-248.5 303.38,-242.5 309.38,-242.5"/>
<text text-anchor="middle" x="352" y="-272.7" font-family="Times New Roman,serif" font-size="14.00">cos</text>
<polyline fill="none" stroke="green" points="297.38,-266.25 406.62,-266.25"/>
<text text-anchor="middle" x="322.25" y="-248.95" font-family="Times New Roman,serif" font-size="14.00">LEFT</text>
<polyline fill="none" stroke="green" points="347.12,-242.5 347.12,-266.25"/>
<text text-anchor="middle" x="376.88" y="-248.95" font-family="Times New Roman,serif" font-size="14.00">RIGHT</text>
</g>
<!-- 15608584&#45;&gt;15598768 -->
<g id="edge15" class="edge">
<title>15608584:NO&#45;&gt;15598768</title>
<path fill="none" stroke="red" d="M329,-326.5C329,-317.93 331.12,-309.1 334.07,-300.97"/>
<polygon fill="red" stroke="red" points="337.28,-302.36 337.9,-291.78 330.82,-299.66 337.28,-302.36"/>
</g>
<!-- 15607064 -->
<g id="node18" class="node">
<title>15607064</title>
<path fill="none" stroke="green" d="M296,-163.75C296,-163.75 326,-163.75 326,-163.75 332,-163.75 338,-169.75 338,-175.75 338,-175.75 338,-187.75 338,-187.75 338,-193.75 332,-199.75 326,-199.75 326,-199.75 296,-199.75 296,-199.75 290,-199.75 284,-193.75 284,-187.75 284,-187.75 284,-175.75 284,-175.75 284,-169.75 290,-163.75 296,-163.75"/>
<text text-anchor="middle" x="310.75" y="-176.45" font-family="Times New Roman,serif" font-size="14.00">&#45;1.00</text>
</g>
<!-- 15598768&#45;&gt;15607064 -->
<g id="edge16" class="edge">
<title>15598768:YES&#45;&gt;15607064</title>
<path fill="none" stroke="green" d="M322,-242C322,-231.88 320.43,-220.96 318.48,-211.28"/>
<polygon fill="green" stroke="green" points="321.93,-210.68 316.32,-201.7 315.1,-212.22 321.93,-210.68"/>
</g>
<!-- 15607784 -->
<g id="node19" class="node">
<title>15607784</title>
<path fill="none" stroke="green" d="M368.38,-158C368.38,-158 453.62,-158 453.62,-158 459.62,-158 465.62,-164 465.62,-170 465.62,-170 465.62,-193.5 465.62,-193.5 465.62,-199.5 459.62,-205.5 453.62,-205.5 453.62,-205.5 368.38,-205.5 368.38,-205.5 362.38,-205.5 356.38,-199.5 356.38,-193.5 356.38,-193.5 356.38,-170 356.38,-170 356.38,-164 362.38,-158 368.38,-158"/>
<text text-anchor="middle" x="411" y="-188.2" font-family="Times New Roman,serif" font-size="14.00">+</text>
<polyline fill="none" stroke="green" points="356.38,-181.75 465.62,-181.75"/>
<text text-anchor="middle" x="381.25" y="-164.45" font-family="Times New Roman,serif" font-size="14.00">LEFT</text>
<polyline fill="none" stroke="green" points="406.12,-158 406.12,-181.75"/>
<text text-anchor="middle" x="435.88" y="-164.45" font-family="Times New Roman,serif" font-size="14.00">RIGHT</text>
</g>
<!-- 15598768&#45;&gt;15607784 -->
<g id="edge17" class="edge">
<title>15598768:NO&#45;&gt;15607784</title>
<path fill="none" stroke="red" d="M377,-242C377,-232.83 380.1,-223.79 384.44,-215.64"/>
<polygon fill="red" stroke="red" points="387.4,-217.5 389.65,-207.14 381.43,-213.84 387.4,-217.5"/>
</g>
<!-- 15607504 -->
<g id="node20" class="node">
<title>15607504</title>
<path fill="none" stroke="green" d="M357,-79.25C357,-79.25 387,-79.25 387,-79.25 393,-79.25 399,-85.25 399,-91.25 399,-91.25 399,-103.25 399,-103.25 399,-109.25 393,-115.25 387,-115.25 387,-115.25 357,-115.25 357,-115.25 351,-115.25 345,-109.25 345,-103.25 345,-103.25 345,-91.25 345,-91.25 345,-85.25 351,-79.25 357,-79.25"/>
<text text-anchor="middle" x="371.88" y="-91.95" font-family="Times New Roman,serif" font-size="14.00">23.00</text>
</g>
<!-- 15607784&#45;&gt;15607504 -->
<g id="edge18" class="edge">
<title>15607784:YES&#45;&gt;15607504</title>
<path fill="none" stroke="green" d="M381,-157.5C381,-147.37 379.7,-136.37 378.08,-126.63"/>
<polygon fill="green" stroke="green" points="381.56,-126.2 376.3,-117 374.68,-127.47 381.56,-126.2"/>
</g>
<!-- 15606984 -->
<g id="node21" class="node">
<title>15606984</title>
<path fill="none" stroke="green" d="M429,-79.25C429,-79.25 459,-79.25 459,-79.25 465,-79.25 471,-85.25 471,-91.25 471,-91.25 471,-103.25 471,-103.25 471,-109.25 465,-115.25 459,-115.25 459,-115.25 429,-115.25 429,-115.25 423,-115.25 417,-109.25 417,-103.25 417,-103.25 417,-91.25 417,-91.25 417,-85.25 423,-79.25 429,-79.25"/>
<text text-anchor="middle" x="443.75" y="-91.95" font-family="Times New Roman,serif" font-size="14.00">829.00</text>
</g>
<!-- 15607784&#45;&gt;15606984 -->
<g id="edge19" class="edge">
<title>15607784:NO&#45;&gt;15606984</title>
<path fill="none" stroke="red" d="M436,-157.5C436,-147.39 437.16,-136.4 438.59,-126.66"/>
<polygon fill="red" stroke="red" points="442.01,-127.47 440.18,-117.03 435.1,-126.33 442.01,-127.47"/>
</g>
<!-- 15607664 -->
<g id="node23" class="node">
<title>15607664</title>
<path fill="none" stroke="green" d="M437,-248.25C437,-248.25 467,-248.25 467,-248.25 473,-248.25 479,-254.25 479,-260.25 479,-260.25 479,-272.25 479,-272.25 479,-278.25 473,-284.25 467,-284.25 467,-284.25 437,-284.25 437,-284.25 431,-284.25 425,-278.25 425,-272.25 425,-272.25 425,-260.25 425,-260.25 425,-254.25 431,-248.25 437,-248.25"/>
<text text-anchor="middle" x="451.75" y="-260.95" font-family="Times New Roman,serif" font-size="14.00">&#45;1.00</text>
</g>
<!-- 15607224&#45;&gt;15607664 -->
<g id="edge21" class="edge">
<title>15607224:YES&#45;&gt;15607664</title>
<path fill="none" stroke="green" d="M452,-326.5C452,-316.59 452,-305.75 452,-296.08"/>
<polygon fill="green" stroke="green" points="455.5,-296.13 452,-286.13 448.5,-296.13 455.5,-296.13"/>
</g>
<!-- 15607024 -->
<g id="node24" class="node">
<title>15607024</title>
<path fill="none" stroke="green" d="M509,-248.25C509,-248.25 539,-248.25 539,-248.25 545,-248.25 551,-254.25 551,-260.25 551,-260.25 551,-272.25 551,-272.25 551,-278.25 545,-284.25 539,-284.25 539,-284.25 509,-284.25 509,-284.25 503,-284.25 497,-278.25 497,-272.25 497,-272.25 497,-260.25 497,-260.25 497,-254.25 503,-248.25 509,-248.25"/>
<text text-anchor="middle" x="523.88" y="-260.95" font-family="Times New Roman,serif" font-size="14.00">13.00</text>
</g>
<!-- 15607224&#45;&gt;15607024 -->
<g id="edge22" class="edge">
<title>15607224:NO&#45;&gt;15607024</title>
<path fill="none" stroke="red" d="M507,-326.5C507,-316.04 509.48,-304.93 512.54,-295.19"/>
<polygon fill="red" stroke="red" points="515.78,-296.53 515.79,-285.94 509.18,-294.21 515.78,-296.53"/>
</g>
</g>
</svg>
