<?xml version="1.0" encoding="UTF-8" standalone="no"?>
<!DOCTYPE svg PUBLIC "-//W3C//DTD SVG 1.1//EN"
 "http://www.w3.org/Graphics/SVG/1.1/DTD/svg11.dtd">
<!-- Generated by graphviz version 10.0.1 (20240210.2158)
 -->
<!-- Title: G Pages: 1 -->
<svg width="134pt" height="45pt"
 viewBox="0.00 0.00 134.12 45.00" xmlns="http://www.w3.org/2000/svg" xmlns:xlink="http://www.w3.org/1999/xlink">
<g id="graph0" class="graph" transform="scale(1 1) rotate(0) translate(4 41)">
<title>G</title>
<polygon fill="white" stroke="none" points="-4,4 -4,-41 130.12,-41 130.12,4 -4,4"/>
<!-- tree -->
<g id="node1" class="node">
<title>tree</title>
<polygon fill="none" stroke="black" points="54.25,-36.5 0,-36.5 0,-0.5 54.25,-0.5 54.25,-36.5"/>
<text text-anchor="middle" x="27.12" y="-13.07" font-family="Times New Roman,serif" font-size="14.00">size : 4</text>
</g>
<!-- 14906424 -->
<g id="node2" class="node">
<title>14906424</title>
<path fill="none" stroke="green" d="M84.12,-0.5C84.12,-0.5 114.12,-0.5 114.12,-0.5 120.12,-0.5 126.12,-6.5 126.12,-12.5 126.12,-12.5 126.12,-24.5 126.12,-24.5 126.12,-30.5 120.12,-36.5 114.12,-36.5 114.12,-36.5 84.12,-36.5 84.12,-36.5 78.12,-36.5 72.12,-30.5 72.12,-24.5 72.12,-24.5 72.12,-12.5 72.12,-12.5 72.12,-6.5 78.12,-0.5 84.12,-0.5"/>
<text text-anchor="middle" x="98.88" y="-13.2" font-family="Times New Roman,serif" font-size="14.00">&#45;1.33</text>
</g>
</g>
</svg>
