<?xml version="1.0" encoding="UTF-8" standalone="no"?>
<!DOCTYPE svg PUBLIC "-//W3C//DTD SVG 1.1//EN"
 "http://www.w3.org/Graphics/SVG/1.1/DTD/svg11.dtd">
<!-- Generated by graphviz version 10.0.1 (20240210.2158)
 -->
<!-- Title: G Pages: 1 -->
<svg width="1064pt" height="1059pt"
 viewBox="0.00 0.00 1064.00 1059.00" xmlns="http://www.w3.org/2000/svg" xmlns:xlink="http://www.w3.org/1999/xlink">
<g id="graph0" class="graph" transform="scale(1 1) rotate(0) translate(4 1055)">
<title>G</title>
<polygon fill="white" stroke="none" points="-4,4 -4,-1055 1060,-1055 1060,4 -4,4"/>
<!-- tree -->
<g id="node1" class="node">
<title>tree</title>
<polygon fill="none" stroke="black" points="127.5,-1044.75 66.5,-1044.75 66.5,-1008.75 127.5,-1008.75 127.5,-1044.75"/>
<text text-anchor="middle" x="97" y="-1021.33" font-family="Times New Roman,serif" font-size="14.00">size : 13</text>
</g>
<!-- 15434240 -->
<g id="node2" class="node">
<title>15434240</title>
<path fill="none" stroke="green" d="M157.38,-1003C157.38,-1003 242.62,-1003 242.62,-1003 248.62,-1003 254.62,-1009 254.62,-1015 254.62,-1015 254.62,-1038.5 254.62,-1038.5 254.62,-1044.5 248.62,-1050.5 242.62,-1050.5 242.62,-1050.5 157.38,-1050.5 157.38,-1050.5 151.38,-1050.5 145.38,-1044.5 145.38,-1038.5 145.38,-1038.5 145.38,-1015 145.38,-1015 145.38,-1009 151.38,-1003 157.38,-1003"/>
<text text-anchor="middle" x="200" y="-1033.2" font-family="Times New Roman,serif" font-size="14.00">&#45;</text>
<polyline fill="none" stroke="green" points="145.38,-1026.75 254.62,-1026.75"/>
<text text-anchor="middle" x="170.25" y="-1009.45" font-family="Times New Roman,serif" font-size="14.00">LEFT</text>
<polyline fill="none" stroke="green" points="195.12,-1003 195.12,-1026.75"/>
<text text-anchor="middle" x="224.88" y="-1009.45" font-family="Times New Roman,serif" font-size="14.00">RIGHT</text>
</g>
<!-- 15433240 -->
<g id="node3" class="node">
<title>15433240</title>
<path fill="none" stroke="green" d="M105.38,-918.5C105.38,-918.5 190.62,-918.5 190.62,-918.5 196.62,-918.5 202.62,-924.5 202.62,-930.5 202.62,-930.5 202.62,-954 202.62,-954 202.62,-960 196.62,-966 190.62,-966 190.62,-966 105.38,-966 105.38,-966 99.38,-966 93.38,-960 93.38,-954 93.38,-954 93.38,-930.5 93.38,-930.5 93.38,-924.5 99.38,-918.5 105.38,-918.5"/>
<text text-anchor="middle" x="148" y="-948.7" font-family="Times New Roman,serif" font-size="14.00">+</text>
<polyline fill="none" stroke="green" points="93.38,-942.25 202.62,-942.25"/>
<text text-anchor="middle" x="118.25" y="-924.95" font-family="Times New Roman,serif" font-size="14.00">LEFT</text>
<polyline fill="none" stroke="green" points="143.12,-918.5 143.12,-942.25"/>
<text text-anchor="middle" x="172.88" y="-924.95" font-family="Times New Roman,serif" font-size="14.00">RIGHT</text>
</g>
<!-- 15434240&#45;&gt;15433240 -->
<g id="edge1" class="edge">
<title>15434240:YES&#45;&gt;15433240</title>
<path fill="none" stroke="green" d="M170,-1002.5C170,-993.98 167.97,-985.17 165.15,-977.04"/>
<polygon fill="green" stroke="green" points="168.45,-975.85 161.49,-967.86 161.94,-978.44 168.45,-975.85"/>
</g>
<!-- 15437392 -->
<g id="node54" class="node">
<title>15437392</title>
<path fill="none" stroke="green" d="M233,-924.25C233,-924.25 263,-924.25 263,-924.25 269,-924.25 275,-930.25 275,-936.25 275,-936.25 275,-948.25 275,-948.25 275,-954.25 269,-960.25 263,-960.25 263,-960.25 233,-960.25 233,-960.25 227,-960.25 221,-954.25 221,-948.25 221,-948.25 221,-936.25 221,-936.25 221,-930.25 227,-924.25 233,-924.25"/>
<text text-anchor="middle" x="247.88" y="-936.95" font-family="Times New Roman,serif" font-size="14.00">0</text>
</g>
<!-- 15434240&#45;&gt;15437392 -->
<g id="edge52" class="edge">
<title>15434240:NO&#45;&gt;15437392</title>
<path fill="none" stroke="red" d="M225,-1002.5C225,-991.76 228.33,-980.62 232.45,-970.93"/>
<polygon fill="red" stroke="red" points="235.52,-972.62 236.66,-962.09 229.2,-969.61 235.52,-972.62"/>
</g>
<!-- 15433200 -->
<g id="node4" class="node">
<title>15433200</title>
<path fill="none" stroke="green" d="M81,-839.75C81,-839.75 111,-839.75 111,-839.75 117,-839.75 123,-845.75 123,-851.75 123,-851.75 123,-863.75 123,-863.75 123,-869.75 117,-875.75 111,-875.75 111,-875.75 81,-875.75 81,-875.75 75,-875.75 69,-869.75 69,-863.75 69,-863.75 69,-851.75 69,-851.75 69,-845.75 75,-839.75 81,-839.75"/>
<text text-anchor="middle" x="95.88" y="-852.45" font-family="Times New Roman,serif" font-size="14.00">0</text>
</g>
<!-- 15433240&#45;&gt;15433200 -->
<g id="edge2" class="edge">
<title>15433240:YES&#45;&gt;15433200</title>
<path fill="none" stroke="green" d="M118,-918C118,-907.24 114.77,-896.02 110.79,-886.29"/>
<polygon fill="green" stroke="green" points="114.06,-885.04 106.73,-877.4 107.7,-887.95 114.06,-885.04"/>
</g>
<!-- 15432800 -->
<g id="node5" class="node">
<title>15432800</title>
<path fill="none" stroke="green" d="M153.38,-834C153.38,-834 238.62,-834 238.62,-834 244.62,-834 250.62,-840 250.62,-846 250.62,-846 250.62,-869.5 250.62,-869.5 250.62,-875.5 244.62,-881.5 238.62,-881.5 238.62,-881.5 153.38,-881.5 153.38,-881.5 147.38,-881.5 141.38,-875.5 141.38,-869.5 141.38,-869.5 141.38,-846 141.38,-846 141.38,-840 147.38,-834 153.38,-834"/>
<text text-anchor="middle" x="196" y="-864.2" font-family="Times New Roman,serif" font-size="14.00">*</text>
<polyline fill="none" stroke="green" points="141.38,-857.75 250.62,-857.75"/>
<text text-anchor="middle" x="166.25" y="-840.45" font-family="Times New Roman,serif" font-size="14.00">LEFT</text>
<polyline fill="none" stroke="green" points="191.12,-834 191.12,-857.75"/>
<text text-anchor="middle" x="220.88" y="-840.45" font-family="Times New Roman,serif" font-size="14.00">RIGHT</text>
</g>
<!-- 15433240&#45;&gt;15432800 -->
<g id="edge3" class="edge">
<title>15433240:NO&#45;&gt;15432800</title>
<path fill="none" stroke="red" d="M173,-918C173,-909.43 175.12,-900.6 178.07,-892.47"/>
<polygon fill="red" stroke="red" points="181.28,-893.86 181.9,-883.28 174.82,-891.16 181.28,-893.86"/>
</g>
<!-- 15432960 -->
<g id="node6" class="node">
<title>15432960</title>
<path fill="none" stroke="green" d="M59.38,-749.5C59.38,-749.5 144.62,-749.5 144.62,-749.5 150.62,-749.5 156.62,-755.5 156.62,-761.5 156.62,-761.5 156.62,-785 156.62,-785 156.62,-791 150.62,-797 144.62,-797 144.62,-797 59.38,-797 59.38,-797 53.38,-797 47.38,-791 47.38,-785 47.38,-785 47.38,-761.5 47.38,-761.5 47.38,-755.5 53.38,-749.5 59.38,-749.5"/>
<text text-anchor="middle" x="102" y="-779.7" font-family="Times New Roman,serif" font-size="14.00">/</text>
<polyline fill="none" stroke="green" points="47.38,-773.25 156.62,-773.25"/>
<text text-anchor="middle" x="72.25" y="-755.95" font-family="Times New Roman,serif" font-size="14.00">LEFT</text>
<polyline fill="none" stroke="green" points="97.12,-749.5 97.12,-773.25"/>
<text text-anchor="middle" x="126.88" y="-755.95" font-family="Times New Roman,serif" font-size="14.00">RIGHT</text>
</g>
<!-- 15432800&#45;&gt;15432960 -->
<g id="edge4" class="edge">
<title>15432800:YES&#45;&gt;15432960</title>
<path fill="none" stroke="green" d="M140,-845.75C138.82,-845.75 128.44,-826.11 118.83,-807.42"/>
<polygon fill="green" stroke="green" points="121.99,-805.92 114.32,-798.61 115.76,-809.11 121.99,-805.92"/>
</g>
<!-- 15435416 -->
<g id="node15" class="node">
<title>15435416</title>
<path fill="none" stroke="green" d="M228.38,-749.5C228.38,-749.5 313.62,-749.5 313.62,-749.5 319.62,-749.5 325.62,-755.5 325.62,-761.5 325.62,-761.5 325.62,-785 325.62,-785 325.62,-791 319.62,-797 313.62,-797 313.62,-797 228.38,-797 228.38,-797 222.38,-797 216.38,-791 216.38,-785 216.38,-785 216.38,-761.5 216.38,-761.5 216.38,-755.5 222.38,-749.5 228.38,-749.5"/>
<text text-anchor="middle" x="271" y="-779.7" font-family="Times New Roman,serif" font-size="14.00">&#45;</text>
<polyline fill="none" stroke="green" points="216.38,-773.25 325.62,-773.25"/>
<text text-anchor="middle" x="241.25" y="-755.95" font-family="Times New Roman,serif" font-size="14.00">LEFT</text>
<polyline fill="none" stroke="green" points="266.12,-749.5 266.12,-773.25"/>
<text text-anchor="middle" x="295.88" y="-755.95" font-family="Times New Roman,serif" font-size="14.00">RIGHT</text>
</g>
<!-- 15432800&#45;&gt;15435416 -->
<g id="edge13" class="edge">
<title>15432800:NO&#45;&gt;15435416</title>
<path fill="none" stroke="red" d="M252,-845.75C268.83,-845.75 273.41,-827.01 273.87,-808.72"/>
<polygon fill="red" stroke="red" points="277.37,-808.72 273.7,-798.78 270.37,-808.84 277.37,-808.72"/>
</g>
<!-- 15434856 -->
<g id="node7" class="node">
<title>15434856</title>
<path fill="none" stroke="green" d="M12,-670.75C12,-670.75 42,-670.75 42,-670.75 48,-670.75 54,-676.75 54,-682.75 54,-682.75 54,-694.75 54,-694.75 54,-700.75 48,-706.75 42,-706.75 42,-706.75 12,-706.75 12,-706.75 6,-706.75 0,-700.75 0,-694.75 0,-694.75 0,-682.75 0,-682.75 0,-676.75 6,-670.75 12,-670.75"/>
<text text-anchor="middle" x="26.88" y="-683.45" font-family="Times New Roman,serif" font-size="14.00">1</text>
</g>
<!-- 15432960&#45;&gt;15434856 -->
<g id="edge5" class="edge">
<title>15432960:YES&#45;&gt;15434856</title>
<path fill="none" stroke="green" d="M46,-761.25C27.41,-761.25 23.77,-738.38 24.11,-718.51"/>
<polygon fill="green" stroke="green" points="27.61,-718.74 24.64,-708.57 20.62,-718.37 27.61,-718.74"/>
</g>
<!-- 15435656 -->
<g id="node8" class="node">
<title>15435656</title>
<path fill="none" stroke="green" d="M84.38,-665C84.38,-665 169.62,-665 169.62,-665 175.62,-665 181.62,-671 181.62,-677 181.62,-677 181.62,-700.5 181.62,-700.5 181.62,-706.5 175.62,-712.5 169.62,-712.5 169.62,-712.5 84.38,-712.5 84.38,-712.5 78.38,-712.5 72.38,-706.5 72.38,-700.5 72.38,-700.5 72.38,-677 72.38,-677 72.38,-671 78.38,-665 84.38,-665"/>
<text text-anchor="middle" x="127" y="-695.2" font-family="Times New Roman,serif" font-size="14.00">&#45;</text>
<polyline fill="none" stroke="green" points="72.38,-688.75 181.62,-688.75"/>
<text text-anchor="middle" x="97.25" y="-671.45" font-family="Times New Roman,serif" font-size="14.00">LEFT</text>
<polyline fill="none" stroke="green" points="122.12,-665 122.12,-688.75"/>
<text text-anchor="middle" x="151.88" y="-671.45" font-family="Times New Roman,serif" font-size="14.00">RIGHT</text>
</g>
<!-- 15432960&#45;&gt;15435656 -->
<g id="edge6" class="edge">
<title>15432960:NO&#45;&gt;15435656</title>
<path fill="none" stroke="red" d="M127,-749C127,-740.98 127,-732.36 127,-724.23"/>
<polygon fill="red" stroke="red" points="130.5,-724.34 127,-714.34 123.5,-724.34 130.5,-724.34"/>
</g>
<!-- 15434576 -->
<g id="node9" class="node">
<title>15434576</title>
<path fill="none" stroke="green" d="M37,-586.25C37,-586.25 67,-586.25 67,-586.25 73,-586.25 79,-592.25 79,-598.25 79,-598.25 79,-610.25 79,-610.25 79,-616.25 73,-622.25 67,-622.25 67,-622.25 37,-622.25 37,-622.25 31,-622.25 25,-616.25 25,-610.25 25,-610.25 25,-598.25 25,-598.25 25,-592.25 31,-586.25 37,-586.25"/>
<text text-anchor="middle" x="51.62" y="-598.95" font-family="Times New Roman,serif" font-size="14.00">233</text>
</g>
<!-- 15435656&#45;&gt;15434576 -->
<g id="edge7" class="edge">
<title>15435656:YES&#45;&gt;15434576</title>
<path fill="none" stroke="green" d="M71,-676.75C66.33,-676.75 60.83,-653.67 56.96,-633.73"/>
<polygon fill="green" stroke="green" points="60.42,-633.24 55.16,-624.05 53.54,-634.52 60.42,-633.24"/>
</g>
<!-- 15435616 -->
<g id="node10" class="node">
<title>15435616</title>
<path fill="none" stroke="green" d="M109.38,-580.5C109.38,-580.5 194.62,-580.5 194.62,-580.5 200.62,-580.5 206.62,-586.5 206.62,-592.5 206.62,-592.5 206.62,-616 206.62,-616 206.62,-622 200.62,-628 194.62,-628 194.62,-628 109.38,-628 109.38,-628 103.38,-628 97.38,-622 97.38,-616 97.38,-616 97.38,-592.5 97.38,-592.5 97.38,-586.5 103.38,-580.5 109.38,-580.5"/>
<text text-anchor="middle" x="152" y="-610.7" font-family="Times New Roman,serif" font-size="14.00">^</text>
<polyline fill="none" stroke="green" points="97.38,-604.25 206.62,-604.25"/>
<text text-anchor="middle" x="122.25" y="-586.95" font-family="Times New Roman,serif" font-size="14.00">LEFT</text>
<polyline fill="none" stroke="green" points="147.12,-580.5 147.12,-604.25"/>
<text text-anchor="middle" x="176.88" y="-586.95" font-family="Times New Roman,serif" font-size="14.00">RIGHT</text>
</g>
<!-- 15435656&#45;&gt;15435616 -->
<g id="edge8" class="edge">
<title>15435656:NO&#45;&gt;15435616</title>
<path fill="none" stroke="red" d="M152,-664.5C152,-656.48 152,-647.86 152,-639.73"/>
<polygon fill="red" stroke="red" points="155.5,-639.84 152,-629.84 148.5,-639.84 155.5,-639.84"/>
</g>
<!-- 15434616 -->
<g id="node11" class="node">
<title>15434616</title>
<path fill="none" stroke="green" d="M62,-501.75C62,-501.75 92,-501.75 92,-501.75 98,-501.75 104,-507.75 104,-513.75 104,-513.75 104,-525.75 104,-525.75 104,-531.75 98,-537.75 92,-537.75 92,-537.75 62,-537.75 62,-537.75 56,-537.75 50,-531.75 50,-525.75 50,-525.75 50,-513.75 50,-513.75 50,-507.75 56,-501.75 62,-501.75"/>
<text text-anchor="middle" x="76.62" y="-514.45" font-family="Times New Roman,serif" font-size="14.00">213</text>
</g>
<!-- 15435616&#45;&gt;15434616 -->
<g id="edge9" class="edge">
<title>15435616:YES&#45;&gt;15434616</title>
<path fill="none" stroke="green" d="M96,-592.25C91.33,-592.25 85.83,-569.17 81.96,-549.23"/>
<polygon fill="green" stroke="green" points="85.42,-548.74 80.16,-539.55 78.54,-550.02 85.42,-548.74"/>
</g>
<!-- 15435496 -->
<g id="node12" class="node">
<title>15435496</title>
<path fill="none" stroke="green" d="M134.38,-496C134.38,-496 219.62,-496 219.62,-496 225.62,-496 231.62,-502 231.62,-508 231.62,-508 231.62,-531.5 231.62,-531.5 231.62,-537.5 225.62,-543.5 219.62,-543.5 219.62,-543.5 134.38,-543.5 134.38,-543.5 128.38,-543.5 122.38,-537.5 122.38,-531.5 122.38,-531.5 122.38,-508 122.38,-508 122.38,-502 128.38,-496 134.38,-496"/>
<text text-anchor="middle" x="177" y="-526.2" font-family="Times New Roman,serif" font-size="14.00">^</text>
<polyline fill="none" stroke="green" points="122.38,-519.75 231.62,-519.75"/>
<text text-anchor="middle" x="147.25" y="-502.45" font-family="Times New Roman,serif" font-size="14.00">LEFT</text>
<polyline fill="none" stroke="green" points="172.12,-496 172.12,-519.75"/>
<text text-anchor="middle" x="201.88" y="-502.45" font-family="Times New Roman,serif" font-size="14.00">RIGHT</text>
</g>
<!-- 15435616&#45;&gt;15435496 -->
<g id="edge10" class="edge">
<title>15435616:NO&#45;&gt;15435496</title>
<path fill="none" stroke="red" d="M177,-580C177,-571.98 177,-563.36 177,-555.23"/>
<polygon fill="red" stroke="red" points="180.5,-555.34 177,-545.34 173.5,-555.34 180.5,-555.34"/>
</g>
<!-- 15435336 -->
<g id="node13" class="node">
<title>15435336</title>
<path fill="none" stroke="green" d="M124,-417.25C124,-417.25 154,-417.25 154,-417.25 160,-417.25 166,-423.25 166,-429.25 166,-429.25 166,-441.25 166,-441.25 166,-447.25 160,-453.25 154,-453.25 154,-453.25 124,-453.25 124,-453.25 118,-453.25 112,-447.25 112,-441.25 112,-441.25 112,-429.25 112,-429.25 112,-423.25 118,-417.25 124,-417.25"/>
<text text-anchor="middle" x="138.88" y="-429.95" font-family="Times New Roman,serif" font-size="14.00">4</text>
</g>
<!-- 15435496&#45;&gt;15435336 -->
<g id="edge11" class="edge">
<title>15435496:YES&#45;&gt;15435336</title>
<path fill="none" stroke="green" d="M147,-495.5C147,-485.39 145.84,-474.4 144.41,-464.66"/>
<polygon fill="green" stroke="green" points="147.9,-464.33 142.82,-455.03 140.99,-465.47 147.9,-464.33"/>
</g>
<!-- 15434936 -->
<g id="node14" class="node">
<title>15434936</title>
<path fill="none" stroke="green" d="M196,-417.25C196,-417.25 226,-417.25 226,-417.25 232,-417.25 238,-423.25 238,-429.25 238,-429.25 238,-441.25 238,-441.25 238,-447.25 232,-453.25 226,-453.25 226,-453.25 196,-453.25 196,-453.25 190,-453.25 184,-447.25 184,-441.25 184,-441.25 184,-429.25 184,-429.25 184,-423.25 190,-417.25 196,-417.25"/>
<text text-anchor="middle" x="210.88" y="-429.95" font-family="Times New Roman,serif" font-size="14.00">x</text>
</g>
<!-- 15435496&#45;&gt;15434936 -->
<g id="edge12" class="edge">
<title>15435496:NO&#45;&gt;15434936</title>
<path fill="none" stroke="red" d="M202,-495.5C202,-485.37 203.3,-474.37 204.92,-464.63"/>
<polygon fill="red" stroke="red" points="208.32,-465.47 206.7,-455 201.44,-464.2 208.32,-465.47"/>
</g>
<!-- 15434976 -->
<g id="node16" class="node">
<title>15434976</title>
<path fill="none" stroke="green" d="M226,-670.75C226,-670.75 256,-670.75 256,-670.75 262,-670.75 268,-676.75 268,-682.75 268,-682.75 268,-694.75 268,-694.75 268,-700.75 262,-706.75 256,-706.75 256,-706.75 226,-706.75 226,-706.75 220,-706.75 214,-700.75 214,-694.75 214,-694.75 214,-682.75 214,-682.75 214,-676.75 220,-670.75 226,-670.75"/>
<text text-anchor="middle" x="240.88" y="-683.45" font-family="Times New Roman,serif" font-size="14.00">0</text>
</g>
<!-- 15435416&#45;&gt;15434976 -->
<g id="edge14" class="edge">
<title>15435416:YES&#45;&gt;15434976</title>
<path fill="none" stroke="green" d="M241,-749C241,-739.09 241,-728.25 241,-718.58"/>
<polygon fill="green" stroke="green" points="244.5,-718.63 241,-708.63 237.5,-718.63 244.5,-718.63"/>
</g>
<!-- 15435256 -->
<g id="node17" class="node">
<title>15435256</title>
<path fill="none" stroke="green" d="M325.38,-665C325.38,-665 410.62,-665 410.62,-665 416.62,-665 422.62,-671 422.62,-677 422.62,-677 422.62,-700.5 422.62,-700.5 422.62,-706.5 416.62,-712.5 410.62,-712.5 410.62,-712.5 325.38,-712.5 325.38,-712.5 319.38,-712.5 313.38,-706.5 313.38,-700.5 313.38,-700.5 313.38,-677 313.38,-677 313.38,-671 319.38,-665 325.38,-665"/>
<text text-anchor="middle" x="368" y="-695.2" font-family="Times New Roman,serif" font-size="14.00">*</text>
<polyline fill="none" stroke="green" points="313.38,-688.75 422.62,-688.75"/>
<text text-anchor="middle" x="338.25" y="-671.45" font-family="Times New Roman,serif" font-size="14.00">LEFT</text>
<polyline fill="none" stroke="green" points="363.12,-665 363.12,-688.75"/>
<text text-anchor="middle" x="392.88" y="-671.45" font-family="Times New Roman,serif" font-size="14.00">RIGHT</text>
</g>
<!-- 15435416&#45;&gt;15435256 -->
<g id="edge15" class="edge">
<title>15435416:NO&#45;&gt;15435256</title>
<path fill="none" stroke="red" d="M327,-761.25C345.93,-761.25 356.24,-742.16 361.79,-723.7"/>
<polygon fill="red" stroke="red" points="365.13,-724.79 364.22,-714.23 358.35,-723.05 365.13,-724.79"/>
</g>
<!-- 15434776 -->
<g id="node18" class="node">
<title>15434776</title>
<path fill="none" stroke="green" d="M295.38,-580.5C295.38,-580.5 380.62,-580.5 380.62,-580.5 386.62,-580.5 392.62,-586.5 392.62,-592.5 392.62,-592.5 392.62,-616 392.62,-616 392.62,-622 386.62,-628 380.62,-628 380.62,-628 295.38,-628 295.38,-628 289.38,-628 283.38,-622 283.38,-616 283.38,-616 283.38,-592.5 283.38,-592.5 283.38,-586.5 289.38,-580.5 295.38,-580.5"/>
<text text-anchor="middle" x="338" y="-610.7" font-family="Times New Roman,serif" font-size="14.00">^</text>
<polyline fill="none" stroke="green" points="283.38,-604.25 392.62,-604.25"/>
<text text-anchor="middle" x="308.25" y="-586.95" font-family="Times New Roman,serif" font-size="14.00">LEFT</text>
<polyline fill="none" stroke="green" points="333.12,-580.5 333.12,-604.25"/>
<text text-anchor="middle" x="362.88" y="-586.95" font-family="Times New Roman,serif" font-size="14.00">RIGHT</text>
</g>
<!-- 15435256&#45;&gt;15434776 -->
<g id="edge16" class="edge">
<title>15435256:YES&#45;&gt;15434776</title>
<path fill="none" stroke="green" d="M338,-664.5C338,-656.48 338,-647.86 338,-639.73"/>
<polygon fill="green" stroke="green" points="341.5,-639.84 338,-629.84 334.5,-639.84 341.5,-639.84"/>
</g>
<!-- 15436336 -->
<g id="node23" class="node">
<title>15436336</title>
<path fill="none" stroke="green" d="M562.38,-580.5C562.38,-580.5 647.62,-580.5 647.62,-580.5 653.62,-580.5 659.62,-586.5 659.62,-592.5 659.62,-592.5 659.62,-616 659.62,-616 659.62,-622 653.62,-628 647.62,-628 647.62,-628 562.38,-628 562.38,-628 556.38,-628 550.38,-622 550.38,-616 550.38,-616 550.38,-592.5 550.38,-592.5 550.38,-586.5 556.38,-580.5 562.38,-580.5"/>
<text text-anchor="middle" x="605" y="-610.7" font-family="Times New Roman,serif" font-size="14.00">+</text>
<polyline fill="none" stroke="green" points="550.38,-604.25 659.62,-604.25"/>
<text text-anchor="middle" x="575.25" y="-586.95" font-family="Times New Roman,serif" font-size="14.00">LEFT</text>
<polyline fill="none" stroke="green" points="600.12,-580.5 600.12,-604.25"/>
<text text-anchor="middle" x="629.88" y="-586.95" font-family="Times New Roman,serif" font-size="14.00">RIGHT</text>
</g>
<!-- 15435256&#45;&gt;15436336 -->
<g id="edge21" class="edge">
<title>15435256:NO&#45;&gt;15436336</title>
<path fill="none" stroke="red" d="M424,-676.75C472.95,-676.75 524.47,-653.85 559.97,-633.97"/>
<polygon fill="red" stroke="red" points="561.3,-637.24 568.23,-629.22 557.81,-631.17 561.3,-637.24"/>
</g>
<!-- 15435536 -->
<g id="node19" class="node">
<title>15435536</title>
<path fill="none" stroke="green" d="M262,-501.75C262,-501.75 292,-501.75 292,-501.75 298,-501.75 304,-507.75 304,-513.75 304,-513.75 304,-525.75 304,-525.75 304,-531.75 298,-537.75 292,-537.75 292,-537.75 262,-537.75 262,-537.75 256,-537.75 250,-531.75 250,-525.75 250,-525.75 250,-513.75 250,-513.75 250,-507.75 256,-501.75 262,-501.75"/>
<text text-anchor="middle" x="276.62" y="-514.45" font-family="Times New Roman,serif" font-size="14.00">213</text>
</g>
<!-- 15434776&#45;&gt;15435536 -->
<g id="edge17" class="edge">
<title>15434776:YES&#45;&gt;15435536</title>
<path fill="none" stroke="green" d="M308,-580C308,-568.63 303.46,-557.28 297.85,-547.61"/>
<polygon fill="green" stroke="green" points="300.96,-545.97 292.6,-539.47 295.09,-549.77 300.96,-545.97"/>
</g>
<!-- 15434536 -->
<g id="node20" class="node">
<title>15434536</title>
<path fill="none" stroke="green" d="M334.38,-496C334.38,-496 419.62,-496 419.62,-496 425.62,-496 431.62,-502 431.62,-508 431.62,-508 431.62,-531.5 431.62,-531.5 431.62,-537.5 425.62,-543.5 419.62,-543.5 419.62,-543.5 334.38,-543.5 334.38,-543.5 328.38,-543.5 322.38,-537.5 322.38,-531.5 322.38,-531.5 322.38,-508 322.38,-508 322.38,-502 328.38,-496 334.38,-496"/>
<text text-anchor="middle" x="377" y="-526.2" font-family="Times New Roman,serif" font-size="14.00">^</text>
<polyline fill="none" stroke="green" points="322.38,-519.75 431.62,-519.75"/>
<text text-anchor="middle" x="347.25" y="-502.45" font-family="Times New Roman,serif" font-size="14.00">LEFT</text>
<polyline fill="none" stroke="green" points="372.12,-496 372.12,-519.75"/>
<text text-anchor="middle" x="401.88" y="-502.45" font-family="Times New Roman,serif" font-size="14.00">RIGHT</text>
</g>
<!-- 15434776&#45;&gt;15434536 -->
<g id="edge18" class="edge">
<title>15434776:NO&#45;&gt;15434536</title>
<path fill="none" stroke="red" d="M363,-580C363,-571.74 364.31,-563 366.12,-554.84"/>
<polygon fill="red" stroke="red" points="369.48,-555.83 368.56,-545.28 362.7,-554.1 369.48,-555.83"/>
</g>
<!-- 15435136 -->
<g id="node21" class="node">
<title>15435136</title>
<path fill="none" stroke="green" d="M315,-417.25C315,-417.25 345,-417.25 345,-417.25 351,-417.25 357,-423.25 357,-429.25 357,-429.25 357,-441.25 357,-441.25 357,-447.25 351,-453.25 345,-453.25 345,-453.25 315,-453.25 315,-453.25 309,-453.25 303,-447.25 303,-441.25 303,-441.25 303,-429.25 303,-429.25 303,-423.25 309,-417.25 315,-417.25"/>
<text text-anchor="middle" x="329.88" y="-429.95" font-family="Times New Roman,serif" font-size="14.00">4</text>
</g>
<!-- 15434536&#45;&gt;15435136 -->
<g id="edge19" class="edge">
<title>15434536:YES&#45;&gt;15435136</title>
<path fill="none" stroke="green" d="M347,-495.5C347,-485.04 344.52,-473.93 341.46,-464.19"/>
<polygon fill="green" stroke="green" points="344.82,-463.21 338.21,-454.94 338.22,-465.53 344.82,-463.21"/>
</g>
<!-- 15435576 -->
<g id="node22" class="node">
<title>15435576</title>
<path fill="none" stroke="green" d="M387,-417.25C387,-417.25 417,-417.25 417,-417.25 423,-417.25 429,-423.25 429,-429.25 429,-429.25 429,-441.25 429,-441.25 429,-447.25 423,-453.25 417,-453.25 417,-453.25 387,-453.25 387,-453.25 381,-453.25 375,-447.25 375,-441.25 375,-441.25 375,-429.25 375,-429.25 375,-423.25 381,-417.25 387,-417.25"/>
<text text-anchor="middle" x="401.88" y="-429.95" font-family="Times New Roman,serif" font-size="14.00">x</text>
</g>
<!-- 15434536&#45;&gt;15435576 -->
<g id="edge20" class="edge">
<title>15434536:NO&#45;&gt;15435576</title>
<path fill="none" stroke="red" d="M402,-495.5C402,-485.59 402,-474.75 402,-465.08"/>
<polygon fill="red" stroke="red" points="405.5,-465.13 402,-455.13 398.5,-465.13 405.5,-465.13"/>
</g>
<!-- 15436016 -->
<g id="node24" class="node">
<title>15436016</title>
<path fill="none" stroke="green" d="M532.38,-496C532.38,-496 617.62,-496 617.62,-496 623.62,-496 629.62,-502 629.62,-508 629.62,-508 629.62,-531.5 629.62,-531.5 629.62,-537.5 623.62,-543.5 617.62,-543.5 617.62,-543.5 532.38,-543.5 532.38,-543.5 526.38,-543.5 520.38,-537.5 520.38,-531.5 520.38,-531.5 520.38,-508 520.38,-508 520.38,-502 526.38,-496 532.38,-496"/>
<text text-anchor="middle" x="575" y="-526.2" font-family="Times New Roman,serif" font-size="14.00">*</text>
<polyline fill="none" stroke="green" points="520.38,-519.75 629.62,-519.75"/>
<text text-anchor="middle" x="545.25" y="-502.45" font-family="Times New Roman,serif" font-size="14.00">LEFT</text>
<polyline fill="none" stroke="green" points="570.12,-496 570.12,-519.75"/>
<text text-anchor="middle" x="599.88" y="-502.45" font-family="Times New Roman,serif" font-size="14.00">RIGHT</text>
</g>
<!-- 15436336&#45;&gt;15436016 -->
<g id="edge22" class="edge">
<title>15436336:YES&#45;&gt;15436016</title>
<path fill="none" stroke="green" d="M575,-580C575,-571.98 575,-563.36 575,-555.23"/>
<polygon fill="green" stroke="green" points="578.5,-555.34 575,-545.34 571.5,-555.34 578.5,-555.34"/>
</g>
<!-- 15436056 -->
<g id="node45" class="node">
<title>15436056</title>
<path fill="none" stroke="green" d="M782.38,-496C782.38,-496 867.62,-496 867.62,-496 873.62,-496 879.62,-502 879.62,-508 879.62,-508 879.62,-531.5 879.62,-531.5 879.62,-537.5 873.62,-543.5 867.62,-543.5 867.62,-543.5 782.38,-543.5 782.38,-543.5 776.38,-543.5 770.38,-537.5 770.38,-531.5 770.38,-531.5 770.38,-508 770.38,-508 770.38,-502 776.38,-496 782.38,-496"/>
<text text-anchor="middle" x="825" y="-526.2" font-family="Times New Roman,serif" font-size="14.00">*</text>
<polyline fill="none" stroke="green" points="770.38,-519.75 879.62,-519.75"/>
<text text-anchor="middle" x="795.25" y="-502.45" font-family="Times New Roman,serif" font-size="14.00">LEFT</text>
<polyline fill="none" stroke="green" points="820.12,-496 820.12,-519.75"/>
<text text-anchor="middle" x="849.88" y="-502.45" font-family="Times New Roman,serif" font-size="14.00">RIGHT</text>
</g>
<!-- 15436336&#45;&gt;15436056 -->
<g id="edge43" class="edge">
<title>15436336:NO&#45;&gt;15436056</title>
<path fill="none" stroke="red" d="M661,-592.25C705.62,-592.25 751.8,-569.74 783.74,-549.98"/>
<polygon fill="red" stroke="red" points="785.35,-553.1 791.9,-544.78 781.59,-547.2 785.35,-553.1"/>
</g>
<!-- 15436296 -->
<g id="node25" class="node">
<title>15436296</title>
<path fill="none" stroke="green" d="M459.38,-411.5C459.38,-411.5 544.62,-411.5 544.62,-411.5 550.62,-411.5 556.62,-417.5 556.62,-423.5 556.62,-423.5 556.62,-447 556.62,-447 556.62,-453 550.62,-459 544.62,-459 544.62,-459 459.38,-459 459.38,-459 453.38,-459 447.38,-453 447.38,-447 447.38,-447 447.38,-423.5 447.38,-423.5 447.38,-417.5 453.38,-411.5 459.38,-411.5"/>
<text text-anchor="middle" x="502" y="-441.7" font-family="Times New Roman,serif" font-size="14.00">*</text>
<polyline fill="none" stroke="green" points="447.38,-435.25 556.62,-435.25"/>
<text text-anchor="middle" x="472.25" y="-417.95" font-family="Times New Roman,serif" font-size="14.00">LEFT</text>
<polyline fill="none" stroke="green" points="497.12,-411.5 497.12,-435.25"/>
<text text-anchor="middle" x="526.88" y="-417.95" font-family="Times New Roman,serif" font-size="14.00">RIGHT</text>
</g>
<!-- 15436016&#45;&gt;15436296 -->
<g id="edge23" class="edge">
<title>15436016:YES&#45;&gt;15436296</title>
<path fill="none" stroke="green" d="M545,-495.5C545,-485.73 541.12,-476.48 535.69,-468.32"/>
<polygon fill="green" stroke="green" points="538.53,-466.28 529.67,-460.48 532.98,-470.54 538.53,-466.28"/>
</g>
<!-- 15435976 -->
<g id="node42" class="node">
<title>15435976</title>
<path fill="none" stroke="green" d="M600.38,-411.5C600.38,-411.5 685.62,-411.5 685.62,-411.5 691.62,-411.5 697.62,-417.5 697.62,-423.5 697.62,-423.5 697.62,-447 697.62,-447 697.62,-453 691.62,-459 685.62,-459 685.62,-459 600.38,-459 600.38,-459 594.38,-459 588.38,-453 588.38,-447 588.38,-447 588.38,-423.5 588.38,-423.5 588.38,-417.5 594.38,-411.5 600.38,-411.5"/>
<text text-anchor="middle" x="643" y="-441.7" font-family="Times New Roman,serif" font-size="14.00">ln</text>
<polyline fill="none" stroke="green" points="588.38,-435.25 697.62,-435.25"/>
<text text-anchor="middle" x="613.25" y="-417.95" font-family="Times New Roman,serif" font-size="14.00">LEFT</text>
<polyline fill="none" stroke="green" points="638.12,-411.5 638.12,-435.25"/>
<text text-anchor="middle" x="667.88" y="-417.95" font-family="Times New Roman,serif" font-size="14.00">RIGHT</text>
</g>
<!-- 15436016&#45;&gt;15435976 -->
<g id="edge40" class="edge">
<title>15436016:NO&#45;&gt;15435976</title>
<path fill="none" stroke="red" d="M631,-507.75C647.57,-507.75 650.27,-488.83 648.99,-470.46"/>
<polygon fill="red" stroke="red" points="652.49,-470.33 647.92,-460.77 645.53,-471.09 652.49,-470.33"/>
</g>
<!-- 15436416 -->
<g id="node26" class="node">
<title>15436416</title>
<path fill="none" stroke="green" d="M315.38,-327C315.38,-327 400.62,-327 400.62,-327 406.62,-327 412.62,-333 412.62,-339 412.62,-339 412.62,-362.5 412.62,-362.5 412.62,-368.5 406.62,-374.5 400.62,-374.5 400.62,-374.5 315.38,-374.5 315.38,-374.5 309.38,-374.5 303.38,-368.5 303.38,-362.5 303.38,-362.5 303.38,-339 303.38,-339 303.38,-333 309.38,-327 315.38,-327"/>
<text text-anchor="middle" x="358" y="-357.2" font-family="Times New Roman,serif" font-size="14.00">^</text>
<polyline fill="none" stroke="green" points="303.38,-350.75 412.62,-350.75"/>
<text text-anchor="middle" x="328.25" y="-333.45" font-family="Times New Roman,serif" font-size="14.00">LEFT</text>
<polyline fill="none" stroke="green" points="353.12,-327 353.12,-350.75"/>
<text text-anchor="middle" x="382.88" y="-333.45" font-family="Times New Roman,serif" font-size="14.00">RIGHT</text>
</g>
<!-- 15436296&#45;&gt;15436416 -->
<g id="edge24" class="edge">
<title>15436296:YES&#45;&gt;15436416</title>
<path fill="none" stroke="green" d="M446,-423.25C439.5,-423.25 442.46,-415.73 438,-411 427.99,-400.38 415.88,-390.32 404.15,-381.61"/>
<polygon fill="green" stroke="green" points="406.25,-378.81 396.09,-375.81 402.16,-384.49 406.25,-378.81"/>
</g>
<!-- 15437552 -->
<g id="node29" class="node">
<title>15437552</title>
<path fill="none" stroke="green" d="M470.38,-327C470.38,-327 555.62,-327 555.62,-327 561.62,-327 567.62,-333 567.62,-339 567.62,-339 567.62,-362.5 567.62,-362.5 567.62,-368.5 561.62,-374.5 555.62,-374.5 555.62,-374.5 470.38,-374.5 470.38,-374.5 464.38,-374.5 458.38,-368.5 458.38,-362.5 458.38,-362.5 458.38,-339 458.38,-339 458.38,-333 464.38,-327 470.38,-327"/>
<text text-anchor="middle" x="513" y="-357.2" font-family="Times New Roman,serif" font-size="14.00">+</text>
<polyline fill="none" stroke="green" points="458.38,-350.75 567.62,-350.75"/>
<text text-anchor="middle" x="483.25" y="-333.45" font-family="Times New Roman,serif" font-size="14.00">LEFT</text>
<polyline fill="none" stroke="green" points="508.12,-327 508.12,-350.75"/>
<text text-anchor="middle" x="537.88" y="-333.45" font-family="Times New Roman,serif" font-size="14.00">RIGHT</text>
</g>
<!-- 15436296&#45;&gt;15437552 -->
<g id="edge27" class="edge">
<title>15436296:NO&#45;&gt;15437552</title>
<path fill="none" stroke="red" d="M527,-411C527,-402.74 525.69,-394 523.88,-385.84"/>
<polygon fill="red" stroke="red" points="527.3,-385.1 521.44,-376.28 520.52,-386.83 527.3,-385.1"/>
</g>
<!-- 15436136 -->
<g id="node27" class="node">
<title>15436136</title>
<path fill="none" stroke="green" d="M296,-248.25C296,-248.25 326,-248.25 326,-248.25 332,-248.25 338,-254.25 338,-260.25 338,-260.25 338,-272.25 338,-272.25 338,-278.25 332,-284.25 326,-284.25 326,-284.25 296,-284.25 296,-284.25 290,-284.25 284,-278.25 284,-272.25 284,-272.25 284,-260.25 284,-260.25 284,-254.25 290,-248.25 296,-248.25"/>
<text text-anchor="middle" x="310.88" y="-260.95" font-family="Times New Roman,serif" font-size="14.00">4</text>
</g>
<!-- 15436416&#45;&gt;15436136 -->
<g id="edge25" class="edge">
<title>15436416:YES&#45;&gt;15436136</title>
<path fill="none" stroke="green" d="M328,-326.5C328,-316.04 325.52,-304.93 322.46,-295.19"/>
<polygon fill="green" stroke="green" points="325.82,-294.21 319.21,-285.94 319.22,-296.53 325.82,-294.21"/>
</g>
<!-- 15435896 -->
<g id="node28" class="node">
<title>15435896</title>
<path fill="none" stroke="green" d="M368,-248.25C368,-248.25 398,-248.25 398,-248.25 404,-248.25 410,-254.25 410,-260.25 410,-260.25 410,-272.25 410,-272.25 410,-278.25 404,-284.25 398,-284.25 398,-284.25 368,-284.25 368,-284.25 362,-284.25 356,-278.25 356,-272.25 356,-272.25 356,-260.25 356,-260.25 356,-254.25 362,-248.25 368,-248.25"/>
<text text-anchor="middle" x="382.88" y="-260.95" font-family="Times New Roman,serif" font-size="14.00">x</text>
</g>
<!-- 15436416&#45;&gt;15435896 -->
<g id="edge26" class="edge">
<title>15436416:NO&#45;&gt;15435896</title>
<path fill="none" stroke="red" d="M383,-326.5C383,-316.59 383,-305.75 383,-296.08"/>
<polygon fill="red" stroke="red" points="386.5,-296.13 383,-286.13 379.5,-296.13 386.5,-296.13"/>
</g>
<!-- 15436792 -->
<g id="node30" class="node">
<title>15436792</title>
<path fill="none" stroke="green" d="M440.38,-242.5C440.38,-242.5 525.62,-242.5 525.62,-242.5 531.62,-242.5 537.62,-248.5 537.62,-254.5 537.62,-254.5 537.62,-278 537.62,-278 537.62,-284 531.62,-290 525.62,-290 525.62,-290 440.38,-290 440.38,-290 434.38,-290 428.38,-284 428.38,-278 428.38,-278 428.38,-254.5 428.38,-254.5 428.38,-248.5 434.38,-242.5 440.38,-242.5"/>
<text text-anchor="middle" x="483" y="-272.7" font-family="Times New Roman,serif" font-size="14.00">*</text>
<polyline fill="none" stroke="green" points="428.38,-266.25 537.62,-266.25"/>
<text text-anchor="middle" x="453.25" y="-248.95" font-family="Times New Roman,serif" font-size="14.00">LEFT</text>
<polyline fill="none" stroke="green" points="478.12,-242.5 478.12,-266.25"/>
<text text-anchor="middle" x="507.88" y="-248.95" font-family="Times New Roman,serif" font-size="14.00">RIGHT</text>
</g>
<!-- 15437552&#45;&gt;15436792 -->
<g id="edge28" class="edge">
<title>15437552:YES&#45;&gt;15436792</title>
<path fill="none" stroke="green" d="M483,-326.5C483,-318.48 483,-309.86 483,-301.73"/>
<polygon fill="green" stroke="green" points="486.5,-301.84 483,-291.84 479.5,-301.84 486.5,-301.84"/>
</g>
<!-- 15437152 -->
<g id="node35" class="node">
<title>15437152</title>
<path fill="none" stroke="green" d="M595.38,-242.5C595.38,-242.5 680.62,-242.5 680.62,-242.5 686.62,-242.5 692.62,-248.5 692.62,-254.5 692.62,-254.5 692.62,-278 692.62,-278 692.62,-284 686.62,-290 680.62,-290 680.62,-290 595.38,-290 595.38,-290 589.38,-290 583.38,-284 583.38,-278 583.38,-278 583.38,-254.5 583.38,-254.5 583.38,-248.5 589.38,-242.5 595.38,-242.5"/>
<text text-anchor="middle" x="638" y="-272.7" font-family="Times New Roman,serif" font-size="14.00">*</text>
<polyline fill="none" stroke="green" points="583.38,-266.25 692.62,-266.25"/>
<text text-anchor="middle" x="608.25" y="-248.95" font-family="Times New Roman,serif" font-size="14.00">LEFT</text>
<polyline fill="none" stroke="green" points="633.12,-242.5 633.12,-266.25"/>
<text text-anchor="middle" x="662.88" y="-248.95" font-family="Times New Roman,serif" font-size="14.00">RIGHT</text>
</g>
<!-- 15437552&#45;&gt;15437152 -->
<g id="edge33" class="edge">
<title>15437552:NO&#45;&gt;15437152</title>
<path fill="none" stroke="red" d="M569,-338.75C575.5,-338.75 572.86,-331.52 577,-326.5 585.05,-316.73 594.55,-306.86 603.63,-298.05"/>
<polygon fill="red" stroke="red" points="605.86,-300.76 610.7,-291.33 601.04,-295.68 605.86,-300.76"/>
</g>
<!-- 15436592 -->
<g id="node31" class="node">
<title>15436592</title>
<path fill="none" stroke="green" d="M393,-163.75C393,-163.75 423,-163.75 423,-163.75 429,-163.75 435,-169.75 435,-175.75 435,-175.75 435,-187.75 435,-187.75 435,-193.75 429,-199.75 423,-199.75 423,-199.75 393,-199.75 393,-199.75 387,-199.75 381,-193.75 381,-187.75 381,-187.75 381,-175.75 381,-175.75 381,-169.75 387,-163.75 393,-163.75"/>
<text text-anchor="middle" x="407.88" y="-176.45" font-family="Times New Roman,serif" font-size="14.00">1</text>
</g>
<!-- 15436792&#45;&gt;15436592 -->
<g id="edge29" class="edge">
<title>15436792:YES&#45;&gt;15436592</title>
<path fill="none" stroke="green" d="M427,-254.25C422.33,-254.25 416.83,-231.17 412.96,-211.23"/>
<polygon fill="green" stroke="green" points="416.42,-210.74 411.16,-201.55 409.54,-212.02 416.42,-210.74"/>
</g>
<!-- 15436632 -->
<g id="node32" class="node">
<title>15436632</title>
<path fill="none" stroke="green" d="M465.38,-158C465.38,-158 550.62,-158 550.62,-158 556.62,-158 562.62,-164 562.62,-170 562.62,-170 562.62,-193.5 562.62,-193.5 562.62,-199.5 556.62,-205.5 550.62,-205.5 550.62,-205.5 465.38,-205.5 465.38,-205.5 459.38,-205.5 453.38,-199.5 453.38,-193.5 453.38,-193.5 453.38,-170 453.38,-170 453.38,-164 459.38,-158 465.38,-158"/>
<text text-anchor="middle" x="508" y="-188.2" font-family="Times New Roman,serif" font-size="14.00">ln</text>
<polyline fill="none" stroke="green" points="453.38,-181.75 562.62,-181.75"/>
<text text-anchor="middle" x="478.25" y="-164.45" font-family="Times New Roman,serif" font-size="14.00">LEFT</text>
<polyline fill="none" stroke="green" points="503.12,-158 503.12,-181.75"/>
<text text-anchor="middle" x="532.88" y="-164.45" font-family="Times New Roman,serif" font-size="14.00">RIGHT</text>
</g>
<!-- 15436792&#45;&gt;15436632 -->
<g id="edge30" class="edge">
<title>15436792:NO&#45;&gt;15436632</title>
<path fill="none" stroke="red" d="M508,-242C508,-233.98 508,-225.36 508,-217.23"/>
<polygon fill="red" stroke="red" points="511.5,-217.34 508,-207.34 504.5,-217.34 511.5,-217.34"/>
</g>
<!-- 15436872 -->
<g id="node33" class="node">
<title>15436872</title>
<path fill="none" stroke="green" d="M455,-79.25C455,-79.25 485,-79.25 485,-79.25 491,-79.25 497,-85.25 497,-91.25 497,-91.25 497,-103.25 497,-103.25 497,-109.25 491,-115.25 485,-115.25 485,-115.25 455,-115.25 455,-115.25 449,-115.25 443,-109.25 443,-103.25 443,-103.25 443,-91.25 443,-91.25 443,-85.25 449,-79.25 455,-79.25"/>
<text text-anchor="middle" x="469.62" y="-91.95" font-family="Times New Roman,serif" font-size="14.00">&#45;1</text>
</g>
<!-- 15436632&#45;&gt;15436872 -->
<g id="edge31" class="edge">
<title>15436632:YES&#45;&gt;15436872</title>
<path fill="none" stroke="green" d="M478,-157.5C478,-147.39 476.84,-136.4 475.41,-126.66"/>
<polygon fill="green" stroke="green" points="478.9,-126.33 473.82,-117.03 471.99,-127.47 478.9,-126.33"/>
</g>
<!-- 15436672 -->
<g id="node34" class="node">
<title>15436672</title>
<path fill="none" stroke="green" d="M527,-79.25C527,-79.25 557,-79.25 557,-79.25 563,-79.25 569,-85.25 569,-91.25 569,-91.25 569,-103.25 569,-103.25 569,-109.25 563,-115.25 557,-115.25 557,-115.25 527,-115.25 527,-115.25 521,-115.25 515,-109.25 515,-103.25 515,-103.25 515,-91.25 515,-91.25 515,-85.25 521,-79.25 527,-79.25"/>
<text text-anchor="middle" x="541.88" y="-91.95" font-family="Times New Roman,serif" font-size="14.00">4</text>
</g>
<!-- 15436632&#45;&gt;15436672 -->
<g id="edge32" class="edge">
<title>15436632:NO&#45;&gt;15436672</title>
<path fill="none" stroke="red" d="M533,-157.5C533,-147.37 534.3,-136.37 535.92,-126.63"/>
<polygon fill="red" stroke="red" points="539.32,-127.47 537.7,-117 532.44,-126.2 539.32,-127.47"/>
</g>
<!-- 15437032 -->
<g id="node36" class="node">
<title>15437032</title>
<path fill="none" stroke="green" d="M593,-163.75C593,-163.75 623,-163.75 623,-163.75 629,-163.75 635,-169.75 635,-175.75 635,-175.75 635,-187.75 635,-187.75 635,-193.75 629,-199.75 623,-199.75 623,-199.75 593,-199.75 593,-199.75 587,-199.75 581,-193.75 581,-187.75 581,-187.75 581,-175.75 581,-175.75 581,-169.75 587,-163.75 593,-163.75"/>
<text text-anchor="middle" x="607.88" y="-176.45" font-family="Times New Roman,serif" font-size="14.00">x</text>
</g>
<!-- 15437152&#45;&gt;15437032 -->
<g id="edge34" class="edge">
<title>15437152:YES&#45;&gt;15437032</title>
<path fill="none" stroke="green" d="M608,-242C608,-232.09 608,-221.25 608,-211.58"/>
<polygon fill="green" stroke="green" points="611.5,-211.63 608,-201.63 604.5,-211.63 611.5,-211.63"/>
</g>
<!-- 15437232 -->
<g id="node37" class="node">
<title>15437232</title>
<path fill="none" stroke="green" d="M665.38,-158C665.38,-158 750.62,-158 750.62,-158 756.62,-158 762.62,-164 762.62,-170 762.62,-170 762.62,-193.5 762.62,-193.5 762.62,-199.5 756.62,-205.5 750.62,-205.5 750.62,-205.5 665.38,-205.5 665.38,-205.5 659.38,-205.5 653.38,-199.5 653.38,-193.5 653.38,-193.5 653.38,-170 653.38,-170 653.38,-164 659.38,-158 665.38,-158"/>
<text text-anchor="middle" x="708" y="-188.2" font-family="Times New Roman,serif" font-size="14.00">*</text>
<polyline fill="none" stroke="green" points="653.38,-181.75 762.62,-181.75"/>
<text text-anchor="middle" x="678.25" y="-164.45" font-family="Times New Roman,serif" font-size="14.00">LEFT</text>
<polyline fill="none" stroke="green" points="703.12,-158 703.12,-181.75"/>
<text text-anchor="middle" x="732.88" y="-164.45" font-family="Times New Roman,serif" font-size="14.00">RIGHT</text>
</g>
<!-- 15437152&#45;&gt;15437232 -->
<g id="edge35" class="edge">
<title>15437152:NO&#45;&gt;15437232</title>
<path fill="none" stroke="red" d="M694,-254.25C710.58,-254.25 713.85,-235.51 713.1,-217.22"/>
<polygon fill="red" stroke="red" points="716.59,-216.95 712.28,-207.28 709.61,-217.53 716.59,-216.95"/>
</g>
<!-- 15437472 -->
<g id="node38" class="node">
<title>15437472</title>
<path fill="none" stroke="green" d="M613.38,-73.5C613.38,-73.5 698.62,-73.5 698.62,-73.5 704.62,-73.5 710.62,-79.5 710.62,-85.5 710.62,-85.5 710.62,-109 710.62,-109 710.62,-115 704.62,-121 698.62,-121 698.62,-121 613.38,-121 613.38,-121 607.38,-121 601.38,-115 601.38,-109 601.38,-109 601.38,-85.5 601.38,-85.5 601.38,-79.5 607.38,-73.5 613.38,-73.5"/>
<text text-anchor="middle" x="656" y="-103.7" font-family="Times New Roman,serif" font-size="14.00">/</text>
<polyline fill="none" stroke="green" points="601.38,-97.25 710.62,-97.25"/>
<text text-anchor="middle" x="626.25" y="-79.95" font-family="Times New Roman,serif" font-size="14.00">LEFT</text>
<polyline fill="none" stroke="green" points="651.12,-73.5 651.12,-97.25"/>
<text text-anchor="middle" x="680.88" y="-79.95" font-family="Times New Roman,serif" font-size="14.00">RIGHT</text>
</g>
<!-- 15437232&#45;&gt;15437472 -->
<g id="edge36" class="edge">
<title>15437232:YES&#45;&gt;15437472</title>
<path fill="none" stroke="green" d="M678,-157.5C678,-148.98 675.97,-140.17 673.15,-132.04"/>
<polygon fill="green" stroke="green" points="676.45,-130.85 669.49,-122.86 669.94,-133.44 676.45,-130.85"/>
</g>
<!-- 15437752 -->
<g id="node41" class="node">
<title>15437752</title>
<path fill="none" stroke="green" d="M741,-79.25C741,-79.25 771,-79.25 771,-79.25 777,-79.25 783,-85.25 783,-91.25 783,-91.25 783,-103.25 783,-103.25 783,-109.25 777,-115.25 771,-115.25 771,-115.25 741,-115.25 741,-115.25 735,-115.25 729,-109.25 729,-103.25 729,-103.25 729,-91.25 729,-91.25 729,-85.25 735,-79.25 741,-79.25"/>
<text text-anchor="middle" x="755.88" y="-91.95" font-family="Times New Roman,serif" font-size="14.00">0</text>
</g>
<!-- 15437232&#45;&gt;15437752 -->
<g id="edge39" class="edge">
<title>15437232:NO&#45;&gt;15437752</title>
<path fill="none" stroke="red" d="M733,-157.5C733,-146.76 736.33,-135.62 740.45,-125.93"/>
<polygon fill="red" stroke="red" points="743.52,-127.62 744.66,-117.09 737.2,-124.61 743.52,-127.62"/>
</g>
<!-- 15436752 -->
<g id="node39" class="node">
<title>15436752</title>
<path fill="none" stroke="green" d="M602,-0.5C602,-0.5 632,-0.5 632,-0.5 638,-0.5 644,-6.5 644,-12.5 644,-12.5 644,-24.5 644,-24.5 644,-30.5 638,-36.5 632,-36.5 632,-36.5 602,-36.5 602,-36.5 596,-36.5 590,-30.5 590,-24.5 590,-24.5 590,-12.5 590,-12.5 590,-6.5 596,-0.5 602,-0.5"/>
<text text-anchor="middle" x="616.88" y="-13.2" font-family="Times New Roman,serif" font-size="14.00">1</text>
</g>
<!-- 15437472&#45;&gt;15436752 -->
<g id="edge37" class="edge">
<title>15437472:YES&#45;&gt;15436752</title>
<path fill="none" stroke="green" d="M626,-73C626,-64.77 624.95,-55.93 623.57,-47.85"/>
<polygon fill="green" stroke="green" points="627.04,-47.35 621.69,-38.21 620.17,-48.7 627.04,-47.35"/>
</g>
<!-- 15437272 -->
<g id="node40" class="node">
<title>15437272</title>
<path fill="none" stroke="green" d="M674,-0.5C674,-0.5 704,-0.5 704,-0.5 710,-0.5 716,-6.5 716,-12.5 716,-12.5 716,-24.5 716,-24.5 716,-30.5 710,-36.5 704,-36.5 704,-36.5 674,-36.5 674,-36.5 668,-36.5 662,-30.5 662,-24.5 662,-24.5 662,-12.5 662,-12.5 662,-6.5 668,-0.5 674,-0.5"/>
<text text-anchor="middle" x="688.88" y="-13.2" font-family="Times New Roman,serif" font-size="14.00">4</text>
</g>
<!-- 15437472&#45;&gt;15437272 -->
<g id="edge38" class="edge">
<title>15437472:NO&#45;&gt;15437272</title>
<path fill="none" stroke="red" d="M681,-73C681,-64.8 681.93,-55.96 683.16,-47.89"/>
<polygon fill="red" stroke="red" points="686.57,-48.69 684.83,-38.24 679.67,-47.49 686.57,-48.69"/>
</g>
<!-- 15436256 -->
<g id="node43" class="node">
<title>15436256</title>
<path fill="none" stroke="green" d="M598,-332.75C598,-332.75 628,-332.75 628,-332.75 634,-332.75 640,-338.75 640,-344.75 640,-344.75 640,-356.75 640,-356.75 640,-362.75 634,-368.75 628,-368.75 628,-368.75 598,-368.75 598,-368.75 592,-368.75 586,-362.75 586,-356.75 586,-356.75 586,-344.75 586,-344.75 586,-338.75 592,-332.75 598,-332.75"/>
<text text-anchor="middle" x="612.62" y="-345.45" font-family="Times New Roman,serif" font-size="14.00">&#45;1</text>
</g>
<!-- 15435976&#45;&gt;15436256 -->
<g id="edge41" class="edge">
<title>15435976:YES&#45;&gt;15436256</title>
<path fill="none" stroke="green" d="M613,-411C613,-401.09 613,-390.25 613,-380.58"/>
<polygon fill="green" stroke="green" points="616.5,-380.63 613,-370.63 609.5,-380.63 616.5,-380.63"/>
</g>
<!-- 15435856 -->
<g id="node44" class="node">
<title>15435856</title>
<path fill="none" stroke="green" d="M670,-332.75C670,-332.75 700,-332.75 700,-332.75 706,-332.75 712,-338.75 712,-344.75 712,-344.75 712,-356.75 712,-356.75 712,-362.75 706,-368.75 700,-368.75 700,-368.75 670,-368.75 670,-368.75 664,-368.75 658,-362.75 658,-356.75 658,-356.75 658,-344.75 658,-344.75 658,-338.75 664,-332.75 670,-332.75"/>
<text text-anchor="middle" x="684.62" y="-345.45" font-family="Times New Roman,serif" font-size="14.00">213</text>
</g>
<!-- 15435976&#45;&gt;15435856 -->
<g id="edge42" class="edge">
<title>15435976:NO&#45;&gt;15435856</title>
<path fill="none" stroke="red" d="M668,-411C668,-400.54 670.48,-389.43 673.54,-379.69"/>
<polygon fill="red" stroke="red" points="676.78,-381.03 676.79,-370.44 670.18,-378.71 676.78,-381.03"/>
</g>
<!-- 15437832 -->
<g id="node46" class="node">
<title>15437832</title>
<path fill="none" stroke="green" d="M752.38,-411.5C752.38,-411.5 837.62,-411.5 837.62,-411.5 843.62,-411.5 849.62,-417.5 849.62,-423.5 849.62,-423.5 849.62,-447 849.62,-447 849.62,-453 843.62,-459 837.62,-459 837.62,-459 752.38,-459 752.38,-459 746.38,-459 740.38,-453 740.38,-447 740.38,-447 740.38,-423.5 740.38,-423.5 740.38,-417.5 746.38,-411.5 752.38,-411.5"/>
<text text-anchor="middle" x="795" y="-441.7" font-family="Times New Roman,serif" font-size="14.00">^</text>
<polyline fill="none" stroke="green" points="740.38,-435.25 849.62,-435.25"/>
<text text-anchor="middle" x="765.25" y="-417.95" font-family="Times New Roman,serif" font-size="14.00">LEFT</text>
<polyline fill="none" stroke="green" points="790.12,-411.5 790.12,-435.25"/>
<text text-anchor="middle" x="819.88" y="-417.95" font-family="Times New Roman,serif" font-size="14.00">RIGHT</text>
</g>
<!-- 15436056&#45;&gt;15437832 -->
<g id="edge44" class="edge">
<title>15436056:YES&#45;&gt;15437832</title>
<path fill="none" stroke="green" d="M795,-495.5C795,-487.48 795,-478.86 795,-470.73"/>
<polygon fill="green" stroke="green" points="798.5,-470.84 795,-460.84 791.5,-470.84 798.5,-470.84"/>
</g>
<!-- 15437072 -->
<g id="node49" class="node">
<title>15437072</title>
<path fill="none" stroke="green" d="M916.38,-411.5C916.38,-411.5 1001.62,-411.5 1001.62,-411.5 1007.62,-411.5 1013.62,-417.5 1013.62,-423.5 1013.62,-423.5 1013.62,-447 1013.62,-447 1013.62,-453 1007.62,-459 1001.62,-459 1001.62,-459 916.38,-459 916.38,-459 910.38,-459 904.38,-453 904.38,-447 904.38,-447 904.38,-423.5 904.38,-423.5 904.38,-417.5 910.38,-411.5 916.38,-411.5"/>
<text text-anchor="middle" x="959" y="-441.7" font-family="Times New Roman,serif" font-size="14.00">*</text>
<polyline fill="none" stroke="green" points="904.38,-435.25 1013.62,-435.25"/>
<text text-anchor="middle" x="929.25" y="-417.95" font-family="Times New Roman,serif" font-size="14.00">LEFT</text>
<polyline fill="none" stroke="green" points="954.12,-411.5 954.12,-435.25"/>
<text text-anchor="middle" x="983.88" y="-417.95" font-family="Times New Roman,serif" font-size="14.00">RIGHT</text>
</g>
<!-- 15436056&#45;&gt;15437072 -->
<g id="edge47" class="edge">
<title>15436056:NO&#45;&gt;15437072</title>
<path fill="none" stroke="red" d="M881,-507.75C905.99,-507.75 926.44,-487.57 940.13,-468.64"/>
<polygon fill="red" stroke="red" points="942.92,-470.76 945.62,-460.52 937.12,-466.84 942.92,-470.76"/>
</g>
<!-- 15436832 -->
<g id="node47" class="node">
<title>15436832</title>
<path fill="none" stroke="green" d="M742,-332.75C742,-332.75 772,-332.75 772,-332.75 778,-332.75 784,-338.75 784,-344.75 784,-344.75 784,-356.75 784,-356.75 784,-362.75 778,-368.75 772,-368.75 772,-368.75 742,-368.75 742,-368.75 736,-368.75 730,-362.75 730,-356.75 730,-356.75 730,-344.75 730,-344.75 730,-338.75 736,-332.75 742,-332.75"/>
<text text-anchor="middle" x="756.88" y="-345.45" font-family="Times New Roman,serif" font-size="14.00">4</text>
</g>
<!-- 15437832&#45;&gt;15436832 -->
<g id="edge45" class="edge">
<title>15437832:YES&#45;&gt;15436832</title>
<path fill="none" stroke="green" d="M765,-411C765,-400.89 763.84,-389.9 762.41,-380.16"/>
<polygon fill="green" stroke="green" points="765.9,-379.83 760.82,-370.53 758.99,-380.97 765.9,-379.83"/>
</g>
<!-- 15436912 -->
<g id="node48" class="node">
<title>15436912</title>
<path fill="none" stroke="green" d="M814,-332.75C814,-332.75 844,-332.75 844,-332.75 850,-332.75 856,-338.75 856,-344.75 856,-344.75 856,-356.75 856,-356.75 856,-362.75 850,-368.75 844,-368.75 844,-368.75 814,-368.75 814,-368.75 808,-368.75 802,-362.75 802,-356.75 802,-356.75 802,-344.75 802,-344.75 802,-338.75 808,-332.75 814,-332.75"/>
<text text-anchor="middle" x="828.88" y="-345.45" font-family="Times New Roman,serif" font-size="14.00">x</text>
</g>
<!-- 15437832&#45;&gt;15436912 -->
<g id="edge46" class="edge">
<title>15437832:NO&#45;&gt;15436912</title>
<path fill="none" stroke="red" d="M820,-411C820,-400.87 821.3,-389.87 822.92,-380.13"/>
<polygon fill="red" stroke="red" points="826.32,-380.97 824.7,-370.5 819.44,-379.7 826.32,-380.97"/>
</g>
<!-- 15437112 -->
<g id="node50" class="node">
<title>15437112</title>
<path fill="none" stroke="green" d="M886.38,-327C886.38,-327 971.62,-327 971.62,-327 977.62,-327 983.62,-333 983.62,-339 983.62,-339 983.62,-362.5 983.62,-362.5 983.62,-368.5 977.62,-374.5 971.62,-374.5 971.62,-374.5 886.38,-374.5 886.38,-374.5 880.38,-374.5 874.38,-368.5 874.38,-362.5 874.38,-362.5 874.38,-339 874.38,-339 874.38,-333 880.38,-327 886.38,-327"/>
<text text-anchor="middle" x="929" y="-357.2" font-family="Times New Roman,serif" font-size="14.00">/</text>
<polyline fill="none" stroke="green" points="874.38,-350.75 983.62,-350.75"/>
<text text-anchor="middle" x="899.25" y="-333.45" font-family="Times New Roman,serif" font-size="14.00">LEFT</text>
<polyline fill="none" stroke="green" points="924.12,-327 924.12,-350.75"/>
<text text-anchor="middle" x="953.88" y="-333.45" font-family="Times New Roman,serif" font-size="14.00">RIGHT</text>
</g>
<!-- 15437072&#45;&gt;15437112 -->
<g id="edge48" class="edge">
<title>15437072:YES&#45;&gt;15437112</title>
<path fill="none" stroke="green" d="M929,-411C929,-402.98 929,-394.36 929,-386.23"/>
<polygon fill="green" stroke="green" points="932.5,-386.34 929,-376.34 925.5,-386.34 932.5,-386.34"/>
</g>
<!-- 15437352 -->
<g id="node53" class="node">
<title>15437352</title>
<path fill="none" stroke="green" d="M1014,-332.75C1014,-332.75 1044,-332.75 1044,-332.75 1050,-332.75 1056,-338.75 1056,-344.75 1056,-344.75 1056,-356.75 1056,-356.75 1056,-362.75 1050,-368.75 1044,-368.75 1044,-368.75 1014,-368.75 1014,-368.75 1008,-368.75 1002,-362.75 1002,-356.75 1002,-356.75 1002,-344.75 1002,-344.75 1002,-338.75 1008,-332.75 1014,-332.75"/>
<text text-anchor="middle" x="1028.88" y="-345.45" font-family="Times New Roman,serif" font-size="14.00">0</text>
</g>
<!-- 15437072&#45;&gt;15437352 -->
<g id="edge51" class="edge">
<title>15437072:NO&#45;&gt;15437352</title>
<path fill="none" stroke="red" d="M1015,-423.25C1033.4,-423.25 1035.41,-400.17 1033.72,-380.23"/>
<polygon fill="red" stroke="red" points="1037.22,-380.08 1032.56,-370.56 1030.27,-380.9 1037.22,-380.08"/>
</g>
<!-- 15437592 -->
<g id="node51" class="node">
<title>15437592</title>
<path fill="none" stroke="green" d="M875,-248.25C875,-248.25 905,-248.25 905,-248.25 911,-248.25 917,-254.25 917,-260.25 917,-260.25 917,-272.25 917,-272.25 917,-278.25 911,-284.25 905,-284.25 905,-284.25 875,-284.25 875,-284.25 869,-284.25 863,-278.25 863,-272.25 863,-272.25 863,-260.25 863,-260.25 863,-254.25 869,-248.25 875,-248.25"/>
<text text-anchor="middle" x="889.88" y="-260.95" font-family="Times New Roman,serif" font-size="14.00">1</text>
</g>
<!-- 15437112&#45;&gt;15437592 -->
<g id="edge49" class="edge">
<title>15437112:YES&#45;&gt;15437592</title>
<path fill="none" stroke="green" d="M899,-326.5C899,-316.37 897.7,-305.37 896.08,-295.63"/>
<polygon fill="green" stroke="green" points="899.56,-295.2 894.3,-286 892.68,-296.47 899.56,-295.2"/>
</g>
<!-- 15437632 -->
<g id="node52" class="node">
<title>15437632</title>
<path fill="none" stroke="green" d="M947,-248.25C947,-248.25 977,-248.25 977,-248.25 983,-248.25 989,-254.25 989,-260.25 989,-260.25 989,-272.25 989,-272.25 989,-278.25 983,-284.25 977,-284.25 977,-284.25 947,-284.25 947,-284.25 941,-284.25 935,-278.25 935,-272.25 935,-272.25 935,-260.25 935,-260.25 935,-254.25 941,-248.25 947,-248.25"/>
<text text-anchor="middle" x="961.62" y="-260.95" font-family="Times New Roman,serif" font-size="14.00">213</text>
</g>
<!-- 15437112&#45;&gt;15437632 -->
<g id="edge50" class="edge">
<title>15437112:NO&#45;&gt;15437632</title>
<path fill="none" stroke="red" d="M954,-326.5C954,-316.39 955.16,-305.4 956.59,-295.66"/>
<polygon fill="red" stroke="red" points="960.01,-296.47 958.18,-286.03 953.1,-295.33 960.01,-296.47"/>
</g>
</g>
</svg>
