<?xml version="1.0" encoding="UTF-8" standalone="no"?>
<!DOCTYPE svg PUBLIC "-//W3C//DTD SVG 1.1//EN"
 "http://www.w3.org/Graphics/SVG/1.1/DTD/svg11.dtd">
<!-- Generated by graphviz version 10.0.1 (20240210.2158)
 -->
<!-- Title: G Pages: 1 -->
<svg width="642pt" height="552pt"
 viewBox="0.00 0.00 642.00 552.00" xmlns="http://www.w3.org/2000/svg" xmlns:xlink="http://www.w3.org/1999/xlink">
<g id="graph0" class="graph" transform="scale(1 1) rotate(0) translate(4 548)">
<title>G</title>
<polygon fill="white" stroke="none" points="-4,4 -4,-548 638,-548 638,4 -4,4"/>
<!-- tree -->
<g id="node1" class="node">
<title>tree</title>
<polygon fill="none" stroke="black" points="88.5,-537.75 27.5,-537.75 27.5,-501.75 88.5,-501.75 88.5,-537.75"/>
<text text-anchor="middle" x="58" y="-514.33" font-family="Times New Roman,serif" font-size="14.00">size : 68</text>
</g>
<!-- 15449800 -->
<g id="node2" class="node">
<title>15449800</title>
<path fill="none" stroke="green" d="M118.38,-496C118.38,-496 203.62,-496 203.62,-496 209.62,-496 215.62,-502 215.62,-508 215.62,-508 215.62,-531.5 215.62,-531.5 215.62,-537.5 209.62,-543.5 203.62,-543.5 203.62,-543.5 118.38,-543.5 118.38,-543.5 112.38,-543.5 106.38,-537.5 106.38,-531.5 106.38,-531.5 106.38,-508 106.38,-508 106.38,-502 112.38,-496 118.38,-496"/>
<text text-anchor="middle" x="161" y="-526.2" font-family="Times New Roman,serif" font-size="14.00">&#45;</text>
<polyline fill="none" stroke="green" points="106.38,-519.75 215.62,-519.75"/>
<text text-anchor="middle" x="131.25" y="-502.45" font-family="Times New Roman,serif" font-size="14.00">LEFT</text>
<polyline fill="none" stroke="green" points="156.12,-496 156.12,-519.75"/>
<text text-anchor="middle" x="185.88" y="-502.45" font-family="Times New Roman,serif" font-size="14.00">RIGHT</text>
</g>
<!-- 15450800 -->
<g id="node3" class="node">
<title>15450800</title>
<path fill="none" stroke="green" d="M94,-417.25C94,-417.25 124,-417.25 124,-417.25 130,-417.25 136,-423.25 136,-429.25 136,-429.25 136,-441.25 136,-441.25 136,-447.25 130,-453.25 124,-453.25 124,-453.25 94,-453.25 94,-453.25 88,-453.25 82,-447.25 82,-441.25 82,-441.25 82,-429.25 82,-429.25 82,-423.25 88,-417.25 94,-417.25"/>
<text text-anchor="middle" x="108.88" y="-429.95" font-family="Times New Roman,serif" font-size="14.00">0</text>
</g>
<!-- 15449800&#45;&gt;15450800 -->
<g id="edge1" class="edge">
<title>15449800:YES&#45;&gt;15450800</title>
<path fill="none" stroke="green" d="M131,-495.5C131,-484.74 127.77,-473.52 123.79,-463.79"/>
<polygon fill="green" stroke="green" points="127.06,-462.54 119.73,-454.9 120.7,-465.45 127.06,-462.54"/>
</g>
<!-- 15450480 -->
<g id="node4" class="node">
<title>15450480</title>
<path fill="none" stroke="green" d="M166.38,-411.5C166.38,-411.5 251.62,-411.5 251.62,-411.5 257.62,-411.5 263.62,-417.5 263.62,-423.5 263.62,-423.5 263.62,-447 263.62,-447 263.62,-453 257.62,-459 251.62,-459 251.62,-459 166.38,-459 166.38,-459 160.38,-459 154.38,-453 154.38,-447 154.38,-447 154.38,-423.5 154.38,-423.5 154.38,-417.5 160.38,-411.5 166.38,-411.5"/>
<text text-anchor="middle" x="209" y="-441.7" font-family="Times New Roman,serif" font-size="14.00">*</text>
<polyline fill="none" stroke="green" points="154.38,-435.25 263.62,-435.25"/>
<text text-anchor="middle" x="179.25" y="-417.95" font-family="Times New Roman,serif" font-size="14.00">LEFT</text>
<polyline fill="none" stroke="green" points="204.12,-411.5 204.12,-435.25"/>
<text text-anchor="middle" x="233.88" y="-417.95" font-family="Times New Roman,serif" font-size="14.00">RIGHT</text>
</g>
<!-- 15449800&#45;&gt;15450480 -->
<g id="edge2" class="edge">
<title>15449800:NO&#45;&gt;15450480</title>
<path fill="none" stroke="red" d="M186,-495.5C186,-486.93 188.12,-478.1 191.07,-469.97"/>
<polygon fill="red" stroke="red" points="194.28,-471.36 194.9,-460.78 187.82,-468.66 194.28,-471.36"/>
</g>
<!-- 15447760 -->
<g id="node5" class="node">
<title>15447760</title>
<path fill="none" stroke="green" d="M59.38,-327C59.38,-327 144.62,-327 144.62,-327 150.62,-327 156.62,-333 156.62,-339 156.62,-339 156.62,-362.5 156.62,-362.5 156.62,-368.5 150.62,-374.5 144.62,-374.5 144.62,-374.5 59.38,-374.5 59.38,-374.5 53.38,-374.5 47.38,-368.5 47.38,-362.5 47.38,-362.5 47.38,-339 47.38,-339 47.38,-333 53.38,-327 59.38,-327"/>
<text text-anchor="middle" x="102" y="-357.2" font-family="Times New Roman,serif" font-size="14.00">/</text>
<polyline fill="none" stroke="green" points="47.38,-350.75 156.62,-350.75"/>
<text text-anchor="middle" x="72.25" y="-333.45" font-family="Times New Roman,serif" font-size="14.00">LEFT</text>
<polyline fill="none" stroke="green" points="97.12,-327 97.12,-350.75"/>
<text text-anchor="middle" x="126.88" y="-333.45" font-family="Times New Roman,serif" font-size="14.00">RIGHT</text>
</g>
<!-- 15450480&#45;&gt;15447760 -->
<g id="edge3" class="edge">
<title>15450480:YES&#45;&gt;15447760</title>
<path fill="none" stroke="green" d="M153,-423.25C146.5,-423.25 148.69,-416.36 145,-411 138.91,-402.16 132.16,-392.7 125.85,-384"/>
<polygon fill="green" stroke="green" points="128.83,-382.16 120.11,-376.14 123.18,-386.28 128.83,-382.16"/>
</g>
<!-- 15449000 -->
<g id="node14" class="node">
<title>15449000</title>
<path fill="none" stroke="green" d="M291.38,-327C291.38,-327 376.62,-327 376.62,-327 382.62,-327 388.62,-333 388.62,-339 388.62,-339 388.62,-362.5 388.62,-362.5 388.62,-368.5 382.62,-374.5 376.62,-374.5 376.62,-374.5 291.38,-374.5 291.38,-374.5 285.38,-374.5 279.38,-368.5 279.38,-362.5 279.38,-362.5 279.38,-339 279.38,-339 279.38,-333 285.38,-327 291.38,-327"/>
<text text-anchor="middle" x="334" y="-357.2" font-family="Times New Roman,serif" font-size="14.00">*</text>
<polyline fill="none" stroke="green" points="279.38,-350.75 388.62,-350.75"/>
<text text-anchor="middle" x="304.25" y="-333.45" font-family="Times New Roman,serif" font-size="14.00">LEFT</text>
<polyline fill="none" stroke="green" points="329.12,-327 329.12,-350.75"/>
<text text-anchor="middle" x="358.88" y="-333.45" font-family="Times New Roman,serif" font-size="14.00">RIGHT</text>
</g>
<!-- 15450480&#45;&gt;15449000 -->
<g id="edge12" class="edge">
<title>15450480:NO&#45;&gt;15449000</title>
<path fill="none" stroke="red" d="M265,-423.25C288.25,-423.25 306.14,-403.43 317.88,-384.66"/>
<polygon fill="red" stroke="red" points="320.87,-386.49 322.84,-376.08 314.81,-382.98 320.87,-386.49"/>
</g>
<!-- 15450840 -->
<g id="node6" class="node">
<title>15450840</title>
<path fill="none" stroke="green" d="M12,-248.25C12,-248.25 42,-248.25 42,-248.25 48,-248.25 54,-254.25 54,-260.25 54,-260.25 54,-272.25 54,-272.25 54,-278.25 48,-284.25 42,-284.25 42,-284.25 12,-284.25 12,-284.25 6,-284.25 0,-278.25 0,-272.25 0,-272.25 0,-260.25 0,-260.25 0,-254.25 6,-248.25 12,-248.25"/>
<text text-anchor="middle" x="26.88" y="-260.95" font-family="Times New Roman,serif" font-size="14.00">1</text>
</g>
<!-- 15447760&#45;&gt;15450840 -->
<g id="edge4" class="edge">
<title>15447760:YES&#45;&gt;15450840</title>
<path fill="none" stroke="green" d="M46,-338.75C27.41,-338.75 23.77,-315.88 24.11,-296.01"/>
<polygon fill="green" stroke="green" points="27.61,-296.24 24.64,-286.07 20.62,-295.87 27.61,-296.24"/>
</g>
<!-- 15447200 -->
<g id="node7" class="node">
<title>15447200</title>
<path fill="none" stroke="green" d="M84.38,-242.5C84.38,-242.5 169.62,-242.5 169.62,-242.5 175.62,-242.5 181.62,-248.5 181.62,-254.5 181.62,-254.5 181.62,-278 181.62,-278 181.62,-284 175.62,-290 169.62,-290 169.62,-290 84.38,-290 84.38,-290 78.38,-290 72.38,-284 72.38,-278 72.38,-278 72.38,-254.5 72.38,-254.5 72.38,-248.5 78.38,-242.5 84.38,-242.5"/>
<text text-anchor="middle" x="127" y="-272.7" font-family="Times New Roman,serif" font-size="14.00">&#45;</text>
<polyline fill="none" stroke="green" points="72.38,-266.25 181.62,-266.25"/>
<text text-anchor="middle" x="97.25" y="-248.95" font-family="Times New Roman,serif" font-size="14.00">LEFT</text>
<polyline fill="none" stroke="green" points="122.12,-242.5 122.12,-266.25"/>
<text text-anchor="middle" x="151.88" y="-248.95" font-family="Times New Roman,serif" font-size="14.00">RIGHT</text>
</g>
<!-- 15447760&#45;&gt;15447200 -->
<g id="edge5" class="edge">
<title>15447760:NO&#45;&gt;15447200</title>
<path fill="none" stroke="red" d="M127,-326.5C127,-318.48 127,-309.86 127,-301.73"/>
<polygon fill="red" stroke="red" points="130.5,-301.84 127,-291.84 123.5,-301.84 130.5,-301.84"/>
</g>
<!-- 15450720 -->
<g id="node8" class="node">
<title>15450720</title>
<path fill="none" stroke="green" d="M37,-163.75C37,-163.75 67,-163.75 67,-163.75 73,-163.75 79,-169.75 79,-175.75 79,-175.75 79,-187.75 79,-187.75 79,-193.75 73,-199.75 67,-199.75 67,-199.75 37,-199.75 37,-199.75 31,-199.75 25,-193.75 25,-187.75 25,-187.75 25,-175.75 25,-175.75 25,-169.75 31,-163.75 37,-163.75"/>
<text text-anchor="middle" x="51.62" y="-176.45" font-family="Times New Roman,serif" font-size="14.00">233</text>
</g>
<!-- 15447200&#45;&gt;15450720 -->
<g id="edge6" class="edge">
<title>15447200:YES&#45;&gt;15450720</title>
<path fill="none" stroke="green" d="M71,-254.25C66.33,-254.25 60.83,-231.17 56.96,-211.23"/>
<polygon fill="green" stroke="green" points="60.42,-210.74 55.16,-201.55 53.54,-212.02 60.42,-210.74"/>
</g>
<!-- 15447120 -->
<g id="node9" class="node">
<title>15447120</title>
<path fill="none" stroke="green" d="M109.38,-158C109.38,-158 194.62,-158 194.62,-158 200.62,-158 206.62,-164 206.62,-170 206.62,-170 206.62,-193.5 206.62,-193.5 206.62,-199.5 200.62,-205.5 194.62,-205.5 194.62,-205.5 109.38,-205.5 109.38,-205.5 103.38,-205.5 97.38,-199.5 97.38,-193.5 97.38,-193.5 97.38,-170 97.38,-170 97.38,-164 103.38,-158 109.38,-158"/>
<text text-anchor="middle" x="152" y="-188.2" font-family="Times New Roman,serif" font-size="14.00">^</text>
<polyline fill="none" stroke="green" points="97.38,-181.75 206.62,-181.75"/>
<text text-anchor="middle" x="122.25" y="-164.45" font-family="Times New Roman,serif" font-size="14.00">LEFT</text>
<polyline fill="none" stroke="green" points="147.12,-158 147.12,-181.75"/>
<text text-anchor="middle" x="176.88" y="-164.45" font-family="Times New Roman,serif" font-size="14.00">RIGHT</text>
</g>
<!-- 15447200&#45;&gt;15447120 -->
<g id="edge7" class="edge">
<title>15447200:NO&#45;&gt;15447120</title>
<path fill="none" stroke="red" d="M152,-242C152,-233.98 152,-225.36 152,-217.23"/>
<polygon fill="red" stroke="red" points="155.5,-217.34 152,-207.34 148.5,-217.34 155.5,-217.34"/>
</g>
<!-- 15450880 -->
<g id="node10" class="node">
<title>15450880</title>
<path fill="none" stroke="green" d="M76,-79.25C76,-79.25 106,-79.25 106,-79.25 112,-79.25 118,-85.25 118,-91.25 118,-91.25 118,-103.25 118,-103.25 118,-109.25 112,-115.25 106,-115.25 106,-115.25 76,-115.25 76,-115.25 70,-115.25 64,-109.25 64,-103.25 64,-103.25 64,-91.25 64,-91.25 64,-85.25 70,-79.25 76,-79.25"/>
<text text-anchor="middle" x="90.62" y="-91.95" font-family="Times New Roman,serif" font-size="14.00">213</text>
</g>
<!-- 15447120&#45;&gt;15450880 -->
<g id="edge8" class="edge">
<title>15447120:YES&#45;&gt;15450880</title>
<path fill="none" stroke="green" d="M122,-157.5C122,-146.13 117.46,-134.78 111.85,-125.11"/>
<polygon fill="green" stroke="green" points="114.96,-123.47 106.6,-116.97 109.09,-127.27 114.96,-123.47"/>
</g>
<!-- 15448120 -->
<g id="node11" class="node">
<title>15448120</title>
<path fill="none" stroke="green" d="M148.38,-73.5C148.38,-73.5 233.62,-73.5 233.62,-73.5 239.62,-73.5 245.62,-79.5 245.62,-85.5 245.62,-85.5 245.62,-109 245.62,-109 245.62,-115 239.62,-121 233.62,-121 233.62,-121 148.38,-121 148.38,-121 142.38,-121 136.38,-115 136.38,-109 136.38,-109 136.38,-85.5 136.38,-85.5 136.38,-79.5 142.38,-73.5 148.38,-73.5"/>
<text text-anchor="middle" x="191" y="-103.7" font-family="Times New Roman,serif" font-size="14.00">^</text>
<polyline fill="none" stroke="green" points="136.38,-97.25 245.62,-97.25"/>
<text text-anchor="middle" x="161.25" y="-79.95" font-family="Times New Roman,serif" font-size="14.00">LEFT</text>
<polyline fill="none" stroke="green" points="186.12,-73.5 186.12,-97.25"/>
<text text-anchor="middle" x="215.88" y="-79.95" font-family="Times New Roman,serif" font-size="14.00">RIGHT</text>
</g>
<!-- 15447120&#45;&gt;15448120 -->
<g id="edge9" class="edge">
<title>15447120:NO&#45;&gt;15448120</title>
<path fill="none" stroke="red" d="M177,-157.5C177,-149.24 178.31,-140.5 180.12,-132.34"/>
<polygon fill="red" stroke="red" points="183.48,-133.33 182.56,-122.78 176.7,-131.6 183.48,-133.33"/>
</g>
<!-- 15450760 -->
<g id="node12" class="node">
<title>15450760</title>
<path fill="none" stroke="green" d="M137,-0.5C137,-0.5 167,-0.5 167,-0.5 173,-0.5 179,-6.5 179,-12.5 179,-12.5 179,-24.5 179,-24.5 179,-30.5 173,-36.5 167,-36.5 167,-36.5 137,-36.5 137,-36.5 131,-36.5 125,-30.5 125,-24.5 125,-24.5 125,-12.5 125,-12.5 125,-6.5 131,-0.5 137,-0.5"/>
<text text-anchor="middle" x="151.88" y="-13.2" font-family="Times New Roman,serif" font-size="14.00">4</text>
</g>
<!-- 15448120&#45;&gt;15450760 -->
<g id="edge10" class="edge">
<title>15448120:YES&#45;&gt;15450760</title>
<path fill="none" stroke="green" d="M161,-73C161,-64.77 159.95,-55.93 158.57,-47.85"/>
<polygon fill="green" stroke="green" points="162.04,-47.35 156.69,-38.21 155.17,-48.7 162.04,-47.35"/>
</g>
<!-- 15447720 -->
<g id="node13" class="node">
<title>15447720</title>
<path fill="none" stroke="green" d="M209,-0.5C209,-0.5 239,-0.5 239,-0.5 245,-0.5 251,-6.5 251,-12.5 251,-12.5 251,-24.5 251,-24.5 251,-30.5 245,-36.5 239,-36.5 239,-36.5 209,-36.5 209,-36.5 203,-36.5 197,-30.5 197,-24.5 197,-24.5 197,-12.5 197,-12.5 197,-6.5 203,-0.5 209,-0.5"/>
<text text-anchor="middle" x="223.88" y="-13.2" font-family="Times New Roman,serif" font-size="14.00">x</text>
</g>
<!-- 15448120&#45;&gt;15447720 -->
<g id="edge11" class="edge">
<title>15448120:NO&#45;&gt;15447720</title>
<path fill="none" stroke="red" d="M216,-73C216,-64.8 216.93,-55.96 218.16,-47.89"/>
<polygon fill="red" stroke="red" points="221.57,-48.69 219.83,-38.24 214.67,-47.49 221.57,-48.69"/>
</g>
<!-- 15447560 -->
<g id="node15" class="node">
<title>15447560</title>
<path fill="none" stroke="green" d="M261.38,-242.5C261.38,-242.5 346.62,-242.5 346.62,-242.5 352.62,-242.5 358.62,-248.5 358.62,-254.5 358.62,-254.5 358.62,-278 358.62,-278 358.62,-284 352.62,-290 346.62,-290 346.62,-290 261.38,-290 261.38,-290 255.38,-290 249.38,-284 249.38,-278 249.38,-278 249.38,-254.5 249.38,-254.5 249.38,-248.5 255.38,-242.5 261.38,-242.5"/>
<text text-anchor="middle" x="304" y="-272.7" font-family="Times New Roman,serif" font-size="14.00">^</text>
<polyline fill="none" stroke="green" points="249.38,-266.25 358.62,-266.25"/>
<text text-anchor="middle" x="274.25" y="-248.95" font-family="Times New Roman,serif" font-size="14.00">LEFT</text>
<polyline fill="none" stroke="green" points="299.12,-242.5 299.12,-266.25"/>
<text text-anchor="middle" x="328.88" y="-248.95" font-family="Times New Roman,serif" font-size="14.00">RIGHT</text>
</g>
<!-- 15449000&#45;&gt;15447560 -->
<g id="edge13" class="edge">
<title>15449000:YES&#45;&gt;15447560</title>
<path fill="none" stroke="green" d="M304,-326.5C304,-318.48 304,-309.86 304,-301.73"/>
<polygon fill="green" stroke="green" points="307.5,-301.84 304,-291.84 300.5,-301.84 307.5,-301.84"/>
</g>
<!-- 15448680 -->
<g id="node20" class="node">
<title>15448680</title>
<path fill="none" stroke="green" d="M494.38,-242.5C494.38,-242.5 579.62,-242.5 579.62,-242.5 585.62,-242.5 591.62,-248.5 591.62,-254.5 591.62,-254.5 591.62,-278 591.62,-278 591.62,-284 585.62,-290 579.62,-290 579.62,-290 494.38,-290 494.38,-290 488.38,-290 482.38,-284 482.38,-278 482.38,-278 482.38,-254.5 482.38,-254.5 482.38,-248.5 488.38,-242.5 494.38,-242.5"/>
<text text-anchor="middle" x="537" y="-272.7" font-family="Times New Roman,serif" font-size="14.00">*</text>
<polyline fill="none" stroke="green" points="482.38,-266.25 591.62,-266.25"/>
<text text-anchor="middle" x="507.25" y="-248.95" font-family="Times New Roman,serif" font-size="14.00">LEFT</text>
<polyline fill="none" stroke="green" points="532.12,-242.5 532.12,-266.25"/>
<text text-anchor="middle" x="561.88" y="-248.95" font-family="Times New Roman,serif" font-size="14.00">RIGHT</text>
</g>
<!-- 15449000&#45;&gt;15448680 -->
<g id="edge18" class="edge">
<title>15449000:NO&#45;&gt;15448680</title>
<path fill="none" stroke="red" d="M390,-338.75C430.41,-338.75 471.35,-316.63 499.73,-296.99"/>
<polygon fill="red" stroke="red" points="501.52,-300.01 507.62,-291.34 497.45,-294.32 501.52,-300.01"/>
</g>
<!-- 15447960 -->
<g id="node16" class="node">
<title>15447960</title>
<path fill="none" stroke="green" d="M237,-163.75C237,-163.75 267,-163.75 267,-163.75 273,-163.75 279,-169.75 279,-175.75 279,-175.75 279,-187.75 279,-187.75 279,-193.75 273,-199.75 267,-199.75 267,-199.75 237,-199.75 237,-199.75 231,-199.75 225,-193.75 225,-187.75 225,-187.75 225,-175.75 225,-175.75 225,-169.75 231,-163.75 237,-163.75"/>
<text text-anchor="middle" x="251.62" y="-176.45" font-family="Times New Roman,serif" font-size="14.00">213</text>
</g>
<!-- 15447560&#45;&gt;15447960 -->
<g id="edge14" class="edge">
<title>15447560:YES&#45;&gt;15447960</title>
<path fill="none" stroke="green" d="M274,-242C274,-231.24 270.77,-220.02 266.79,-210.29"/>
<polygon fill="green" stroke="green" points="270.06,-209.04 262.73,-201.4 263.7,-211.95 270.06,-209.04"/>
</g>
<!-- 15446960 -->
<g id="node17" class="node">
<title>15446960</title>
<path fill="none" stroke="green" d="M309.38,-158C309.38,-158 394.62,-158 394.62,-158 400.62,-158 406.62,-164 406.62,-170 406.62,-170 406.62,-193.5 406.62,-193.5 406.62,-199.5 400.62,-205.5 394.62,-205.5 394.62,-205.5 309.38,-205.5 309.38,-205.5 303.38,-205.5 297.38,-199.5 297.38,-193.5 297.38,-193.5 297.38,-170 297.38,-170 297.38,-164 303.38,-158 309.38,-158"/>
<text text-anchor="middle" x="352" y="-188.2" font-family="Times New Roman,serif" font-size="14.00">^</text>
<polyline fill="none" stroke="green" points="297.38,-181.75 406.62,-181.75"/>
<text text-anchor="middle" x="322.25" y="-164.45" font-family="Times New Roman,serif" font-size="14.00">LEFT</text>
<polyline fill="none" stroke="green" points="347.12,-158 347.12,-181.75"/>
<text text-anchor="middle" x="376.88" y="-164.45" font-family="Times New Roman,serif" font-size="14.00">RIGHT</text>
</g>
<!-- 15447560&#45;&gt;15446960 -->
<g id="edge15" class="edge">
<title>15447560:NO&#45;&gt;15446960</title>
<path fill="none" stroke="red" d="M329,-242C329,-233.43 331.12,-224.6 334.07,-216.47"/>
<polygon fill="red" stroke="red" points="337.28,-217.86 337.9,-207.28 330.82,-215.16 337.28,-217.86"/>
</g>
<!-- 15447080 -->
<g id="node18" class="node">
<title>15447080</title>
<path fill="none" stroke="green" d="M290,-79.25C290,-79.25 320,-79.25 320,-79.25 326,-79.25 332,-85.25 332,-91.25 332,-91.25 332,-103.25 332,-103.25 332,-109.25 326,-115.25 320,-115.25 320,-115.25 290,-115.25 290,-115.25 284,-115.25 278,-109.25 278,-103.25 278,-103.25 278,-91.25 278,-91.25 278,-85.25 284,-79.25 290,-79.25"/>
<text text-anchor="middle" x="304.88" y="-91.95" font-family="Times New Roman,serif" font-size="14.00">4</text>
</g>
<!-- 15446960&#45;&gt;15447080 -->
<g id="edge16" class="edge">
<title>15446960:YES&#45;&gt;15447080</title>
<path fill="none" stroke="green" d="M322,-157.5C322,-147.04 319.52,-135.93 316.46,-126.19"/>
<polygon fill="green" stroke="green" points="319.82,-125.21 313.21,-116.94 313.22,-127.53 319.82,-125.21"/>
</g>
<!-- 15447480 -->
<g id="node19" class="node">
<title>15447480</title>
<path fill="none" stroke="green" d="M362,-79.25C362,-79.25 392,-79.25 392,-79.25 398,-79.25 404,-85.25 404,-91.25 404,-91.25 404,-103.25 404,-103.25 404,-109.25 398,-115.25 392,-115.25 392,-115.25 362,-115.25 362,-115.25 356,-115.25 350,-109.25 350,-103.25 350,-103.25 350,-91.25 350,-91.25 350,-85.25 356,-79.25 362,-79.25"/>
<text text-anchor="middle" x="376.88" y="-91.95" font-family="Times New Roman,serif" font-size="14.00">x</text>
</g>
<!-- 15446960&#45;&gt;15447480 -->
<g id="edge17" class="edge">
<title>15446960:NO&#45;&gt;15447480</title>
<path fill="none" stroke="red" d="M377,-157.5C377,-147.59 377,-136.75 377,-127.08"/>
<polygon fill="red" stroke="red" points="380.5,-127.13 377,-117.13 373.5,-127.13 380.5,-127.13"/>
</g>
<!-- 15448200 -->
<g id="node21" class="node">
<title>15448200</title>
<path fill="none" stroke="green" d="M464.38,-158C464.38,-158 549.62,-158 549.62,-158 555.62,-158 561.62,-164 561.62,-170 561.62,-170 561.62,-193.5 561.62,-193.5 561.62,-199.5 555.62,-205.5 549.62,-205.5 549.62,-205.5 464.38,-205.5 464.38,-205.5 458.38,-205.5 452.38,-199.5 452.38,-193.5 452.38,-193.5 452.38,-170 452.38,-170 452.38,-164 458.38,-158 464.38,-158"/>
<text text-anchor="middle" x="507" y="-188.2" font-family="Times New Roman,serif" font-size="14.00">*</text>
<polyline fill="none" stroke="green" points="452.38,-181.75 561.62,-181.75"/>
<text text-anchor="middle" x="477.25" y="-164.45" font-family="Times New Roman,serif" font-size="14.00">LEFT</text>
<polyline fill="none" stroke="green" points="502.12,-158 502.12,-181.75"/>
<text text-anchor="middle" x="531.88" y="-164.45" font-family="Times New Roman,serif" font-size="14.00">RIGHT</text>
</g>
<!-- 15448680&#45;&gt;15448200 -->
<g id="edge19" class="edge">
<title>15448680:YES&#45;&gt;15448200</title>
<path fill="none" stroke="green" d="M507,-242C507,-233.98 507,-225.36 507,-217.23"/>
<polygon fill="green" stroke="green" points="510.5,-217.34 507,-207.34 503.5,-217.34 510.5,-217.34"/>
</g>
<!-- 15448480 -->
<g id="node26" class="node">
<title>15448480</title>
<path fill="none" stroke="green" d="M592,-163.75C592,-163.75 622,-163.75 622,-163.75 628,-163.75 634,-169.75 634,-175.75 634,-175.75 634,-187.75 634,-187.75 634,-193.75 628,-199.75 622,-199.75 622,-199.75 592,-199.75 592,-199.75 586,-199.75 580,-193.75 580,-187.75 580,-187.75 580,-175.75 580,-175.75 580,-169.75 586,-163.75 592,-163.75"/>
<text text-anchor="middle" x="607" y="-176.45" font-family="Times New Roman,serif" font-size="14.00">5.36</text>
</g>
<!-- 15448680&#45;&gt;15448480 -->
<g id="edge24" class="edge">
<title>15448680:NO&#45;&gt;15448480</title>
<path fill="none" stroke="red" d="M593,-254.25C611.4,-254.25 613.41,-231.17 611.72,-211.23"/>
<polygon fill="red" stroke="red" points="615.22,-211.08 610.56,-201.56 608.27,-211.9 615.22,-211.08"/>
</g>
<!-- 15448160 -->
<g id="node22" class="node">
<title>15448160</title>
<path fill="none" stroke="green" d="M434.38,-73.5C434.38,-73.5 519.62,-73.5 519.62,-73.5 525.62,-73.5 531.62,-79.5 531.62,-85.5 531.62,-85.5 531.62,-109 531.62,-109 531.62,-115 525.62,-121 519.62,-121 519.62,-121 434.38,-121 434.38,-121 428.38,-121 422.38,-115 422.38,-109 422.38,-109 422.38,-85.5 422.38,-85.5 422.38,-79.5 428.38,-73.5 434.38,-73.5"/>
<text text-anchor="middle" x="477" y="-103.7" font-family="Times New Roman,serif" font-size="14.00">^</text>
<polyline fill="none" stroke="green" points="422.38,-97.25 531.62,-97.25"/>
<text text-anchor="middle" x="447.25" y="-79.95" font-family="Times New Roman,serif" font-size="14.00">LEFT</text>
<polyline fill="none" stroke="green" points="472.12,-73.5 472.12,-97.25"/>
<text text-anchor="middle" x="501.88" y="-79.95" font-family="Times New Roman,serif" font-size="14.00">RIGHT</text>
</g>
<!-- 15448200&#45;&gt;15448160 -->
<g id="edge20" class="edge">
<title>15448200:YES&#45;&gt;15448160</title>
<path fill="none" stroke="green" d="M477,-157.5C477,-149.48 477,-140.86 477,-132.73"/>
<polygon fill="green" stroke="green" points="480.5,-132.84 477,-122.84 473.5,-132.84 480.5,-132.84"/>
</g>
<!-- 15449400 -->
<g id="node25" class="node">
<title>15449400</title>
<path fill="none" stroke="green" d="M562,-79.25C562,-79.25 592,-79.25 592,-79.25 598,-79.25 604,-85.25 604,-91.25 604,-91.25 604,-103.25 604,-103.25 604,-109.25 598,-115.25 592,-115.25 592,-115.25 562,-115.25 562,-115.25 556,-115.25 550,-109.25 550,-103.25 550,-103.25 550,-91.25 550,-91.25 550,-85.25 556,-79.25 562,-79.25"/>
<text text-anchor="middle" x="577" y="-91.95" font-family="Times New Roman,serif" font-size="14.00">1.39</text>
</g>
<!-- 15448200&#45;&gt;15449400 -->
<g id="edge23" class="edge">
<title>15448200:NO&#45;&gt;15449400</title>
<path fill="none" stroke="red" d="M563,-169.75C567.6,-169.75 571.49,-146.67 574,-126.73"/>
<polygon fill="red" stroke="red" points="577.44,-127.4 575.13,-117.06 570.49,-126.59 577.44,-127.4"/>
</g>
<!-- 15448760 -->
<g id="node23" class="node">
<title>15448760</title>
<path fill="none" stroke="green" d="M423,-0.5C423,-0.5 453,-0.5 453,-0.5 459,-0.5 465,-6.5 465,-12.5 465,-12.5 465,-24.5 465,-24.5 465,-30.5 459,-36.5 453,-36.5 453,-36.5 423,-36.5 423,-36.5 417,-36.5 411,-30.5 411,-24.5 411,-24.5 411,-12.5 411,-12.5 411,-6.5 417,-0.5 423,-0.5"/>
<text text-anchor="middle" x="437.88" y="-13.2" font-family="Times New Roman,serif" font-size="14.00">4</text>
</g>
<!-- 15448160&#45;&gt;15448760 -->
<g id="edge21" class="edge">
<title>15448160:YES&#45;&gt;15448760</title>
<path fill="none" stroke="green" d="M447,-73C447,-64.77 445.95,-55.93 444.57,-47.85"/>
<polygon fill="green" stroke="green" points="448.04,-47.35 442.69,-38.21 441.17,-48.7 448.04,-47.35"/>
</g>
<!-- 15449040 -->
<g id="node24" class="node">
<title>15449040</title>
<path fill="none" stroke="green" d="M495,-0.5C495,-0.5 525,-0.5 525,-0.5 531,-0.5 537,-6.5 537,-12.5 537,-12.5 537,-24.5 537,-24.5 537,-30.5 531,-36.5 525,-36.5 525,-36.5 495,-36.5 495,-36.5 489,-36.5 483,-30.5 483,-24.5 483,-24.5 483,-12.5 483,-12.5 483,-6.5 489,-0.5 495,-0.5"/>
<text text-anchor="middle" x="509.88" y="-13.2" font-family="Times New Roman,serif" font-size="14.00">x</text>
</g>
<!-- 15448160&#45;&gt;15449040 -->
<g id="edge22" class="edge">
<title>15448160:NO&#45;&gt;15449040</title>
<path fill="none" stroke="red" d="M502,-73C502,-64.8 502.93,-55.96 504.16,-47.89"/>
<polygon fill="red" stroke="red" points="507.57,-48.69 505.83,-38.24 500.67,-47.49 507.57,-48.69"/>
</g>
</g>
</svg>
