<?xml version="1.0" encoding="UTF-8" standalone="no"?>
<!DOCTYPE svg PUBLIC "-//W3C//DTD SVG 1.1//EN"
 "http://www.w3.org/Graphics/SVG/1.1/DTD/svg11.dtd">
<!-- Generated by graphviz version 10.0.1 (20240210.2158)
 -->
<!-- Title: G Pages: 1 -->
<svg width="622pt" height="468pt"
 viewBox="0.00 0.00 622.00 467.50" xmlns="http://www.w3.org/2000/svg" xmlns:xlink="http://www.w3.org/1999/xlink">
<g id="graph0" class="graph" transform="scale(1 1) rotate(0) translate(4 463.5)">
<title>G</title>
<polygon fill="white" stroke="none" points="-4,4 -4,-463.5 618,-463.5 618,4 -4,4"/>
<!-- tree -->
<g id="node1" class="node">
<title>tree</title>
<polygon fill="none" stroke="black" points="172.12,-453.25 117.88,-453.25 117.88,-417.25 172.12,-417.25 172.12,-453.25"/>
<text text-anchor="middle" x="145" y="-429.82" font-family="Times New Roman,serif" font-size="14.00">size : 5</text>
</g>
<!-- 14909528 -->
<g id="node2" class="node">
<title>14909528</title>
<path fill="none" stroke="green" d="M202.38,-411.5C202.38,-411.5 287.62,-411.5 287.62,-411.5 293.62,-411.5 299.62,-417.5 299.62,-423.5 299.62,-423.5 299.62,-447 299.62,-447 299.62,-453 293.62,-459 287.62,-459 287.62,-459 202.38,-459 202.38,-459 196.38,-459 190.38,-453 190.38,-447 190.38,-447 190.38,-423.5 190.38,-423.5 190.38,-417.5 196.38,-411.5 202.38,-411.5"/>
<text text-anchor="middle" x="245" y="-441.7" font-family="Times New Roman,serif" font-size="14.00">*</text>
<polyline fill="none" stroke="green" points="190.38,-435.25 299.62,-435.25"/>
<text text-anchor="middle" x="215.25" y="-417.95" font-family="Times New Roman,serif" font-size="14.00">LEFT</text>
<polyline fill="none" stroke="green" points="240.12,-411.5 240.12,-435.25"/>
<text text-anchor="middle" x="269.88" y="-417.95" font-family="Times New Roman,serif" font-size="14.00">RIGHT</text>
</g>
<!-- 14911128 -->
<g id="node3" class="node">
<title>14911128</title>
<path fill="none" stroke="green" d="M95.38,-327C95.38,-327 180.62,-327 180.62,-327 186.62,-327 192.62,-333 192.62,-339 192.62,-339 192.62,-362.5 192.62,-362.5 192.62,-368.5 186.62,-374.5 180.62,-374.5 180.62,-374.5 95.38,-374.5 95.38,-374.5 89.38,-374.5 83.38,-368.5 83.38,-362.5 83.38,-362.5 83.38,-339 83.38,-339 83.38,-333 89.38,-327 95.38,-327"/>
<text text-anchor="middle" x="138" y="-357.2" font-family="Times New Roman,serif" font-size="14.00">/</text>
<polyline fill="none" stroke="green" points="83.38,-350.75 192.62,-350.75"/>
<text text-anchor="middle" x="108.25" y="-333.45" font-family="Times New Roman,serif" font-size="14.00">LEFT</text>
<polyline fill="none" stroke="green" points="133.12,-327 133.12,-350.75"/>
<text text-anchor="middle" x="162.88" y="-333.45" font-family="Times New Roman,serif" font-size="14.00">RIGHT</text>
</g>
<!-- 14909528&#45;&gt;14911128 -->
<g id="edge1" class="edge">
<title>14909528:YES&#45;&gt;14911128</title>
<path fill="none" stroke="green" d="M189,-423.25C182.5,-423.25 184.69,-416.36 181,-411 174.91,-402.16 168.16,-392.7 161.85,-384"/>
<polygon fill="green" stroke="green" points="164.83,-382.16 156.11,-376.14 159.18,-386.28 164.83,-382.16"/>
</g>
<!-- 14909248 -->
<g id="node12" class="node">
<title>14909248</title>
<path fill="none" stroke="green" d="M341.38,-327C341.38,-327 426.62,-327 426.62,-327 432.62,-327 438.62,-333 438.62,-339 438.62,-339 438.62,-362.5 438.62,-362.5 438.62,-368.5 432.62,-374.5 426.62,-374.5 426.62,-374.5 341.38,-374.5 341.38,-374.5 335.38,-374.5 329.38,-368.5 329.38,-362.5 329.38,-362.5 329.38,-339 329.38,-339 329.38,-333 335.38,-327 341.38,-327"/>
<text text-anchor="middle" x="384" y="-357.2" font-family="Times New Roman,serif" font-size="14.00">/</text>
<polyline fill="none" stroke="green" points="329.38,-350.75 438.62,-350.75"/>
<text text-anchor="middle" x="354.25" y="-333.45" font-family="Times New Roman,serif" font-size="14.00">LEFT</text>
<polyline fill="none" stroke="green" points="379.12,-327 379.12,-350.75"/>
<text text-anchor="middle" x="408.88" y="-333.45" font-family="Times New Roman,serif" font-size="14.00">RIGHT</text>
</g>
<!-- 14909528&#45;&gt;14909248 -->
<g id="edge10" class="edge">
<title>14909528:NO&#45;&gt;14909248</title>
<path fill="none" stroke="red" d="M301,-423.25C326.99,-423.25 348.88,-402.88 363.64,-383.89"/>
<polygon fill="red" stroke="red" points="366.34,-386.13 369.41,-375.99 360.69,-382 366.34,-386.13"/>
</g>
<!-- 14910568 -->
<g id="node4" class="node">
<title>14910568</title>
<path fill="none" stroke="green" d="M48,-248.25C48,-248.25 78,-248.25 78,-248.25 84,-248.25 90,-254.25 90,-260.25 90,-260.25 90,-272.25 90,-272.25 90,-278.25 84,-284.25 78,-284.25 78,-284.25 48,-284.25 48,-284.25 42,-284.25 36,-278.25 36,-272.25 36,-272.25 36,-260.25 36,-260.25 36,-254.25 42,-248.25 48,-248.25"/>
<text text-anchor="middle" x="63" y="-260.95" font-family="Times New Roman,serif" font-size="14.00">1.00</text>
</g>
<!-- 14911128&#45;&gt;14910568 -->
<g id="edge2" class="edge">
<title>14911128:YES&#45;&gt;14910568</title>
<path fill="none" stroke="green" d="M82,-338.75C63.41,-338.75 59.77,-315.88 60.11,-296.01"/>
<polygon fill="green" stroke="green" points="63.61,-296.24 60.64,-286.07 56.62,-295.87 63.61,-296.24"/>
</g>
<!-- 14910608 -->
<g id="node5" class="node">
<title>14910608</title>
<path fill="none" stroke="green" d="M120.38,-242.5C120.38,-242.5 205.62,-242.5 205.62,-242.5 211.62,-242.5 217.62,-248.5 217.62,-254.5 217.62,-254.5 217.62,-278 217.62,-278 217.62,-284 211.62,-290 205.62,-290 205.62,-290 120.38,-290 120.38,-290 114.38,-290 108.38,-284 108.38,-278 108.38,-278 108.38,-254.5 108.38,-254.5 108.38,-248.5 114.38,-242.5 120.38,-242.5"/>
<text text-anchor="middle" x="163" y="-272.7" font-family="Times New Roman,serif" font-size="14.00">^</text>
<polyline fill="none" stroke="green" points="108.38,-266.25 217.62,-266.25"/>
<text text-anchor="middle" x="133.25" y="-248.95" font-family="Times New Roman,serif" font-size="14.00">LEFT</text>
<polyline fill="none" stroke="green" points="158.12,-242.5 158.12,-266.25"/>
<text text-anchor="middle" x="187.88" y="-248.95" font-family="Times New Roman,serif" font-size="14.00">RIGHT</text>
</g>
<!-- 14911128&#45;&gt;14910608 -->
<g id="edge3" class="edge">
<title>14911128:NO&#45;&gt;14910608</title>
<path fill="none" stroke="red" d="M163,-326.5C163,-318.48 163,-309.86 163,-301.73"/>
<polygon fill="red" stroke="red" points="166.5,-301.84 163,-291.84 159.5,-301.84 166.5,-301.84"/>
</g>
<!-- 14911448 -->
<g id="node6" class="node">
<title>14911448</title>
<path fill="none" stroke="green" d="M45.38,-158C45.38,-158 130.62,-158 130.62,-158 136.62,-158 142.62,-164 142.62,-170 142.62,-170 142.62,-193.5 142.62,-193.5 142.62,-199.5 136.62,-205.5 130.62,-205.5 130.62,-205.5 45.38,-205.5 45.38,-205.5 39.38,-205.5 33.38,-199.5 33.38,-193.5 33.38,-193.5 33.38,-170 33.38,-170 33.38,-164 39.38,-158 45.38,-158"/>
<text text-anchor="middle" x="88" y="-188.2" font-family="Times New Roman,serif" font-size="14.00">cos</text>
<polyline fill="none" stroke="green" points="33.38,-181.75 142.62,-181.75"/>
<text text-anchor="middle" x="58.25" y="-164.45" font-family="Times New Roman,serif" font-size="14.00">LEFT</text>
<polyline fill="none" stroke="green" points="83.12,-158 83.12,-181.75"/>
<text text-anchor="middle" x="112.88" y="-164.45" font-family="Times New Roman,serif" font-size="14.00">RIGHT</text>
</g>
<!-- 14910608&#45;&gt;14911448 -->
<g id="edge4" class="edge">
<title>14910608:YES&#45;&gt;14911448</title>
<path fill="none" stroke="green" d="M107,-254.25C102.77,-254.25 97.87,-235.33 94.1,-216.96"/>
<polygon fill="green" stroke="green" points="97.56,-216.4 92.21,-207.25 90.68,-217.74 97.56,-216.4"/>
</g>
<!-- 14910648 -->
<g id="node11" class="node">
<title>14910648</title>
<path fill="none" stroke="green" d="M173,-163.75C173,-163.75 203,-163.75 203,-163.75 209,-163.75 215,-169.75 215,-175.75 215,-175.75 215,-187.75 215,-187.75 215,-193.75 209,-199.75 203,-199.75 203,-199.75 173,-199.75 173,-199.75 167,-199.75 161,-193.75 161,-187.75 161,-187.75 161,-175.75 161,-175.75 161,-169.75 167,-163.75 173,-163.75"/>
<text text-anchor="middle" x="188" y="-176.45" font-family="Times New Roman,serif" font-size="14.00">2.00</text>
</g>
<!-- 14910608&#45;&gt;14910648 -->
<g id="edge9" class="edge">
<title>14910608:NO&#45;&gt;14910648</title>
<path fill="none" stroke="red" d="M188,-242C188,-232.09 188,-221.25 188,-211.58"/>
<polygon fill="red" stroke="red" points="191.5,-211.63 188,-201.63 184.5,-211.63 191.5,-211.63"/>
</g>
<!-- 14911288 -->
<g id="node7" class="node">
<title>14911288</title>
<path fill="none" stroke="green" d="M12,-79.25C12,-79.25 42,-79.25 42,-79.25 48,-79.25 54,-85.25 54,-91.25 54,-91.25 54,-103.25 54,-103.25 54,-109.25 48,-115.25 42,-115.25 42,-115.25 12,-115.25 12,-115.25 6,-115.25 0,-109.25 0,-103.25 0,-103.25 0,-91.25 0,-91.25 0,-85.25 6,-79.25 12,-79.25"/>
<text text-anchor="middle" x="26.75" y="-91.95" font-family="Times New Roman,serif" font-size="14.00">&#45;1.00</text>
</g>
<!-- 14911448&#45;&gt;14911288 -->
<g id="edge5" class="edge">
<title>14911448:YES&#45;&gt;14911288</title>
<path fill="none" stroke="green" d="M58,-157.5C58,-146.13 53.46,-134.78 47.85,-125.11"/>
<polygon fill="green" stroke="green" points="50.96,-123.47 42.6,-116.97 45.09,-127.27 50.96,-123.47"/>
</g>
<!-- 14910328 -->
<g id="node8" class="node">
<title>14910328</title>
<path fill="none" stroke="green" d="M84.38,-73.5C84.38,-73.5 169.62,-73.5 169.62,-73.5 175.62,-73.5 181.62,-79.5 181.62,-85.5 181.62,-85.5 181.62,-109 181.62,-109 181.62,-115 175.62,-121 169.62,-121 169.62,-121 84.38,-121 84.38,-121 78.38,-121 72.38,-115 72.38,-109 72.38,-109 72.38,-85.5 72.38,-85.5 72.38,-79.5 78.38,-73.5 84.38,-73.5"/>
<text text-anchor="middle" x="127" y="-103.7" font-family="Times New Roman,serif" font-size="14.00">/</text>
<polyline fill="none" stroke="green" points="72.38,-97.25 181.62,-97.25"/>
<text text-anchor="middle" x="97.25" y="-79.95" font-family="Times New Roman,serif" font-size="14.00">LEFT</text>
<polyline fill="none" stroke="green" points="122.12,-73.5 122.12,-97.25"/>
<text text-anchor="middle" x="151.88" y="-79.95" font-family="Times New Roman,serif" font-size="14.00">RIGHT</text>
</g>
<!-- 14911448&#45;&gt;14910328 -->
<g id="edge6" class="edge">
<title>14911448:NO&#45;&gt;14910328</title>
<path fill="none" stroke="red" d="M113,-157.5C113,-149.24 114.31,-140.5 116.12,-132.34"/>
<polygon fill="red" stroke="red" points="119.48,-133.33 118.56,-122.78 112.7,-131.6 119.48,-133.33"/>
</g>
<!-- 14911488 -->
<g id="node9" class="node">
<title>14911488</title>
<path fill="none" stroke="green" d="M74,-0.5C74,-0.5 104,-0.5 104,-0.5 110,-0.5 116,-6.5 116,-12.5 116,-12.5 116,-24.5 116,-24.5 116,-30.5 110,-36.5 104,-36.5 104,-36.5 74,-36.5 74,-36.5 68,-36.5 62,-30.5 62,-24.5 62,-24.5 62,-12.5 62,-12.5 62,-6.5 68,-0.5 74,-0.5"/>
<text text-anchor="middle" x="88.88" y="-13.2" font-family="Times New Roman,serif" font-size="14.00">x</text>
</g>
<!-- 14910328&#45;&gt;14911488 -->
<g id="edge7" class="edge">
<title>14910328:YES&#45;&gt;14911488</title>
<path fill="none" stroke="green" d="M97,-73C97,-64.8 96.07,-55.96 94.84,-47.89"/>
<polygon fill="green" stroke="green" points="98.33,-47.49 93.17,-38.24 91.43,-48.69 98.33,-47.49"/>
</g>
<!-- 14910448 -->
<g id="node10" class="node">
<title>14910448</title>
<path fill="none" stroke="green" d="M146,-0.5C146,-0.5 176,-0.5 176,-0.5 182,-0.5 188,-6.5 188,-12.5 188,-12.5 188,-24.5 188,-24.5 188,-30.5 182,-36.5 176,-36.5 176,-36.5 146,-36.5 146,-36.5 140,-36.5 134,-30.5 134,-24.5 134,-24.5 134,-12.5 134,-12.5 134,-6.5 140,-0.5 146,-0.5"/>
<text text-anchor="middle" x="161" y="-13.2" font-family="Times New Roman,serif" font-size="14.00">5.00</text>
</g>
<!-- 14910328&#45;&gt;14910448 -->
<g id="edge8" class="edge">
<title>14910328:NO&#45;&gt;14910448</title>
<path fill="none" stroke="red" d="M152,-73C152,-64.77 153.05,-55.93 154.43,-47.85"/>
<polygon fill="red" stroke="red" points="157.83,-48.7 156.31,-38.21 150.96,-47.35 157.83,-48.7"/>
</g>
<!-- 14910128 -->
<g id="node13" class="node">
<title>14910128</title>
<path fill="none" stroke="green" d="M311.38,-242.5C311.38,-242.5 396.62,-242.5 396.62,-242.5 402.62,-242.5 408.62,-248.5 408.62,-254.5 408.62,-254.5 408.62,-278 408.62,-278 408.62,-284 402.62,-290 396.62,-290 396.62,-290 311.38,-290 311.38,-290 305.38,-290 299.38,-284 299.38,-278 299.38,-278 299.38,-254.5 299.38,-254.5 299.38,-248.5 305.38,-242.5 311.38,-242.5"/>
<text text-anchor="middle" x="354" y="-272.7" font-family="Times New Roman,serif" font-size="14.00">&#45;</text>
<polyline fill="none" stroke="green" points="299.38,-266.25 408.62,-266.25"/>
<text text-anchor="middle" x="324.25" y="-248.95" font-family="Times New Roman,serif" font-size="14.00">LEFT</text>
<polyline fill="none" stroke="green" points="349.12,-242.5 349.12,-266.25"/>
<text text-anchor="middle" x="378.88" y="-248.95" font-family="Times New Roman,serif" font-size="14.00">RIGHT</text>
</g>
<!-- 14909248&#45;&gt;14910128 -->
<g id="edge11" class="edge">
<title>14909248:YES&#45;&gt;14910128</title>
<path fill="none" stroke="green" d="M354,-326.5C354,-318.48 354,-309.86 354,-301.73"/>
<polygon fill="green" stroke="green" points="357.5,-301.84 354,-291.84 350.5,-301.84 357.5,-301.84"/>
</g>
<!-- 14910488 -->
<g id="node20" class="node">
<title>14910488</title>
<path fill="none" stroke="green" d="M502.38,-242.5C502.38,-242.5 587.62,-242.5 587.62,-242.5 593.62,-242.5 599.62,-248.5 599.62,-254.5 599.62,-254.5 599.62,-278 599.62,-278 599.62,-284 593.62,-290 587.62,-290 587.62,-290 502.38,-290 502.38,-290 496.38,-290 490.38,-284 490.38,-278 490.38,-278 490.38,-254.5 490.38,-254.5 490.38,-248.5 496.38,-242.5 502.38,-242.5"/>
<text text-anchor="middle" x="545" y="-272.7" font-family="Times New Roman,serif" font-size="14.00">^</text>
<polyline fill="none" stroke="green" points="490.38,-266.25 599.62,-266.25"/>
<text text-anchor="middle" x="515.25" y="-248.95" font-family="Times New Roman,serif" font-size="14.00">LEFT</text>
<polyline fill="none" stroke="green" points="540.12,-242.5 540.12,-266.25"/>
<text text-anchor="middle" x="569.88" y="-248.95" font-family="Times New Roman,serif" font-size="14.00">RIGHT</text>
</g>
<!-- 14909248&#45;&gt;14910488 -->
<g id="edge18" class="edge">
<title>14909248:NO&#45;&gt;14910488</title>
<path fill="none" stroke="red" d="M440,-338.75C470.68,-338.75 499.03,-317.63 518.51,-298.35"/>
<polygon fill="red" stroke="red" points="520.83,-300.99 525.25,-291.36 515.79,-296.13 520.83,-300.99"/>
</g>
<!-- 14909288 -->
<g id="node14" class="node">
<title>14909288</title>
<path fill="none" stroke="green" d="M245.38,-158C245.38,-158 330.62,-158 330.62,-158 336.62,-158 342.62,-164 342.62,-170 342.62,-170 342.62,-193.5 342.62,-193.5 342.62,-199.5 336.62,-205.5 330.62,-205.5 330.62,-205.5 245.38,-205.5 245.38,-205.5 239.38,-205.5 233.38,-199.5 233.38,-193.5 233.38,-193.5 233.38,-170 233.38,-170 233.38,-164 239.38,-158 245.38,-158"/>
<text text-anchor="middle" x="288" y="-188.2" font-family="Times New Roman,serif" font-size="14.00">*</text>
<polyline fill="none" stroke="green" points="233.38,-181.75 342.62,-181.75"/>
<text text-anchor="middle" x="258.25" y="-164.45" font-family="Times New Roman,serif" font-size="14.00">LEFT</text>
<polyline fill="none" stroke="green" points="283.12,-158 283.12,-181.75"/>
<text text-anchor="middle" x="312.88" y="-164.45" font-family="Times New Roman,serif" font-size="14.00">RIGHT</text>
</g>
<!-- 14910128&#45;&gt;14909288 -->
<g id="edge12" class="edge">
<title>14910128:YES&#45;&gt;14909288</title>
<path fill="none" stroke="green" d="M324,-242C324,-232.67 320.7,-223.56 316.1,-215.39"/>
<polygon fill="green" stroke="green" points="319.18,-213.7 310.8,-207.22 313.3,-217.51 319.18,-213.7"/>
</g>
<!-- 14909648 -->
<g id="node17" class="node">
<title>14909648</title>
<path fill="none" stroke="green" d="M372.38,-158C372.38,-158 457.62,-158 457.62,-158 463.62,-158 469.62,-164 469.62,-170 469.62,-170 469.62,-193.5 469.62,-193.5 469.62,-199.5 463.62,-205.5 457.62,-205.5 457.62,-205.5 372.38,-205.5 372.38,-205.5 366.38,-205.5 360.38,-199.5 360.38,-193.5 360.38,-193.5 360.38,-170 360.38,-170 360.38,-164 366.38,-158 372.38,-158"/>
<text text-anchor="middle" x="415" y="-188.2" font-family="Times New Roman,serif" font-size="14.00">*</text>
<polyline fill="none" stroke="green" points="360.38,-181.75 469.62,-181.75"/>
<text text-anchor="middle" x="385.25" y="-164.45" font-family="Times New Roman,serif" font-size="14.00">LEFT</text>
<polyline fill="none" stroke="green" points="410.12,-158 410.12,-181.75"/>
<text text-anchor="middle" x="439.88" y="-164.45" font-family="Times New Roman,serif" font-size="14.00">RIGHT</text>
</g>
<!-- 14910128&#45;&gt;14909648 -->
<g id="edge15" class="edge">
<title>14910128:NO&#45;&gt;14909648</title>
<path fill="none" stroke="red" d="M379,-242C379,-232.67 382.3,-223.56 386.9,-215.39"/>
<polygon fill="red" stroke="red" points="389.7,-217.51 392.2,-207.22 383.82,-213.7 389.7,-217.51"/>
</g>
<!-- 14909448 -->
<g id="node15" class="node">
<title>14909448</title>
<path fill="none" stroke="green" d="M226,-79.25C226,-79.25 256,-79.25 256,-79.25 262,-79.25 268,-85.25 268,-91.25 268,-91.25 268,-103.25 268,-103.25 268,-109.25 262,-115.25 256,-115.25 256,-115.25 226,-115.25 226,-115.25 220,-115.25 214,-109.25 214,-103.25 214,-103.25 214,-91.25 214,-91.25 214,-85.25 220,-79.25 226,-79.25"/>
<text text-anchor="middle" x="241" y="-91.95" font-family="Times New Roman,serif" font-size="14.00">1.00</text>
</g>
<!-- 14909288&#45;&gt;14909448 -->
<g id="edge13" class="edge">
<title>14909288:YES&#45;&gt;14909448</title>
<path fill="none" stroke="green" d="M258,-157.5C258,-147.04 255.52,-135.93 252.46,-126.19"/>
<polygon fill="green" stroke="green" points="255.82,-125.21 249.21,-116.94 249.22,-127.53 255.82,-125.21"/>
</g>
<!-- 14909568 -->
<g id="node16" class="node">
<title>14909568</title>
<path fill="none" stroke="green" d="M298,-79.25C298,-79.25 328,-79.25 328,-79.25 334,-79.25 340,-85.25 340,-91.25 340,-91.25 340,-103.25 340,-103.25 340,-109.25 334,-115.25 328,-115.25 328,-115.25 298,-115.25 298,-115.25 292,-115.25 286,-109.25 286,-103.25 286,-103.25 286,-91.25 286,-91.25 286,-85.25 292,-79.25 298,-79.25"/>
<text text-anchor="middle" x="313" y="-91.95" font-family="Times New Roman,serif" font-size="14.00">5.00</text>
</g>
<!-- 14909288&#45;&gt;14909568 -->
<g id="edge14" class="edge">
<title>14909288:NO&#45;&gt;14909568</title>
<path fill="none" stroke="red" d="M313,-157.5C313,-147.59 313,-136.75 313,-127.08"/>
<polygon fill="red" stroke="red" points="316.5,-127.13 313,-117.13 309.5,-127.13 316.5,-127.13"/>
</g>
<!-- 14909768 -->
<g id="node18" class="node">
<title>14909768</title>
<path fill="none" stroke="green" d="M370,-79.25C370,-79.25 400,-79.25 400,-79.25 406,-79.25 412,-85.25 412,-91.25 412,-91.25 412,-103.25 412,-103.25 412,-109.25 406,-115.25 400,-115.25 400,-115.25 370,-115.25 370,-115.25 364,-115.25 358,-109.25 358,-103.25 358,-103.25 358,-91.25 358,-91.25 358,-85.25 364,-79.25 370,-79.25"/>
<text text-anchor="middle" x="384.88" y="-91.95" font-family="Times New Roman,serif" font-size="14.00">x</text>
</g>
<!-- 14909648&#45;&gt;14909768 -->
<g id="edge16" class="edge">
<title>14909648:YES&#45;&gt;14909768</title>
<path fill="none" stroke="green" d="M385,-157.5C385,-147.59 385,-136.75 385,-127.08"/>
<polygon fill="green" stroke="green" points="388.5,-127.13 385,-117.13 381.5,-127.13 388.5,-127.13"/>
</g>
<!-- 14910528 -->
<g id="node19" class="node">
<title>14910528</title>
<path fill="none" stroke="green" d="M442,-79.25C442,-79.25 472,-79.25 472,-79.25 478,-79.25 484,-85.25 484,-91.25 484,-91.25 484,-103.25 484,-103.25 484,-109.25 478,-115.25 472,-115.25 472,-115.25 442,-115.25 442,-115.25 436,-115.25 430,-109.25 430,-103.25 430,-103.25 430,-91.25 430,-91.25 430,-85.25 436,-79.25 442,-79.25"/>
<text text-anchor="middle" x="457" y="-91.95" font-family="Times New Roman,serif" font-size="14.00">0.00</text>
</g>
<!-- 14909648&#45;&gt;14910528 -->
<g id="edge17" class="edge">
<title>14909648:NO&#45;&gt;14910528</title>
<path fill="none" stroke="red" d="M440,-157.5C440,-147.04 442.48,-135.93 445.54,-126.19"/>
<polygon fill="red" stroke="red" points="448.78,-127.53 448.79,-116.94 442.18,-125.21 448.78,-127.53"/>
</g>
<!-- 14910928 -->
<g id="node21" class="node">
<title>14910928</title>
<path fill="none" stroke="green" d="M500,-163.75C500,-163.75 530,-163.75 530,-163.75 536,-163.75 542,-169.75 542,-175.75 542,-175.75 542,-187.75 542,-187.75 542,-193.75 536,-199.75 530,-199.75 530,-199.75 500,-199.75 500,-199.75 494,-199.75 488,-193.75 488,-187.75 488,-187.75 488,-175.75 488,-175.75 488,-169.75 494,-163.75 500,-163.75"/>
<text text-anchor="middle" x="515" y="-176.45" font-family="Times New Roman,serif" font-size="14.00">5.00</text>
</g>
<!-- 14910488&#45;&gt;14910928 -->
<g id="edge19" class="edge">
<title>14910488:YES&#45;&gt;14910928</title>
<path fill="none" stroke="green" d="M515,-242C515,-232.09 515,-221.25 515,-211.58"/>
<polygon fill="green" stroke="green" points="518.5,-211.63 515,-201.63 511.5,-211.63 518.5,-211.63"/>
</g>
<!-- 14911088 -->
<g id="node22" class="node">
<title>14911088</title>
<path fill="none" stroke="green" d="M572,-163.75C572,-163.75 602,-163.75 602,-163.75 608,-163.75 614,-169.75 614,-175.75 614,-175.75 614,-187.75 614,-187.75 614,-193.75 608,-199.75 602,-199.75 602,-199.75 572,-199.75 572,-199.75 566,-199.75 560,-193.75 560,-187.75 560,-187.75 560,-175.75 560,-175.75 560,-169.75 566,-163.75 572,-163.75"/>
<text text-anchor="middle" x="587" y="-176.45" font-family="Times New Roman,serif" font-size="14.00">2.00</text>
</g>
<!-- 14910488&#45;&gt;14911088 -->
<g id="edge20" class="edge">
<title>14910488:NO&#45;&gt;14911088</title>
<path fill="none" stroke="red" d="M570,-242C570,-231.54 572.48,-220.43 575.54,-210.69"/>
<polygon fill="red" stroke="red" points="578.78,-212.03 578.79,-201.44 572.18,-209.71 578.78,-212.03"/>
</g>
</g>
</svg>
