<?xml version="1.0" encoding="UTF-8" standalone="no"?>
<!DOCTYPE svg PUBLIC "-//W3C//DTD SVG 1.1//EN"
 "http://www.w3.org/Graphics/SVG/1.1/DTD/svg11.dtd">
<!-- Generated by graphviz version 10.0.1 (20240210.2158)
 -->
<!-- Title: G Pages: 1 -->
<svg width="242pt" height="214pt"
 viewBox="0.00 0.00 242.12 214.00" xmlns="http://www.w3.org/2000/svg" xmlns:xlink="http://www.w3.org/1999/xlink">
<g id="graph0" class="graph" transform="scale(1 1) rotate(0) translate(4 210)">
<title>G</title>
<polygon fill="white" stroke="none" points="-4,4 -4,-210 238.12,-210 238.12,4 -4,4"/>
<!-- tree -->
<g id="node1" class="node">
<title>tree</title>
<polygon fill="none" stroke="black" points="54.25,-199.75 0,-199.75 0,-163.75 54.25,-163.75 54.25,-199.75"/>
<text text-anchor="middle" x="27.12" y="-176.32" font-family="Times New Roman,serif" font-size="14.00">size : 5</text>
</g>
<!-- 14888144 -->
<g id="node2" class="node">
<title>14888144</title>
<path fill="none" stroke="green" d="M84.5,-158C84.5,-158 169.75,-158 169.75,-158 175.75,-158 181.75,-164 181.75,-170 181.75,-170 181.75,-193.5 181.75,-193.5 181.75,-199.5 175.75,-205.5 169.75,-205.5 169.75,-205.5 84.5,-205.5 84.5,-205.5 78.5,-205.5 72.5,-199.5 72.5,-193.5 72.5,-193.5 72.5,-170 72.5,-170 72.5,-164 78.5,-158 84.5,-158"/>
<text text-anchor="middle" x="127.12" y="-188.2" font-family="Times New Roman,serif" font-size="14.00">tg</text>
<polyline fill="none" stroke="green" points="72.5,-181.75 181.75,-181.75"/>
<text text-anchor="middle" x="97.38" y="-164.45" font-family="Times New Roman,serif" font-size="14.00">LEFT</text>
<polyline fill="none" stroke="green" points="122.25,-158 122.25,-181.75"/>
<text text-anchor="middle" x="152" y="-164.45" font-family="Times New Roman,serif" font-size="14.00">RIGHT</text>
</g>
<!-- 14878000 -->
<g id="node3" class="node">
<title>14878000</title>
<path fill="none" stroke="green" d="M59.12,-79.25C59.12,-79.25 89.12,-79.25 89.12,-79.25 95.12,-79.25 101.12,-85.25 101.12,-91.25 101.12,-91.25 101.12,-103.25 101.12,-103.25 101.12,-109.25 95.12,-115.25 89.12,-115.25 89.12,-115.25 59.12,-115.25 59.12,-115.25 53.12,-115.25 47.12,-109.25 47.12,-103.25 47.12,-103.25 47.12,-91.25 47.12,-91.25 47.12,-85.25 53.12,-79.25 59.12,-79.25"/>
<text text-anchor="middle" x="73.88" y="-91.95" font-family="Times New Roman,serif" font-size="14.00">&#45;1.00</text>
</g>
<!-- 14888144&#45;&gt;14878000 -->
<g id="edge1" class="edge">
<title>14888144:YES&#45;&gt;14878000</title>
<path fill="none" stroke="green" d="M97.12,-157.5C97.12,-146.76 93.8,-135.62 89.68,-125.93"/>
<polygon fill="green" stroke="green" points="92.92,-124.61 85.47,-117.09 86.6,-127.62 92.92,-124.61"/>
</g>
<!-- 14888024 -->
<g id="node4" class="node">
<title>14888024</title>
<path fill="none" stroke="green" d="M131.5,-73.5C131.5,-73.5 216.75,-73.5 216.75,-73.5 222.75,-73.5 228.75,-79.5 228.75,-85.5 228.75,-85.5 228.75,-109 228.75,-109 228.75,-115 222.75,-121 216.75,-121 216.75,-121 131.5,-121 131.5,-121 125.5,-121 119.5,-115 119.5,-109 119.5,-109 119.5,-85.5 119.5,-85.5 119.5,-79.5 125.5,-73.5 131.5,-73.5"/>
<text text-anchor="middle" x="174.12" y="-103.7" font-family="Times New Roman,serif" font-size="14.00">/</text>
<polyline fill="none" stroke="green" points="119.5,-97.25 228.75,-97.25"/>
<text text-anchor="middle" x="144.38" y="-79.95" font-family="Times New Roman,serif" font-size="14.00">LEFT</text>
<polyline fill="none" stroke="green" points="169.25,-73.5 169.25,-97.25"/>
<text text-anchor="middle" x="199" y="-79.95" font-family="Times New Roman,serif" font-size="14.00">RIGHT</text>
</g>
<!-- 14888144&#45;&gt;14888024 -->
<g id="edge2" class="edge">
<title>14888144:NO&#45;&gt;14888024</title>
<path fill="none" stroke="red" d="M152.12,-157.5C152.12,-148.98 154.15,-140.17 156.97,-132.04"/>
<polygon fill="red" stroke="red" points="160.18,-133.44 160.64,-122.86 153.68,-130.85 160.18,-133.44"/>
</g>
<!-- 14878040 -->
<g id="node5" class="node">
<title>14878040</title>
<path fill="none" stroke="green" d="M120.12,-0.5C120.12,-0.5 150.12,-0.5 150.12,-0.5 156.12,-0.5 162.12,-6.5 162.12,-12.5 162.12,-12.5 162.12,-24.5 162.12,-24.5 162.12,-30.5 156.12,-36.5 150.12,-36.5 150.12,-36.5 120.12,-36.5 120.12,-36.5 114.12,-36.5 108.12,-30.5 108.12,-24.5 108.12,-24.5 108.12,-12.5 108.12,-12.5 108.12,-6.5 114.12,-0.5 120.12,-0.5"/>
<text text-anchor="middle" x="135" y="-13.2" font-family="Times New Roman,serif" font-size="14.00">x</text>
</g>
<!-- 14888024&#45;&gt;14878040 -->
<g id="edge3" class="edge">
<title>14888024:YES&#45;&gt;14878040</title>
<path fill="none" stroke="green" d="M144.12,-73C144.12,-64.77 143.08,-55.93 141.7,-47.85"/>
<polygon fill="green" stroke="green" points="145.17,-47.35 139.81,-38.21 138.3,-48.7 145.17,-47.35"/>
</g>
<!-- 14878080 -->
<g id="node6" class="node">
<title>14878080</title>
<path fill="none" stroke="green" d="M192.12,-0.5C192.12,-0.5 222.12,-0.5 222.12,-0.5 228.12,-0.5 234.12,-6.5 234.12,-12.5 234.12,-12.5 234.12,-24.5 234.12,-24.5 234.12,-30.5 228.12,-36.5 222.12,-36.5 222.12,-36.5 192.12,-36.5 192.12,-36.5 186.12,-36.5 180.12,-30.5 180.12,-24.5 180.12,-24.5 180.12,-12.5 180.12,-12.5 180.12,-6.5 186.12,-0.5 192.12,-0.5"/>
<text text-anchor="middle" x="207.12" y="-13.2" font-family="Times New Roman,serif" font-size="14.00">5.00</text>
</g>
<!-- 14888024&#45;&gt;14878080 -->
<g id="edge4" class="edge">
<title>14888024:NO&#45;&gt;14878080</title>
<path fill="none" stroke="red" d="M199.12,-73C199.12,-64.8 200.06,-55.96 201.28,-47.89"/>
<polygon fill="red" stroke="red" points="204.7,-48.69 202.96,-38.24 197.8,-47.49 204.7,-48.69"/>
</g>
</g>
</svg>
