<?xml version="1.0" encoding="UTF-8" standalone="no"?>
<!DOCTYPE svg PUBLIC "-//W3C//DTD SVG 1.1//EN"
 "http://www.w3.org/Graphics/SVG/1.1/DTD/svg11.dtd">
<!-- Generated by graphviz version 10.0.1 (20240210.2158)
 -->
<!-- Title: G Pages: 1 -->
<svg width="445pt" height="552pt"
 viewBox="0.00 0.00 444.50 552.00" xmlns="http://www.w3.org/2000/svg" xmlns:xlink="http://www.w3.org/1999/xlink">
<g id="graph0" class="graph" transform="scale(1 1) rotate(0) translate(4 548)">
<title>G</title>
<polygon fill="white" stroke="none" points="-4,4 -4,-548 440.5,-548 440.5,4 -4,4"/>
<!-- tree -->
<g id="node1" class="node">
<title>tree</title>
<polygon fill="none" stroke="black" points="61,-537.75 0,-537.75 0,-501.75 61,-501.75 61,-537.75"/>
<text text-anchor="middle" x="30.5" y="-514.33" font-family="Times New Roman,serif" font-size="14.00">size : 17</text>
</g>
<!-- 14353584 -->
<g id="node2" class="node">
<title>14353584</title>
<path fill="none" stroke="green" d="M91.25,-496C91.25,-496 145.75,-496 145.75,-496 151.75,-496 157.75,-502 157.75,-508 157.75,-508 157.75,-531.5 157.75,-531.5 157.75,-537.5 151.75,-543.5 145.75,-543.5 145.75,-543.5 91.25,-543.5 91.25,-543.5 85.25,-543.5 79.25,-537.5 79.25,-531.5 79.25,-531.5 79.25,-508 79.25,-508 79.25,-502 85.25,-496 91.25,-496"/>
<text text-anchor="middle" x="118.5" y="-526.2" font-family="Times New Roman,serif" font-size="14.00">+</text>
<polyline fill="none" stroke="green" points="79.25,-519.75 157.75,-519.75"/>
<text text-anchor="middle" x="100.38" y="-502.45" font-family="Times New Roman,serif" font-size="14.00">YES</text>
<polyline fill="none" stroke="green" points="121.5,-496 121.5,-519.75"/>
<text text-anchor="middle" x="139.62" y="-502.45" font-family="Times New Roman,serif" font-size="14.00">NO</text>
</g>
<!-- 14358232 -->
<g id="node3" class="node">
<title>14358232</title>
<path fill="none" stroke="green" d="M63.5,-417.25C63.5,-417.25 93.5,-417.25 93.5,-417.25 99.5,-417.25 105.5,-423.25 105.5,-429.25 105.5,-429.25 105.5,-441.25 105.5,-441.25 105.5,-447.25 99.5,-453.25 93.5,-453.25 93.5,-453.25 63.5,-453.25 63.5,-453.25 57.5,-453.25 51.5,-447.25 51.5,-441.25 51.5,-441.25 51.5,-429.25 51.5,-429.25 51.5,-423.25 57.5,-417.25 63.5,-417.25"/>
<text text-anchor="middle" x="78.5" y="-429.95" font-family="Times New Roman,serif" font-size="14.00">2.00</text>
</g>
<!-- 14353584&#45;&gt;14358232 -->
<g id="edge1" class="edge">
<title>14353584:YES&#45;&gt;14358232</title>
<path fill="none" stroke="green" d="M100.5,-495.5C100.5,-484.74 97.27,-473.52 93.29,-463.79"/>
<polygon fill="green" stroke="green" points="96.56,-462.54 89.23,-454.9 90.2,-465.45 96.56,-462.54"/>
</g>
<!-- 14353744 -->
<g id="node4" class="node">
<title>14353744</title>
<path fill="none" stroke="green" d="M135.25,-411.5C135.25,-411.5 189.75,-411.5 189.75,-411.5 195.75,-411.5 201.75,-417.5 201.75,-423.5 201.75,-423.5 201.75,-447 201.75,-447 201.75,-453 195.75,-459 189.75,-459 189.75,-459 135.25,-459 135.25,-459 129.25,-459 123.25,-453 123.25,-447 123.25,-447 123.25,-423.5 123.25,-423.5 123.25,-417.5 129.25,-411.5 135.25,-411.5"/>
<text text-anchor="middle" x="162.5" y="-441.7" font-family="Times New Roman,serif" font-size="14.00">&#45;</text>
<polyline fill="none" stroke="green" points="123.25,-435.25 201.75,-435.25"/>
<text text-anchor="middle" x="144.38" y="-417.95" font-family="Times New Roman,serif" font-size="14.00">YES</text>
<polyline fill="none" stroke="green" points="165.5,-411.5 165.5,-435.25"/>
<text text-anchor="middle" x="183.62" y="-417.95" font-family="Times New Roman,serif" font-size="14.00">NO</text>
</g>
<!-- 14353584&#45;&gt;14353744 -->
<g id="edge2" class="edge">
<title>14353584:NO&#45;&gt;14353744</title>
<path fill="none" stroke="red" d="M139.5,-495.5C139.5,-486.93 141.62,-478.1 144.57,-469.97"/>
<polygon fill="red" stroke="red" points="147.78,-471.36 148.4,-460.78 141.32,-468.66 147.78,-471.36"/>
</g>
<!-- 14353664 -->
<g id="node5" class="node">
<title>14353664</title>
<path fill="none" stroke="green" d="M81.25,-327C81.25,-327 135.75,-327 135.75,-327 141.75,-327 147.75,-333 147.75,-339 147.75,-339 147.75,-362.5 147.75,-362.5 147.75,-368.5 141.75,-374.5 135.75,-374.5 135.75,-374.5 81.25,-374.5 81.25,-374.5 75.25,-374.5 69.25,-368.5 69.25,-362.5 69.25,-362.5 69.25,-339 69.25,-339 69.25,-333 75.25,-327 81.25,-327"/>
<text text-anchor="middle" x="108.5" y="-357.2" font-family="Times New Roman,serif" font-size="14.00">*</text>
<polyline fill="none" stroke="green" points="69.25,-350.75 147.75,-350.75"/>
<text text-anchor="middle" x="90.38" y="-333.45" font-family="Times New Roman,serif" font-size="14.00">YES</text>
<polyline fill="none" stroke="green" points="111.5,-327 111.5,-350.75"/>
<text text-anchor="middle" x="129.62" y="-333.45" font-family="Times New Roman,serif" font-size="14.00">NO</text>
</g>
<!-- 14353744&#45;&gt;14353664 -->
<g id="edge3" class="edge">
<title>14353744:YES&#45;&gt;14353664</title>
<path fill="none" stroke="green" d="M144.5,-411C144.5,-401.67 141.2,-392.56 136.6,-384.39"/>
<polygon fill="green" stroke="green" points="139.68,-382.7 131.3,-376.22 133.8,-386.51 139.68,-382.7"/>
</g>
<!-- 14364152 -->
<g id="node8" class="node">
<title>14364152</title>
<path fill="none" stroke="green" d="M192.25,-327C192.25,-327 246.75,-327 246.75,-327 252.75,-327 258.75,-333 258.75,-339 258.75,-339 258.75,-362.5 258.75,-362.5 258.75,-368.5 252.75,-374.5 246.75,-374.5 246.75,-374.5 192.25,-374.5 192.25,-374.5 186.25,-374.5 180.25,-368.5 180.25,-362.5 180.25,-362.5 180.25,-339 180.25,-339 180.25,-333 186.25,-327 192.25,-327"/>
<text text-anchor="middle" x="219.5" y="-357.2" font-family="Times New Roman,serif" font-size="14.00">+</text>
<polyline fill="none" stroke="green" points="180.25,-350.75 258.75,-350.75"/>
<text text-anchor="middle" x="201.38" y="-333.45" font-family="Times New Roman,serif" font-size="14.00">YES</text>
<polyline fill="none" stroke="green" points="222.5,-327 222.5,-350.75"/>
<text text-anchor="middle" x="240.62" y="-333.45" font-family="Times New Roman,serif" font-size="14.00">NO</text>
</g>
<!-- 14353744&#45;&gt;14364152 -->
<g id="edge6" class="edge">
<title>14353744:NO&#45;&gt;14364152</title>
<path fill="none" stroke="red" d="M183.5,-411C183.5,-401.67 186.8,-392.56 191.4,-384.39"/>
<polygon fill="red" stroke="red" points="194.2,-386.51 196.7,-376.22 188.32,-382.7 194.2,-386.51"/>
</g>
<!-- 14353624 -->
<g id="node6" class="node">
<title>14353624</title>
<path fill="none" stroke="green" d="M36.38,-248.25C36.38,-248.25 72.62,-248.25 72.62,-248.25 78.62,-248.25 84.62,-254.25 84.62,-260.25 84.62,-260.25 84.62,-272.25 84.62,-272.25 84.62,-278.25 78.62,-284.25 72.62,-284.25 72.62,-284.25 36.38,-284.25 36.38,-284.25 30.38,-284.25 24.38,-278.25 24.38,-272.25 24.38,-272.25 24.38,-260.25 24.38,-260.25 24.38,-254.25 30.38,-248.25 36.38,-248.25"/>
<text text-anchor="middle" x="54.5" y="-260.95" font-family="Times New Roman,serif" font-size="14.00">3451.00</text>
</g>
<!-- 14353664&#45;&gt;14353624 -->
<g id="edge4" class="edge">
<title>14353664:YES&#45;&gt;14353624</title>
<path fill="none" stroke="green" d="M90.5,-326.5C90.5,-314.67 85.2,-303.2 78.66,-293.55"/>
<polygon fill="green" stroke="green" points="81.6,-291.63 72.78,-285.76 76.02,-295.85 81.6,-291.63"/>
</g>
<!-- 14353704 -->
<g id="node7" class="node">
<title>14353704</title>
<path fill="none" stroke="green" d="M114.5,-248.25C114.5,-248.25 144.5,-248.25 144.5,-248.25 150.5,-248.25 156.5,-254.25 156.5,-260.25 156.5,-260.25 156.5,-272.25 156.5,-272.25 156.5,-278.25 150.5,-284.25 144.5,-284.25 144.5,-284.25 114.5,-284.25 114.5,-284.25 108.5,-284.25 102.5,-278.25 102.5,-272.25 102.5,-272.25 102.5,-260.25 102.5,-260.25 102.5,-254.25 108.5,-248.25 114.5,-248.25"/>
<text text-anchor="middle" x="129.5" y="-260.95" font-family="Times New Roman,serif" font-size="14.00">4.00</text>
</g>
<!-- 14353664&#45;&gt;14353704 -->
<g id="edge5" class="edge">
<title>14353664:NO&#45;&gt;14353704</title>
<path fill="none" stroke="red" d="M129.5,-326.5C129.5,-316.59 129.5,-305.75 129.5,-296.08"/>
<polygon fill="red" stroke="red" points="133,-296.13 129.5,-286.13 126,-296.13 133,-296.13"/>
</g>
<!-- 14353784 -->
<g id="node9" class="node">
<title>14353784</title>
<path fill="none" stroke="green" d="M186.5,-248.25C186.5,-248.25 216.5,-248.25 216.5,-248.25 222.5,-248.25 228.5,-254.25 228.5,-260.25 228.5,-260.25 228.5,-272.25 228.5,-272.25 228.5,-278.25 222.5,-284.25 216.5,-284.25 216.5,-284.25 186.5,-284.25 186.5,-284.25 180.5,-284.25 174.5,-278.25 174.5,-272.25 174.5,-272.25 174.5,-260.25 174.5,-260.25 174.5,-254.25 180.5,-248.25 186.5,-248.25"/>
<text text-anchor="middle" x="201.25" y="-260.95" font-family="Times New Roman,serif" font-size="14.00">535.00</text>
</g>
<!-- 14364152&#45;&gt;14353784 -->
<g id="edge7" class="edge">
<title>14364152:YES&#45;&gt;14353784</title>
<path fill="none" stroke="green" d="M201.5,-326.5C201.5,-316.59 201.5,-305.75 201.5,-296.08"/>
<polygon fill="green" stroke="green" points="205,-296.13 201.5,-286.13 198,-296.13 205,-296.13"/>
</g>
<!-- 14364272 -->
<g id="node10" class="node">
<title>14364272</title>
<path fill="none" stroke="green" d="M258.25,-242.5C258.25,-242.5 312.75,-242.5 312.75,-242.5 318.75,-242.5 324.75,-248.5 324.75,-254.5 324.75,-254.5 324.75,-278 324.75,-278 324.75,-284 318.75,-290 312.75,-290 312.75,-290 258.25,-290 258.25,-290 252.25,-290 246.25,-284 246.25,-278 246.25,-278 246.25,-254.5 246.25,-254.5 246.25,-248.5 252.25,-242.5 258.25,-242.5"/>
<text text-anchor="middle" x="285.5" y="-272.7" font-family="Times New Roman,serif" font-size="14.00">&#45;</text>
<polyline fill="none" stroke="green" points="246.25,-266.25 324.75,-266.25"/>
<text text-anchor="middle" x="267.38" y="-248.95" font-family="Times New Roman,serif" font-size="14.00">YES</text>
<polyline fill="none" stroke="green" points="288.5,-242.5 288.5,-266.25"/>
<text text-anchor="middle" x="306.62" y="-248.95" font-family="Times New Roman,serif" font-size="14.00">NO</text>
</g>
<!-- 14364152&#45;&gt;14364272 -->
<g id="edge8" class="edge">
<title>14364152:NO&#45;&gt;14364272</title>
<path fill="none" stroke="red" d="M240.5,-326.5C240.5,-316.66 244.49,-307.43 250.08,-299.31"/>
<polygon fill="red" stroke="red" points="252.81,-301.52 256.31,-291.52 247.34,-297.15 252.81,-301.52"/>
</g>
<!-- 14364232 -->
<g id="node11" class="node">
<title>14364232</title>
<path fill="none" stroke="green" d="M229.5,-163.75C229.5,-163.75 259.5,-163.75 259.5,-163.75 265.5,-163.75 271.5,-169.75 271.5,-175.75 271.5,-175.75 271.5,-187.75 271.5,-187.75 271.5,-193.75 265.5,-199.75 259.5,-199.75 259.5,-199.75 229.5,-199.75 229.5,-199.75 223.5,-199.75 217.5,-193.75 217.5,-187.75 217.5,-187.75 217.5,-175.75 217.5,-175.75 217.5,-169.75 223.5,-163.75 229.5,-163.75"/>
<text text-anchor="middle" x="244.38" y="-176.45" font-family="Times New Roman,serif" font-size="14.00">54.00</text>
</g>
<!-- 14364272&#45;&gt;14364232 -->
<g id="edge9" class="edge">
<title>14364272:YES&#45;&gt;14364232</title>
<path fill="none" stroke="green" d="M267.5,-242C267.5,-231.26 264.17,-220.12 260.05,-210.43"/>
<polygon fill="green" stroke="green" points="263.3,-209.11 255.84,-201.59 256.98,-212.12 263.3,-209.11"/>
</g>
<!-- 14364400 -->
<g id="node12" class="node">
<title>14364400</title>
<path fill="none" stroke="green" d="M301.25,-158C301.25,-158 355.75,-158 355.75,-158 361.75,-158 367.75,-164 367.75,-170 367.75,-170 367.75,-193.5 367.75,-193.5 367.75,-199.5 361.75,-205.5 355.75,-205.5 355.75,-205.5 301.25,-205.5 301.25,-205.5 295.25,-205.5 289.25,-199.5 289.25,-193.5 289.25,-193.5 289.25,-170 289.25,-170 289.25,-164 295.25,-158 301.25,-158"/>
<text text-anchor="middle" x="328.5" y="-188.2" font-family="Times New Roman,serif" font-size="14.00">/</text>
<polyline fill="none" stroke="green" points="289.25,-181.75 367.75,-181.75"/>
<text text-anchor="middle" x="310.38" y="-164.45" font-family="Times New Roman,serif" font-size="14.00">YES</text>
<polyline fill="none" stroke="green" points="331.5,-158 331.5,-181.75"/>
<text text-anchor="middle" x="349.62" y="-164.45" font-family="Times New Roman,serif" font-size="14.00">NO</text>
</g>
<!-- 14364272&#45;&gt;14364400 -->
<g id="edge10" class="edge">
<title>14364272:NO&#45;&gt;14364400</title>
<path fill="none" stroke="red" d="M306.5,-242C306.5,-233.48 308.53,-224.67 311.35,-216.54"/>
<polygon fill="red" stroke="red" points="314.56,-217.94 315.01,-207.36 308.05,-215.35 314.56,-217.94"/>
</g>
<!-- 14358184 -->
<g id="node13" class="node">
<title>14358184</title>
<path fill="none" stroke="green" d="M273.5,-79.25C273.5,-79.25 303.5,-79.25 303.5,-79.25 309.5,-79.25 315.5,-85.25 315.5,-91.25 315.5,-91.25 315.5,-103.25 315.5,-103.25 315.5,-109.25 309.5,-115.25 303.5,-115.25 303.5,-115.25 273.5,-115.25 273.5,-115.25 267.5,-115.25 261.5,-109.25 261.5,-103.25 261.5,-103.25 261.5,-91.25 261.5,-91.25 261.5,-85.25 267.5,-79.25 273.5,-79.25"/>
<text text-anchor="middle" x="288.5" y="-91.95" font-family="Times New Roman,serif" font-size="14.00">4.00</text>
</g>
<!-- 14364400&#45;&gt;14358184 -->
<g id="edge11" class="edge">
<title>14364400:YES&#45;&gt;14358184</title>
<path fill="none" stroke="green" d="M310.5,-157.5C310.5,-146.74 307.27,-135.52 303.29,-125.79"/>
<polygon fill="green" stroke="green" points="306.56,-124.54 299.23,-116.9 300.2,-127.45 306.56,-124.54"/>
</g>
<!-- 14364480 -->
<g id="node14" class="node">
<title>14364480</title>
<path fill="none" stroke="green" d="M345.25,-73.5C345.25,-73.5 399.75,-73.5 399.75,-73.5 405.75,-73.5 411.75,-79.5 411.75,-85.5 411.75,-85.5 411.75,-109 411.75,-109 411.75,-115 405.75,-121 399.75,-121 399.75,-121 345.25,-121 345.25,-121 339.25,-121 333.25,-115 333.25,-109 333.25,-109 333.25,-85.5 333.25,-85.5 333.25,-79.5 339.25,-73.5 345.25,-73.5"/>
<text text-anchor="middle" x="372.5" y="-103.7" font-family="Times New Roman,serif" font-size="14.00">*</text>
<polyline fill="none" stroke="green" points="333.25,-97.25 411.75,-97.25"/>
<text text-anchor="middle" x="354.38" y="-79.95" font-family="Times New Roman,serif" font-size="14.00">YES</text>
<polyline fill="none" stroke="green" points="375.5,-73.5 375.5,-97.25"/>
<text text-anchor="middle" x="393.62" y="-79.95" font-family="Times New Roman,serif" font-size="14.00">NO</text>
</g>
<!-- 14364400&#45;&gt;14364480 -->
<g id="edge12" class="edge">
<title>14364400:NO&#45;&gt;14364480</title>
<path fill="none" stroke="red" d="M349.5,-157.5C349.5,-148.93 351.62,-140.1 354.57,-131.97"/>
<polygon fill="red" stroke="red" points="357.78,-133.36 358.4,-122.78 351.32,-130.66 357.78,-133.36"/>
</g>
<!-- 14364440 -->
<g id="node15" class="node">
<title>14364440</title>
<path fill="none" stroke="green" d="M322.5,-0.5C322.5,-0.5 352.5,-0.5 352.5,-0.5 358.5,-0.5 364.5,-6.5 364.5,-12.5 364.5,-12.5 364.5,-24.5 364.5,-24.5 364.5,-30.5 358.5,-36.5 352.5,-36.5 352.5,-36.5 322.5,-36.5 322.5,-36.5 316.5,-36.5 310.5,-30.5 310.5,-24.5 310.5,-24.5 310.5,-12.5 310.5,-12.5 310.5,-6.5 316.5,-0.5 322.5,-0.5"/>
<text text-anchor="middle" x="337.5" y="-13.2" font-family="Times New Roman,serif" font-size="14.00">3.00</text>
</g>
<!-- 14364480&#45;&gt;14364440 -->
<g id="edge13" class="edge">
<title>14364480:YES&#45;&gt;14364440</title>
<path fill="none" stroke="green" d="M354.5,-73C354.5,-64.52 352.54,-55.63 349.94,-47.58"/>
<polygon fill="green" stroke="green" points="353.27,-46.48 346.52,-38.31 346.7,-48.91 353.27,-46.48"/>
</g>
<!-- 14363216 -->
<g id="node16" class="node">
<title>14363216</title>
<path fill="none" stroke="green" d="M394.5,-0.5C394.5,-0.5 424.5,-0.5 424.5,-0.5 430.5,-0.5 436.5,-6.5 436.5,-12.5 436.5,-12.5 436.5,-24.5 436.5,-24.5 436.5,-30.5 430.5,-36.5 424.5,-36.5 424.5,-36.5 394.5,-36.5 394.5,-36.5 388.5,-36.5 382.5,-30.5 382.5,-24.5 382.5,-24.5 382.5,-12.5 382.5,-12.5 382.5,-6.5 388.5,-0.5 394.5,-0.5"/>
<text text-anchor="middle" x="409.38" y="-13.2" font-family="Times New Roman,serif" font-size="14.00">x</text>
</g>
<!-- 14364480&#45;&gt;14363216 -->
<g id="edge14" class="edge">
<title>14364480:NO&#45;&gt;14363216</title>
<path fill="none" stroke="red" d="M393.5,-73C393.5,-64.57 395.35,-55.69 397.79,-47.64"/>
<polygon fill="red" stroke="red" points="401.03,-48.97 401,-38.37 394.42,-46.67 401.03,-48.97"/>
</g>
</g>
</svg>
