<?xml version="1.0" encoding="UTF-8" standalone="no"?>
<!DOCTYPE svg PUBLIC "-//W3C//DTD SVG 1.1//EN"
 "http://www.w3.org/Graphics/SVG/1.1/DTD/svg11.dtd">
<!-- Generated by graphviz version 10.0.1 (20240210.2158)
 -->
<!-- Title: G Pages: 1 -->
<svg width="209pt" height="214pt"
 viewBox="0.00 0.00 209.12 214.00" xmlns="http://www.w3.org/2000/svg" xmlns:xlink="http://www.w3.org/1999/xlink">
<g id="graph0" class="graph" transform="scale(1 1) rotate(0) translate(4 210)">
<title>G</title>
<polygon fill="white" stroke="none" points="-4,4 -4,-210 205.12,-210 205.12,4 -4,4"/>
<!-- tree -->
<g id="node1" class="node">
<title>tree</title>
<polygon fill="none" stroke="black" points="54.25,-199.75 0,-199.75 0,-163.75 54.25,-163.75 54.25,-199.75"/>
<text text-anchor="middle" x="27.12" y="-176.32" font-family="Times New Roman,serif" font-size="14.00">size : 5</text>
</g>
<!-- 14945768 -->
<g id="node2" class="node">
<title>14945768</title>
<path fill="none" stroke="green" d="M84.5,-158C84.5,-158 169.75,-158 169.75,-158 175.75,-158 181.75,-164 181.75,-170 181.75,-170 181.75,-193.5 181.75,-193.5 181.75,-199.5 175.75,-205.5 169.75,-205.5 169.75,-205.5 84.5,-205.5 84.5,-205.5 78.5,-205.5 72.5,-199.5 72.5,-193.5 72.5,-193.5 72.5,-170 72.5,-170 72.5,-164 78.5,-158 84.5,-158"/>
<text text-anchor="middle" x="127.12" y="-188.2" font-family="Times New Roman,serif" font-size="14.00">^</text>
<polyline fill="none" stroke="green" points="72.5,-181.75 181.75,-181.75"/>
<text text-anchor="middle" x="97.38" y="-164.45" font-family="Times New Roman,serif" font-size="14.00">LEFT</text>
<polyline fill="none" stroke="green" points="122.25,-158 122.25,-181.75"/>
<text text-anchor="middle" x="152" y="-164.45" font-family="Times New Roman,serif" font-size="14.00">RIGHT</text>
</g>
<!-- 14945688 -->
<g id="node3" class="node">
<title>14945688</title>
<path fill="none" stroke="green" d="M31.5,-73.5C31.5,-73.5 116.75,-73.5 116.75,-73.5 122.75,-73.5 128.75,-79.5 128.75,-85.5 128.75,-85.5 128.75,-109 128.75,-109 128.75,-115 122.75,-121 116.75,-121 116.75,-121 31.5,-121 31.5,-121 25.5,-121 19.5,-115 19.5,-109 19.5,-109 19.5,-85.5 19.5,-85.5 19.5,-79.5 25.5,-73.5 31.5,-73.5"/>
<text text-anchor="middle" x="74.12" y="-103.7" font-family="Times New Roman,serif" font-size="14.00">^</text>
<polyline fill="none" stroke="green" points="19.5,-97.25 128.75,-97.25"/>
<text text-anchor="middle" x="44.38" y="-79.95" font-family="Times New Roman,serif" font-size="14.00">LEFT</text>
<polyline fill="none" stroke="green" points="69.25,-73.5 69.25,-97.25"/>
<text text-anchor="middle" x="99" y="-79.95" font-family="Times New Roman,serif" font-size="14.00">RIGHT</text>
</g>
<!-- 14945768&#45;&gt;14945688 -->
<g id="edge1" class="edge">
<title>14945768:YES&#45;&gt;14945688</title>
<path fill="none" stroke="green" d="M97.12,-157.5C97.12,-148.93 95.01,-140.1 92.06,-131.97"/>
<polygon fill="green" stroke="green" points="95.3,-130.66 88.22,-122.78 88.85,-133.36 95.3,-130.66"/>
</g>
<!-- 14946080 -->
<g id="node6" class="node">
<title>14946080</title>
<path fill="none" stroke="green" d="M159.12,-79.25C159.12,-79.25 189.12,-79.25 189.12,-79.25 195.12,-79.25 201.12,-85.25 201.12,-91.25 201.12,-91.25 201.12,-103.25 201.12,-103.25 201.12,-109.25 195.12,-115.25 189.12,-115.25 189.12,-115.25 159.12,-115.25 159.12,-115.25 153.12,-115.25 147.12,-109.25 147.12,-103.25 147.12,-103.25 147.12,-91.25 147.12,-91.25 147.12,-85.25 153.12,-79.25 159.12,-79.25"/>
<text text-anchor="middle" x="174" y="-91.95" font-family="Times New Roman,serif" font-size="14.00">3</text>
</g>
<!-- 14945768&#45;&gt;14946080 -->
<g id="edge4" class="edge">
<title>14945768:NO&#45;&gt;14946080</title>
<path fill="none" stroke="red" d="M152.12,-157.5C152.12,-146.74 155.35,-135.52 159.34,-125.79"/>
<polygon fill="red" stroke="red" points="162.43,-127.45 163.4,-116.9 156.06,-124.54 162.43,-127.45"/>
</g>
<!-- 14945648 -->
<g id="node4" class="node">
<title>14945648</title>
<path fill="none" stroke="green" d="M21.12,-0.5C21.12,-0.5 51.12,-0.5 51.12,-0.5 57.12,-0.5 63.12,-6.5 63.12,-12.5 63.12,-12.5 63.12,-24.5 63.12,-24.5 63.12,-30.5 57.12,-36.5 51.12,-36.5 51.12,-36.5 21.12,-36.5 21.12,-36.5 15.12,-36.5 9.12,-30.5 9.12,-24.5 9.12,-24.5 9.12,-12.5 9.12,-12.5 9.12,-6.5 15.12,-0.5 21.12,-0.5"/>
<text text-anchor="middle" x="36" y="-13.2" font-family="Times New Roman,serif" font-size="14.00">2</text>
</g>
<!-- 14945688&#45;&gt;14945648 -->
<g id="edge2" class="edge">
<title>14945688:YES&#45;&gt;14945648</title>
<path fill="none" stroke="green" d="M44.12,-73C44.12,-64.8 43.19,-55.96 41.97,-47.89"/>
<polygon fill="green" stroke="green" points="45.45,-47.49 40.29,-38.24 38.55,-48.69 45.45,-47.49"/>
</g>
<!-- 14945728 -->
<g id="node5" class="node">
<title>14945728</title>
<path fill="none" stroke="green" d="M93.12,-0.5C93.12,-0.5 123.12,-0.5 123.12,-0.5 129.12,-0.5 135.12,-6.5 135.12,-12.5 135.12,-12.5 135.12,-24.5 135.12,-24.5 135.12,-30.5 129.12,-36.5 123.12,-36.5 123.12,-36.5 93.12,-36.5 93.12,-36.5 87.12,-36.5 81.12,-30.5 81.12,-24.5 81.12,-24.5 81.12,-12.5 81.12,-12.5 81.12,-6.5 87.12,-0.5 93.12,-0.5"/>
<text text-anchor="middle" x="108" y="-13.2" font-family="Times New Roman,serif" font-size="14.00">2</text>
</g>
<!-- 14945688&#45;&gt;14945728 -->
<g id="edge3" class="edge">
<title>14945688:NO&#45;&gt;14945728</title>
<path fill="none" stroke="red" d="M99.12,-73C99.12,-64.77 100.17,-55.93 101.55,-47.85"/>
<polygon fill="red" stroke="red" points="104.95,-48.7 103.44,-38.21 98.08,-47.35 104.95,-48.7"/>
</g>
</g>
</svg>
